<svg xmlns="http://www.w3.org/2000/svg" viewBox="0 0 433.91 313.8"><defs><style>.cls-1{fill:#1c252a;}.cls-2{fill:#212020;}.cls-3{fill:#cb9c49;}.cls-4{fill:#ebbe9d;}.cls-5{fill:#859089;}.cls-6{fill:#2e3148;}.cls-7{fill:#75472d;}.cls-8{fill:#383442;}.cls-9{fill:#a6724b;}.cls-10{fill:#a42e26;}.cls-11{fill:#343334;}.cls-12{fill:#791f1a;}.cls-13{fill:#c0883f;}.cls-14{fill:#64726d;}.cls-15{fill:#3c3b3b;}.cls-16{fill:#848689;}.cls-17{fill:#6b6869;}.cls-18{fill:#2b383e;}</style></defs><g id="Layer_2" data-name="Layer 2"><g id="Layer_1-2" data-name="Layer 1"><path class="cls-1" d="M283.79,138.76a31.87,31.87,0,0,1,.16,8.67c-.11,1.59.36,2.17,2.12,2.16,11.27-.1,22.54-.07,33.81-.08,2.76,0,5.52,0,8.28,0,.86,0,1.85-.38,2.56.34,5,5.09,11.35,2.24,17,2.37,3.52.08,7.24.49,10.9-.32,1.61-.36,3-1.14,4.53-1.47,2.94-.63,5.9-2.29,8.71.85,1.28,1.43,3.71.49,5.46.35,9.49-.77,19.05.11,28.48-1.38a3,3,0,0,1,2.42.89Q415.61,157,423,162.86c3,2.4,6.08,4.82,9.2,7.12,1.05.77.89,1.78.88,2.7,0,3.68.17,7.42-.45,11-.27,1.61,2.44,2.5.65,3.74s-4.08,1-6.21,1c-9.36,0-18.72.08-28.08,0-1.47,0-2,.31-2,1.83,0,7.52,0,15.05-.18,22.57-.11,6-.47,12-.54,18-.15,13.58-.2,27.15-.28,40.72,0,4.93.16,9.87-.1,14.78a5.34,5.34,0,0,0,1.87,4.81c2.09,1.88,2.2,4.56,1.39,6.95s-3.34,1.74-5.27,1.76c-3,.05-5.83.81-8.86.26-3.75-.69-5.49-3.18-3.43-6.43,1.56-2.45,1.65-4.89,1.69-7.53q.53-43.59,1.07-87.18c0-2.86-.83-5.72.16-8.56.41-1.18-.44-1.09-1.19-1.29-4.62-1.25-9.22.32-13.85.11-2.23-.11-1.34,2.21-1.36,3.29-.16,8.11,0,16.23-.15,24.34q-.39,24.86-1,49.7c0,2.13-.52,4.25-.57,6.37-.05,2.48-1.07,5.16,1.92,7.06a3.36,3.36,0,0,1,.95,4c-1,1.85-2.75,1.43-4.37,1.3,1.34-1.61,3.34-3.16.3-5.08-.16-.1.25-.95.19-1.42-1.26-10.34-1-20.68-.61-31.08.5-12.77.05-25.58.16-38.37.05-5.88.46-11.76.73-17.64.08-1.68-.41-2.62-2.33-2.62s-2.48,1.1-2.23,2.68c.54,3.39-.1,6.77.06,10.11.4,8.26-.11,16.5-.1,24.75q0,25,0,50c0,3.33-1.8,7,2.33,9.22-6.48.61-6.78.2-5.32-6.13,1.09-4.73.63-9.59.7-14.39.28-19.69-.23-39.37.28-59.06a95.82,95.82,0,0,0-.17-12.78c-.34-3.09-1.57-4.63-4.67-4.37-19.4,1.65-38.87,0-58.29,1.34-7.72.55-15.51,0-23.26.19-17.34.32-34.69.76-52,1.13a19.86,19.86,0,0,1-2.15-.18c-1.59,7.3.6,14.7-.75,22-.15.82.7,1.1,1.37,1.5a27.38,27.38,0,0,1,8.4,7.09c1.4,1.89,4.4,2.34,6.63,3.19a43.4,43.4,0,0,1,11.49,6.33c3,2.31,4.58.48,6.19-1.48a27.35,27.35,0,0,0,4-5.86c2.57-5.69,12.17-6.43,16.91-4.33,9.12,4,10.12,13.39,5.35,20.29-1.69,2.44-3.08,5.09-4.52,7.69a16.7,16.7,0,0,0-2,6.38c-.64,5.5-4,10.1-7.57,13.84-2.57,2.65-7.14,1.27-10.77.53-4.81-1-9.46-2.5-13-7.18-2.43,7.2-6.78,12.89-8.22,19.82-.53,2.58-2.39,2.85-4.46,3.15-3.55.52-6.94-1.36-10.51-.65,1.57,4.08,1.37,4.31-2.84,5.46-1.51.42-3,.3-4.5.58a3,3,0,0,1-3.41-1.8,2.53,2.53,0,0,1,.7-3.41,5.7,5.7,0,0,0,1.68-2.87c.52-1.56.71-2.77-1.71-2-1.63.5-2.54-.8-3.32-1.95a2.63,2.63,0,0,0-3.38-.88c-1.48.52-.5,1.78-.39,2.63.28,2.06-.77,3.91-.57,6,.29,3-.3,5.93,2.58,8.32,1.91,1.59,1.85,4.49.84,6.66-.92,2-3.25,1.51-5.11,1.5-3,0-5.81.82-8.86.24-3.78-.72-5.6-3.16-3.55-6.37,1.65-2.58,1.71-5.15,1.72-7.91,0-5.85.07-11.7.13-17.55,0-1,.29-2-1.36-2.05A155.72,155.72,0,0,0,160,270.07c-.94.14-1.35.4-1.33,1.34a124.81,124.81,0,0,0,1.44,17.27c.59,3.68,3.48,5,6.58,5.81s6.57,1.5,8.45,4.11c5.19,7.21,3.11,10.65-4.77,12.59a88.63,88.63,0,0,1-26.55,2.45,34.62,34.62,0,0,1-8.72-1.82c-2.15-.69-5.05-1.66-5.31-4.17a7.83,7.83,0,0,1,3.81-7.3c2.61-1.66,5.47-3,8.22-4.4.66,4-2.83,4.57-5.11,6.11-.62.42-1.48.68-1.38,1.61s1,1.09,1.68,1.33c2.67.9,5.63.46,8.21,1.3,9.14,3,17.47-.32,25.93-2.82.82-.24,1.81-.57,1.89-1.65.08-1.24-.87-1.77-1.84-2.15-1.88-.73-3.81-1.34-5.68-2.11-3.33-1.38-7.43-3.12-7.59-6.67-.18-4-2.22-7.35-2.32-11.19,0-1.9.1-3.82,0-5.72-.11-1.36.86-3.53-1.39-3.74s-4.86-1-6.9,1c-.68.67-1.17,1.65-.66,2.42,2.53,3.87.74,8.16,1.37,12.2.42,2.65.65,5.22-.35,7.78-.86,2.19-2,2.85-3.72.8a14.9,14.9,0,0,0,1.11-7.27,133.37,133.37,0,0,1-.1-13.71c.06-2.36-.56-3.42-3.2-3.4-9.15.07-18.29-.26-27.46.57-2.35.22-6.75.93-7.23-3.94-.13-1.29-1.38-1-2.39-1.21-3.9-.7-7.74,1.06-11.67.14a10.08,10.08,0,0,1-4.14-1.54A7.35,7.35,0,0,0,82,262.37a4.48,4.48,0,0,1-5.75-4.44c-.12-3.16-2.76-7,1.57-9.54.16-.1-.38-1.46-.66-2.21-2.9-7.67-6-15.26-8.67-23-3.25-9.39-6.17-18.9-9.22-28.36-.78-2.41-1.91-3.29-4.89-3.18-8.47.34-16.7-1.76-24.46-5-2.32-1-2.42-4.66-2.75-7.32-.36-2.91.87-5.79-.22-8.87-.49-1.37.48-3.52,2.38-4.74a22.48,22.48,0,0,1,12.87-4.07,19.12,19.12,0,0,0,5.36-.48c-4.18-3.25-6.34-7.54-8.22-12-.56-1.34-1.39-1.12-2.72-.55-9.21,4-18.07.25-22.67-8.76-4.17-8.16-7.63-16.62-11.12-25.05-3.26-7.89-4.51-16.26,1-23.61,4-5.44,10.77-7.56,16.78-10.37C23.62,79.35,27,79,30.34,78.58c2.16-.26,2.31-.94,2.23-2.69-.63-13.21,2-25.61,9-37,5.48-8.81,13.58-14.69,22-20.25,7-4.62,14.15-9,22.27-11.23,8.66-2.35,16.79-7,25.8-7.35,7.64-.27,15.41.34,22.88,3.21,4.27,1.64,9.09,1.92,13.7,2.57a6.88,6.88,0,0,1,4.06,1.68c5,4.93,11.54,7.73,16.95,12.12a40.22,40.22,0,0,1,11,14.87c.68,1.47,1.36,3.05-.35,4.31-.42.3-.5.69-.33.89,2.59,3,3.16,7.57,7.47,10-.35-10.84.61-21.18-.65-31.49-.13-1.1.88-2,.22-3.29-1.27-2.39.3-2.89,2.25-2.87,7,.1,13.94-.37,20.91-.64,17.8-.69,35.62-.95,53.42-1.75C277.7,9,292.26,8.8,306.79,8c16.78-.87,33.58-.94,50.35-1.92,1.84-.11,3.66,1.18,5.47,0,.12,2.08-1.26,2.11-2.78,2.1-3.54,0-7.07.4-10.59.63-16,1-32.06,1.89-48.1,2.34q-19.69.56-39.38,1.51c-22.47,1.09-45,1.64-67.44,2.37-4.74.15-5.33.78-4.54,5.35a20.47,20.47,0,0,1,.15,3.42c0,10.55-.2,21.11.13,31.66.1,3.1-.08,4.38-3.38,3.35v0l-.44-1c-.61-1.74-1.21-3.48-1.83-5.26-2,1.24-4.45,1-2.9,5,1.16,3,2.07,7.06,1.07,10.92-2.17,8.29-8.79,13.71-18.5,14.36-6.47.44-16.23-4.15-16.83-12-.17-2.31-1.32-1.82-2.45-1a14.61,14.61,0,0,0-5.37,7.91c-1.89,6.19-4.66,11.71-11,14.93-4.13,2.1-8.2,2.46-12.66,2.62-8.61.3-15.35-3.77-18.39-12-.44-1.16-.64-2.09-2.6-1.3C84.26,86.41,74.62,92.34,64.86,98c-4.77,2.78-5.16,4-3.87,9.26.21.85.37,1.71.61,2.55a25.47,25.47,0,0,0,4.46,9.07c1.77,2.19,4-.29,6,0a9.3,9.3,0,0,1,1.51.17c4.41,1.4,9.1,2.22,12.88,5.06s7.58,2.56,11.84,1.93c5.26-.77,11.3-1.38,15.2,2.31,3.22,3,6.27,3.5,10,3.61,0,.59.08,1.18.11,1.76.2.53-1.46,1-.52.9,3-.21,4.44,2.06,6.58,3.17a7.32,7.32,0,0,0,1.1,1.51c6.49,5.55,8.9,12.84,8.72,21.08-.08,4-6.47,9.27-9.78,8-3.62-1.43-6.17-.37-8.7,2a5.73,5.73,0,0,1-1.58,1,3.75,3.75,0,0,1-3.87-.89c-1.34-1.18.18-2.42.68-3.66.79-2,2.52-4.05.07-6s-4.53-2.73-7,.41c-1.77,2.28.85,1.9,1.26,2.59,3.57,6.06,4.1,12.56,3.67,19.36-.21,3.19-1.3,5.13-4.47,6-5.8,1.58-11.82.24-17.62,1.55-2.3-1.41-4.57.57-6.86,0-2.28,0-4.58.07-6.85-.11s-3,.57-2.07,2.73a102.45,102.45,0,0,1,3.74,9.8c2.32,7.06,5,14,7.6,21,2.2,5.82,4.57,11.58,7.1,17.94a16.78,16.78,0,0,1,13-7.19c.84-.05.94-.7,1-1.37a1.9,1.9,0,0,0,1-1.79c2.19,1,3.56,3.09,5.46,4.45,3.41,2.44,6.55,5.65,10.92,4.92.65-2.91-3-4.66-1.27-7.68l2.3-3c4.79-6.12,11.34-10.08,18.31-12.68,7.72-2.88,15.7-4.93,22.9-9.21,2.28-1.36,4.8-2.81,7.71-2.77a1.57,1.57,0,0,1-1.13,1.72c-6.83,2.88-13.26,6.61-20.2,9.31-5.29,2.06-10.94,3.06-15.89,6.15-5.24,3.26-9.66,6.91-10.64,13.37-.24,1.55-1,3.62.64,4.6,4.22,2.48,7.78,6.07,12.9,7.07,4.95,1,9.8,2.53,14.85,2.94,1.27.1,4,3.35,4.1-1.18,0-.06.81-.28,1-.13,2.44,1.82,6,2,7.53,5.17h-.7c-1.47-.55-2.58.83-4,.67-11.85-1.37-23.26-4.68-34.53-8.32-4.53-1.46-8.89-2.63-13.66-2.34-1.14.07-3.24,1.08-3.36-1.08-.1-1.61,1.73-1.83,3.15-1.92.46,0,.91-.1,1.51-.17-5-4.11-11.17-5-16.06-1.73-2,1.31-5.27,2.91-5,5.25.37,3.25.58,7,3.18,9.67.26,1.87,1.39,3,2.84,4.22,2.23,1.86,5.44,2.71,6.77,5.34,1.24,2.44,2.93,2.63,5.21,2.66,9.11.13,18.17-1.12,27.3-.87,9.6.26,19.25.55,28.8-.79,3.21-.46,6.55-.37,10.24-1.06-1.56-1.9-4-1.89-4-4.2,8.62,1.94,14.11,9.11,21.58,13,1,.54,1.8,1.9,3.16,1.44,1.53-.51.48-1.88.67-2.86.83-4.13.78-8.47,4.15-11.89,2.77-2.81,4.31-6.54,5.46-10.34.33-1.07.63-1.89-.73-2.84q-9.88-6.9-19.5-14.15a116.15,116.15,0,0,0-26.12-15.17c-1.07-.44-2.4-1.07-2-2.34s1.71-.54,2.66-.24A64.18,64.18,0,0,1,185,224.51c8.51,6.34,17.12,12.53,25.72,18.74,2.3,1.65,3.52,1.71,4.75-1.15s2.57-5.78,5.6-7.43c6.49-3.53,15.3-2,21.57,3.71.6.55,1,2.79,2.32.86.89-1.3,2.79-3.38.47-4.53-2.77-1.37-4.85-3.76-7.68-4.82-9.11-3.42-16.33-9.94-24.23-15.19C208.07,211.09,203,207,197,204.19a9.34,9.34,0,0,0-5.76-.91c-5.06.72-9.87,3-15.11,2.48,9.32-3.65,18.78-6.71,29-6.73a19.08,19.08,0,0,1-1.26-4.06c-.16-1.61-1.15-2.79-1.55-4.21-4-13.95-12.86-25.15-20.86-36.85a55.78,55.78,0,0,0-10.69-11.67,61.89,61.89,0,0,1-11.51-11.81l-1.35-3.28c.57-.71,1.37-.58,2.14-.61a31,31,0,0,0,15.75,15.37c12.13,5.44,24.52,9.91,37.95,10.59,3,.15,7,1,8.65-.56,2.22-2.12,4.22-2.31,6.64-2.27,3.25.06,6.5.52,9.74.5,10-.08,19.91-.29,29.86-.49,1.48,0,2.08-.25,1.94-2.39-.51-8.14-.39-16.31-.61-24.46-.07-2.56,0-4.56-4.15-4.4-17.63.69-35.27.78-52.91,1.09-.13-2,1.21-2,2.73-2.16,12.73-1.09,25.52-1.09,38.24-1.28,27.63-.43,55.23-2.25,82.87-1.75a28.89,28.89,0,0,0,4.56-.16c8.79-1.31,17.64-.31,26.45-.7,2.31-.1,3.42-.63,3.29-2.91-.2-3.4-.59-6.79-.73-10.2-.21-5.38,0-10.78-.71-16.16-.36-2.61,0-5.33-.09-8-.08-1.92,1-2.43,2.57-2.44,1.24,6.52.2,13.11.73,19.67.46,5.69-.51,11.42.34,17.16.66,4.43-.23,4.92-4.78,5.35-11.41,1-22.86.23-34.26.8-16.44.83-32.9.77-49.35,1.42-.77-.28-1.15-1.88-2.11-1.13-2.19,1.72-4.65,1.13-7,1-3-.1-4.13,1-4,4,.36,6.88.59,13.78.77,20.67.05,2.26-1.18,5.19-.15,6.64,1.44,2.07,4.33-.3,6.71,0,3.06.34,4.53-1.86,3.83-5.06-.25-1.11-.77-2.15-1.05-3.25C281.33,139.36,282.17,138.69,283.79,138.76ZM42.32,149.62l0,0a1.67,1.67,0,0,0,1,1.36v0a11.27,11.27,0,0,0,9.16,8.41c7.56,1.55,15.22.45,22.83.77,8.59.37,17.2-.37,25.77.69,2.43.3,4.81.12,6.55-2,1.55-.47,2.38-1.8,1.79-3.06-.76-1.62-2.42-.95-3.87-.81l1.85,3.62c-5,.59-6-1.34-6-6.17a45.14,45.14,0,0,1,.79-6c.32-5.92,3.57-10.32,7.71-14.07,2.44-2.21,1-2.76-1-3.25a14.33,14.33,0,0,0-3.41-.24c-7.48,0-15,.26-22.45-.08-8.65-.4-16.83.66-24.62,4.75-2,1-4.47,2.42-7.09.95,5.5-1.37,9.88-5.09,15.26-6.63s10.67-2.53,16.27-2c-5-3-9.71-4.85-15.71-2s-12.9,2.95-19.06,5.5c-8.66,3.58-11.14,11.34-6.17,19.32Zm1.36-47.23c.24.33.33,1.11.87.73s0-.83-.37-1.15a39.84,39.84,0,0,1-1.68-8.74c-.7-5.55.19-11.53-3.81-16.32-2-12.14-2-12.14,0-15,1.17.62.19,2.14,1.21,2.87C41.35,59,41.73,52.86,45.68,48a1.47,1.47,0,0,1,1.45.77C42.89,56.15,41.7,64.25,42,72.61,42.28,78.39,44.1,84,44.2,89.83a26.5,26.5,0,0,0,7,18.27,11.09,11.09,0,0,1,1.8,3.32A13.43,13.43,0,0,0,63,119.83l.55.27-.29-.52a51.24,51.24,0,0,1-5.43-13.64c-.72-5.32,1.12-10.33,2.8-15C66.4,74.63,73.73,59.07,86.25,46.67c4-3.94,7.2-8.84,12.68-11.1-.27,2.15-1.64,3.49-3.2,4.87-2.93,2.6-5.67,5.41-8.46,8.15-.62.61-1.46,1.27-1,2.27.58,1.31,1.53.25,2.29.16a50.22,50.22,0,0,0,24.84-10.23c1.87-1.44,3.57-2.63,4,1.13.23,1.82,1.47,1.28,2.59.88,3.33-1.2,6.88-2,10-3.68s4.49-.86,4.93,2.27c.25,1.8,1,2.2,2.51,1.44,3.39-1.67,6.9-3.07,10-5.38s6.37-5,10.55-5.58A67.52,67.52,0,0,1,136.51,46c-2.81,1.18-4.46.77-4.61-2.49-.06-1.22-.45-2.31-1.65-1.58-3.52,2.12-7.81,2.34-11.4,4.57,4.53,3.31,4.39,4.15-1.17,8.17,4,1.65,8.62-.26,12.54,2.12a26.12,26.12,0,0,1,9,9.34c1.84-.57,2.71-3,4.79-2.84s2.17-1,2.54-2.67C149,49.89,164.23,43.3,173.68,49c3.06,1.83,5.63,2.63,8.46-.06-1.18-2.09-2.51-4.24-3.64-6.49-3.83-7.57-9.5-12.62-18.25-13.54a5.84,5.84,0,0,0-3.61-1.65,84.54,84.54,0,0,0-21.56.15c-8.2,1-16.42,2-24.23,5.3-3.72,1.56-7.54,3.73-11.95,2.92,6.75-4.05,14.19-6.32,21.76-8.16,3.56-.87,7.26-1.15,10.88-1.77a72.05,72.05,0,0,1,27,0,46.38,46.38,0,0,1,17.32,7.48c.22.32.52.6.82.22.11-.14-.17-.58-.28-.89-2.65-4.44-5.43-8.58-9.83-11.76-4.72-3.42-10.05-5.91-14.45-9.77-1.14-1-2.1-2.37-3.69-2.57-9.41-1.18-18.27-4.89-27.65-6-3.83-.46-7.83-.87-11.7.27-6.14,1.82-12.25,3.74-18.42,5.44-10.12,2.8-19,8.06-27.69,13.71-7,4.55-13.57,9.46-18.3,16.61a55.36,55.36,0,0,0-9.27,26.06c-.84,9.2-1,18.21,2.69,26.9.2,1.86,0,3.88.7,5.52C39.72,99.15,40.56,101.88,43.68,102.39Zm270,54.74c1.89,1.64,4.15-.8,5-.32,4.1,2.27,6.36,1.48,7.38-3.43a25.28,25.28,0,0,1,.74,3.25,1.27,1.27,0,0,0,2,1c1.71-1.14.86-3,.8-4.52s-1.33-1.46-2.3-1.12c-3,1.06-6,.31-9.05.59-.49-.8-1-.81-1.5,0H311.4c-1.79-.75-3.29,1.91-3.93,1.32-2.85-2.59-6.08-.79-9.05-1.34h-1.53l-9.16,0h-.79l-9.15-.05-1.53,0-3.81,0h-1.54c-1.39,0-2.78-.06-4.17,0-2.73.05-6.42-1.18-5.5,4.6-.31-5.76-4.1-4.57-7.17-4.61-2.28,0-4.56,0-6.83,0H245.7c-1.2.12-2.8-.59-3.06,1.48-1.22.54-2.13-2.79-3.25-.44a2.07,2.07,0,0,0,1.83,3.15c.73,0,1.46.2,2.2.3a44,44,0,0,1,6.09.2c9.11,1.53,18.23,2.79,27.5,2.1l1.55-.74c1.27-.48,2.54,1.37,3.81,0l1.54,0h25.21a4.1,4.1,0,0,0,3.08-1.44Zm-92.54,12.23a8.51,8.51,0,0,1,.09,1.51c-.44,3.73.93,5.1,4.67,3.8a5.49,5.49,0,0,1,3.66-.15c.94.31,2.43.52,3-.77s-.9-1.64-1.38-2.47a14.33,14.33,0,0,0-.86-1.23c-1.43-4.61.44-9,.95-14.29-17.76.54-35.21-1-52.2-9.12,1.28,2,1.81,3.42,2.8,4.3,2,1.78,2.61,5.21,5.77,5.49,6.14.56,12.32.73,18.46,1.26C219.25,158.84,217.88,157.4,221.14,169.36ZM203,181.46c-.3-.17-.6-.36-.91-.51,0,0-.15.18-.23.27l1,.42c.68,5.92,1.59,6.79,7.24,6.76,12.27-.07,24.54-.22,36.81-.64,17.55-.6,35.13,0,52.7-.76,15.18-.63,30.38-.29,45.58-.73,18.55-.55,37.13-.39,55.69-.9,8.46-.23,17,.26,25.4-.72,1.2-.15,2.86.28,2.76-1.68-.14-2.95.57-5.79.81-8.69.12-1.33.17-2.23-1.94-2.05-7.33.61-14.68.14-22.05.72-11.28.88-22.64.89-34,.87-8.12,0-16.25.25-24.35.41-10.87.2-21.74,1.37-32.65,1.16-5.77-.12-11.55.34-17.29.49-9.33.23-18.73.55-28.06.83-12.94.38-25.87,1.19-38.83,1.18-3,0-6.72-1.23-9.31,1.36a8.17,8.17,0,0,1-6.18,2.26C211.12,181.56,207,181.48,203,181.46Zm-91.73-2.6c0-.89,0-1.78,0-2.67a19.89,19.89,0,0,0-4-11.26c-2.07-2.87-4.85-.81-7.29-1.07l-.37-.08c-6.12-1.49-12.4-.72-18.54-.83-9.1-.15-18.21.77-27.3-.55a4.53,4.53,0,0,0-2.88.26,20.84,20.84,0,0,1-10.69,2.06c-3.4-.28-6,1.55-8.73,3.14-1.17.7-2.35,1.92-1.81,3.48.93,2.62.5,5.27.66,7.92.2,3.47,1.33,6.13,5.4,6.51A29.73,29.73,0,0,1,41.59,187c8,2.47,16.1,2.1,24.2,1.15,8.33-1,16.69-.32,25-1.08,5.86-.53,11.83.14,17.69-1,1.91-.36,2.91-1.33,2.74-3.39C111.15,181.41,111.24,180.13,111.24,178.86ZM244,173.42c8.64,1.27,17.22,0,25.8,0,13.82,0,27.63-.93,41.44-1.6,9.57-.46,19.14-.3,28.72-.7,17.57-.74,35.16-1,52.73-1.56,10.06-.34,20.18-1.11,30.27-.3.7.06,1.66.29,1.94-.69.21-.7-.48-1.07-1-1.46-3.92-3.2-8-6.19-11.69-9.64-4.49-4.22-9.62-6-15.55-4.8-4.81,1-9.63.28-14.43.78-2.58.27-5.18.44-8.05.68,1.17,3,3.48,5.29,2.24,8.71-1.47,4.06-4.73,6.24-10.5,6.3-8.33.08-11.57-4.51-8.37-12,.74-1.73.29-2.36-1.48-2.35-4.93,0-9.86,0-14.78.17-2.75.11-6.55-.27-7.92,1.29-1.58,1.8-1,5.49-1.36,8.35-.05.38.06.77,0,1.14a1.13,1.13,0,0,1-1.27,1.07c-3.77.05-7.54.2-11.31.23-7.57.06-15.15-.24-22.7.19-3.92.22-7.8.22-11.71.25-6.75,0-13.63-1.36-20.31,1.42a11,11,0,0,1-7,.81c-2.43-.66-5-2.26-6,1.9-.1.43-1.3.58-2,.91C248,173.41,245.91,172.77,244,173.42Zm-182.79-51c-3.85-3-7.77-5.61-10-10.23-1.7-3.53-4.24-6.59-8.78-7.63a7.67,7.67,0,0,1-5.93-6.78c-.28-5.27-2.25-10-3.29-15.09-.23-1.16-.52-2.22-2.25-1.62-2.87,1-5.9,1.55-8.7,2.68C11.67,88.07,8.61,93,11.24,103.59c2.46,9.92,6.59,19.36,10.92,28.63,2.44,5.24,6.24,8.86,12.72,8.26.84-.08,1.31.16,1.49-.92,1.3-7.84,6.63-11.51,13.68-14C53.69,124.28,57.77,124.67,61.23,122.46Zm7,68.15c-1.26.09-2.54.09-3.79.27-2.78.41-4.32,1.17-2.56,4.58a66.73,66.73,0,0,1,5,12.7c4.21,15.25,10.4,29.77,16,44.51,2.21,5.86,7.56,10,12.68,9.79,3.42-.11,4-1,2.13-3.82-1.71-2.5-2.87-5-2.55-8.14a3.28,3.28,0,0,0-.51-2.56c-3.82-4.61-4.81-10.52-7.11-15.82-5.33-12.3-9.16-25.16-13.49-37.83C72.85,190.73,71.11,190.43,68.26,190.61ZM110.47,56.43a19.66,19.66,0,0,1-2.07-.17c-1.72-.32-3.7-.49-4-2.72s1.08-3.4,3-4.17c1.62-.63,3.12-1.57,4.74-2.17.94-.34,2.73.28,2-1.65-.67-1.73-1.61.15-2.43.23s-1.49.88-2.28,1.25c-6.55,3.09-13.07,6-20.39,7.15-3.5.53-7.6.12-10.06,4.35-4,7-8.15,13.87-11.35,21.25-2,4.69-4.64,9.26-5.25,14.91.83-.4,1.29-.57,1.7-.82,9-5.47,18-10.87,26.87-16.48,2-1.27,5.14-1.41,5.86-4.11C98.85,65.76,104.05,60.88,110.47,56.43Zm282.7,193.81c0-11.78-.54-23.6.2-35.33.47-7.49.15-15,.6-22.42.16-2.79-1-3.37-3.55-3.41-2.74-.05-3.53.94-3.42,3.55.12,3.12.2,6.25.13,9.4-.47,20,.21,40-.65,60-.36,8.36-.45,16.81-.2,25.22.06,2.28.14,4.5-1.46,6.5-1.1,1.38-1.21,2.6,1.22,3.18a14.18,14.18,0,0,0,6.7,0c4.23-1,4.42-1.22,1.57-4.7a6.34,6.34,0,0,1-1.57-4.5c.18-3.6.38-7.2.4-10.81C393.2,268,393.16,259.14,393.17,250.24ZM137,162.21c.81-11.75-6.21-22.13-16.48-25.52-2.26-.74-4.79-.92-6.67-2.48-1.57-1.31-2.43-.73-3.8.35-5.15,4.06-5,10.11-6.17,15.67-.32,1.56,1.18,2.29,2.42,2.17,2.44-.23,4,.91,5.56,2.53a10.19,10.19,0,0,0,5,3.19c1.59.33,2,1.47,2.47,2.86,1.08,3.24-1.3,5.75-1.86,9a11.33,11.33,0,0,0,4.19-5.74c.4-1.32.58-3.18,2.47-2.55s-.11,2.15.21,3.23c.06.19.33.32.51.48,3-.34,3.29-2.69,3.51-5,.07-.77-.12-1.75.83-1.79s1.12.87,1,1.71A24.42,24.42,0,0,1,130,163c-.19.85-.62,1.92.21,2.38,1,.54,1.79-.21,2.58-1,2.4-2.48,1.27-5.34.81-8.31C135.91,157.69,136.07,158,137,162.21ZM102.84,77.15c0,7,1.85,10.74,7,11.68,6.16,1.12,12.31,1,18.26-2.3,8.3-4.56,7-16.93,1-22.22-5.66-4.93-11.81-4.39-17.42-1.29C106.42,66,102.14,70.52,102.84,77.15Zm122.27,204.4c1.37-.21,3.36.69,4-1.92,1.29-4.93,4.18-9.2,6.12-13.87,2.58-6.18,5.23-12.35,6.6-18.94,1.08-5.21-2-7.86-7.12-6.84-6.36,1.26-9.07,5.8-10.32,11.36-1.74,7.73-2.46,15.66-5.2,23.23C217.64,279,220.09,281.53,225.11,281.55Zm33.57-15.28c4.14,0,6.58-2.32,8.48-5.89,2.45-4.58,1.44-10,4.31-14.42a85.54,85.54,0,0,0,5.69-10.65c1.15-2.48,1.34-5.29-.55-7.54-1.32-1.57-3.26-2.75-5.42-1.64-5.67,2.9-10.78,7-12.23,13.2-1.56,6.64-2.95,13.2-5.67,19.52C251.17,263.81,253.24,266.27,258.68,266.27ZM164.88,77.06C173,77,178.49,71.67,178.48,64c0-7.47-4.87-11.67-13.17-11.51-7.41.14-12,5.84-12.24,14.47C152.85,73.89,157.64,77.88,164.88,77.06Zm51.37,202.82c-.61-2.71,0-4.77.8-7,1.53-4.52,3.44-8.9,3.61-13.91a41.62,41.62,0,0,1,2.63-11.8,14.33,14.33,0,0,1,10.41-9.83c-7.41-3.46-12.5-1.07-14.6,3.2-3.56,7.24-5.95,15.08-11,21.59-2.63,3.39-3.38,7.34-3,11.64.2,2,.89,3.38,2.68,3.59C210.65,277.71,213.08,279.17,216.25,279.88Zm-6.74-101.4h0a43.32,43.32,0,0,1,4.56,0c3.18.34,4.26-1,4.21-4.14a34.66,34.66,0,0,0-1.59-9.29c-.86-2.93-2.54-4.18-5.79-4.25-6.67-.14-13.33-.81-20-1.27-.74-.05-1.61-.42-2.05.39s.41,1.35.88,1.89a65.48,65.48,0,0,1,8.42,13c1.44,2.8,2.4,4.79,6,3.73C205.84,178.09,207.73,178.48,209.51,178.48Zm63.08,45.22c-5.82-3.37-11.19-2.55-14.84,2.78a48.23,48.23,0,0,1-7.63,9.2c-2.43,2.16-4.81,5.22-4.94,8.31-.25,5.91-2.8,11-4.28,16.38,2.19,1.23,4.37,2.48,6.56,3.7,1.86,1,3,.62,2.79-1.65-.38-3.26,1-5.91,2.44-8.63a25,25,0,0,0,2.34-6.73C257.1,236.54,261.6,227.63,272.59,223.7ZM9.13,90.06C3.32,95.53,3,101.57,3.79,107.86c.65,5.53,3.83,10.14,6,15.08,2.88,6.67,5.12,13.74,9.76,19.58,4,5,12.48,5.85,17.67,1.11-11,1.24-16-5.33-19.44-13.9-2.76-6.92-5.3-13.93-8.08-20.85C7.29,103,7.75,97.06,9.13,90.06Zm229.69,71.31c8.71,3.85,16.93,6.68,26.39,4.48-5.57-4.34-11.26-5.73-17.61-5.87-3.73-.08-7.85,0-11.19-2.51-1.41-1.05-2.11-.23-2.41,1-1.06,4.41-1.76,8.84,0,13.25a1.84,1.84,0,0,0,2.33,1.35c4.45-1,8.41-3.53,13.2-3.55C246.07,166.75,240.72,167.18,238.82,161.37Zm28.15,1.3c2,4.38,6.12,3.06,9.12,3.08,9.11.05,18.24-1.05,27.35-.89,6.84.11,13.61-1.53,20.47-.45,1.31.21,2.74-.37,4.12-.46s1.71-.84,1.68-2-.46-1.7-1.57-1.73a25.85,25.85,0,0,0-3.05,0c-13.59,1.36-27.24.61-40.84,1.33C278.59,161.82,272.82,160.83,267,162.67ZM190.58,272a116.62,116.62,0,0,0-.67,14.91c0,3.35.55,6.75-1.73,9.82-1.2,1.62-.21,2.86,1.75,3.13,2.69.37,5.26-.46,7.89-.74s2.62-2,1.23-3.34c-3.88-3.7-2.91-8.29-2.3-12.55C197.8,275.81,196.71,273.36,190.58,272ZM364.71,167.13c2.58-.67,5.16-1.27,7.7-2,2-.58,1.58-2.31,1.67-3.81a2.85,2.85,0,0,0-2-3.24c-3.56-1.37-10.45.09-13.16,2.82-1.18,1.18-1.5,2.66-.16,3.55A39.3,39.3,0,0,0,364.71,167.13ZM206,192a24.12,24.12,0,0,1,2,12.2c-.17,2.84.85,3.33,2.63,4.62,0-4.48-.44-8.61.12-12.6S209.68,191.55,206,192ZM115.74,49.45c-2.16.61-4.47,1.22-6.75,1.93-.66.21-1.56.57-1.14,1.59.35.83,1.06.91,1.9.65,2.17-.66,4.35-1.27,6.55-1.85.73-.19,1.68-.2,1.62-1.19C117.85,49.33,116.77,49.49,115.74,49.45ZM231.27,152.52a8.89,8.89,0,0,1,2.71,2.56c.8,1.38,1.78.56,2.63.25s.92-1.29.86-2c-.12-1.42-1.35-.75-2.1-.81C234,152.45,232.64,152.52,231.27,152.52Zm-32.52,49c.57,2.34,2.78,1.9,4.25,2.6,1,.47,1.37-.21,1.41-1.09s-.1-1.52-1.17-1.51ZM79.69,254c-.7,2.08-.92,3.53.78,4.43a1.63,1.63,0,0,0,1.29-.24C81.94,256.56,81.07,255.43,79.69,254ZM177.58,34.81l-.41-.55c-.11.17-.33.35-.31.5s.23.41.36.61Z"/><path class="cls-2" d="M186.68,58.84c3.3,1,3.48-.25,3.38-3.35-.33-10.55-.12-21.11-.13-31.66a20.47,20.47,0,0,0-.15-3.42c-.79-4.57-.2-5.2,4.54-5.35,22.48-.73,45-1.28,67.44-2.37q19.69-1,39.38-1.51c16-.45,32.08-1.31,48.1-2.34,3.52-.23,7.05-.64,10.59-.63,1.52,0,2.9,0,2.78-2.1,1.92-.7,3.94.29,6-.59,1.64-.72,2.41.66,2.43,2.31.05,5.49-.09,11,.23,16.45.65,11,.5,22,.51,33,0,5.51.18,11,.28,16.51-1.62,0-2.65.52-2.57,2.44.1,2.66-.27,5.38.09,8,.75,5.38.5,10.78.71,16.16.14,3.41.53,6.8.73,10.2.13,2.28-1,2.81-3.29,2.91-8.81.39-17.66-.61-26.45.7a28.89,28.89,0,0,1-4.56.16c-27.64-.5-55.24,1.32-82.87,1.75-12.72.19-25.51.19-38.24,1.28-1.52.13-2.86.11-2.73,2.16-6.6,0-13.2.14-19.8.15-4.91,0-4.91,0-4.61-5.07,0-.38.05-.76,0-1.13,0-1,1.55-2.22-.16-2.92-1.33-.55-1.85,1-2.71,1.64-3.47,2.61-7,5.17-10.59,7.58-4.7,3.13-10,4.69-15,6.77-.77,0-1.57-.1-2.14.61-11.12,3.8-22.4,6.74-34.27,6.64,0-.58-.07-1.17-.11-1.76,6.82-.72,13.4-2.61,20.1-4,17.05-3.44,32.91-9.15,45.15-22.43,5.54-6,8.15-12.65,6.81-20.76C194,75.71,189.12,67.69,186.68,58.84ZM325.17,18.12c-15.81-.15-31.58,1.21-47.37,1.54-11.62,1-23.28.58-34.91,1.38-12,.82-24.09.65-36.14.91-1,0-2,0-3.05,0a2.18,2.18,0,0,0-2.27,2.47c0,4.4.11,8.8-.06,13.2-.5,13,1,25.85.81,38.79-.12,8.76,0,17.53,0,26.3,0,1.26.2,2.51.29,3.77.21,2.69,1.63,3.78,4.28,3.22l3.84,0a85.27,85.27,0,0,0,13.74-.79,23.23,23.23,0,0,1,4.08-.7c10,0,20,.1,29.93-.82.94-.08,2.71.43,2.69-.51-.11-3.71,2.52-2.38,4.2-2.48,2.9-.17,5.82-.06,8.74-.07,1.64-.15,3.39.42,5.53-.75-2.15-1.16-3.9-.6-5.54-.73-10.39,1.24-20.8.52-31.23.46a7.47,7.47,0,0,1,3.9-1.27c10.91.15,21.81,0,32.69-.75,2.14.39,1.56,2.05,1.39,3.32-.22,1.61-1.68,1.24-2.75,1.25-4.07,0-8.13,0-12.2,0-.74,0-1.9-.43-2,1.16a8.9,8.9,0,0,0,1.43.31c5.55.39,11.14-.67,16.67.66,1.83.44,2-1,2-2.38.13-3.68-.6-7.32-.67-11-.24-12.9-1.15-25.77-1.46-38.65-.25-10.64-1-21.25-.95-31.89,0-1.58.26-2.91,2.24-3a5.88,5.88,0,0,0,.31,1.82c.53,1,.3,2.65,2.13,2.63,1.56,0,2.13-1.14,2.59-2.3a14.16,14.16,0,0,0,.45-2.17c12.23.08,24.42-.84,36.61-1.53a2,2,0,0,0,2.07.67c6.53-1.43,13.14-.44,19.71-.69,1.48-.06,3.1-.47,4.4.64s2.06.59,2.93-.37c.57-.64,1.53-1.21,1.09-2.22-.55-1.3-1.85-1.22-3-1.12a158.92,158.92,0,0,1-17,.77C332,17.34,328.5,17,325.17,18.12ZM296.91,55.57c-2.68,0-5.35,0-8,0-.9,0-2.31.42-1.36,1.39,2.57,2.62,1.46,5.73,1.7,8.66.1,1.12.25,2,1.61,2.14s1.79-.29,1.78-1.64c0-.45.79-.91,1.22-1.37,6.61.09,12.17-3.43,19.26-5-3.36-.89-5.93.26-8.94-1.42,4.95-1.13,9.32-1,13.42-2.42-1.08-1.41-2.66-1.21-4.13-1.14C307.93,55,302.42,55.3,296.91,55.57Zm52.31,29.74c0-.43-.09-.85-.13-1.28a20.33,20.33,0,0,0-2.19-.23,213,213,0,0,0-23.7.74c-5.52.59-10.9-.69-16.35-1.09-3.6-.26-7.71,2.65-10.64-1.75a.73.73,0,0,0-.7,0c-1.52,2.45-5.16-.87-6.43,2.37-.18.45-1,.21-1.22-.31-.61-1.59-1.78-2.11-2.79-.79a2.78,2.78,0,0,0,.42,3.81c2,1.81,2.12,3.61.05,5.42-1.19,1-1,2.26-.51,3.46.4,1,1.28,1,2.26.92,12.68-1.26,25.42-.32,38.13-1.22,10.49-.75,21-.62,31.56-.88,1.12,0,2.54.17,2.45-1.56s-1.37-1.27-2.52-1a15.93,15.93,0,0,1-3,.28c-8.36.3-16.76-.63-25.1.73a21.92,21.92,0,0,1-4.58,0c-1.14-.06-2-.68-1.9-1.91s1.23-1.08,2.1-1.08c3.31,0,6.62,0,9.93,0,2.13-.06,4.36.39,6.38-.8-12.17-1.52-24.37.12-36.54-.54C319.07,85.56,334.38,88.32,349.22,85.31ZM311,49.1c-1.16-1.6-2.48-1.17-3.68-1.16-5.7,0-11.35,1.15-17.07.77-1-.07-2.41-.54-3,.89-.33.77.17,1.48.62,2.09.84,1.15,2.05.86,3.14.6,1.35-.31,2.74-1.34,4-1.14C300.54,52.05,305.32,47.75,311,49.1ZM287.61,75.8c7.57-1.27,14.34-1.21,21.12-1.19.79,0,1.7-.12,1.7-1.07,0-1.24-1.09-1.18-2-1.19-5.64,0-11.28,0-16.93,0C289.8,72.33,288.81,73.22,287.61,75.8Zm23.71-48.91c-7.26-.18-14.56-.81-21.8.4-1,.17-2.78-.6-2.83.91-.05,1.71,1.79,1.36,3,1.37C297,29.67,304,27.49,311.32,26.89Zm2.3,16.32c-1.53-.91-2.81-.55-4-.65-6.17-.51-12.23,1.49-18.41.8a5.14,5.14,0,0,0-2.18.53A1.63,1.63,0,0,0,287.85,46c.33,1.19,1.24.4,1.89.42a8.67,8.67,0,0,0,2.28-.11c5.77-1.36,11.55-2.56,17.55-2.23C310.76,44.12,312.09,44.5,313.62,43.21Zm-3-11.17a153,153,0,0,0-22.9.62c-.63.06-1.38.15-1.19,1s.9,1.12,1.74,1.13c7.27.15,14.38-1.56,21.61-1.76C310,33.06,310.05,32.89,310.66,32ZM353,81l-.06-1c-3.88,0-7.77,0-11.65,0-.7,0-1.73-.26-1.89.74-.19,1.19.84,1.46,1.74,1.49C345.12,82.34,349.14,82.51,353,81ZM293.28,39.43c-1.63-.53-3.36-.88-3.77,1.13-.31,1.47,1.28,1.25,2.2,1.21,1.54-.08,3.87.69,4.14-1.51C296.16,37.64,294,40,293.28,39.43Zm31.18,22.63c-2.37,0-4.92-1.23-7.19.66C319.68,63,322.11,63.73,324.46,62.06ZM320,65.94c-2.43-.55-4.16-.84-5.8,0-.37.19-.2,1,.3,1.27C316.37,68.23,318,67.85,320,65.94Zm-5.18,5.65c-1.22,0-2.32.3-2.48,1.73-.1,1,.65,1.3,1.47,1.23,1.15-.09,2.39-.34,2.7-1.6S315.7,71.67,314.82,71.59Zm-7.37-4.31c2.14.55,3.67.84,5.32-.25C311,65.12,309.48,65.19,307.45,67.28Zm5.78-4.85a5.56,5.56,0,0,0-5.82.1C309.79,63.42,311.51,63.34,313.23,62.43Zm-13.78,4.36c-2.29-.6-3.8-1-5.9.63C295.78,67.7,297.24,68.17,299.45,66.79Zm52.92,18.36a.93.93,0,0,0,.92-1,.9.9,0,0,0-.91-1c-.74,0-1.17.36-1.08,1.14C351.38,85,351.84,85.12,352.37,85.15Zm4.76-1.27c-.39-.31-.62-.64-.88-.66s-.84.15-.9.36c-.19.58.25.89.78.86C356.41,84.42,356.68,84.14,357.13,83.88Z"/><path class="cls-2" d="M143.87,294.42c1.74,2.05,2.86,1.39,3.72-.8,1-2.56.77-5.13.35-7.78-.63-4,1.16-8.33-1.37-12.2-.51-.77,0-1.75.66-2.42,2-2,4.61-1.19,6.9-1s1.28,2.38,1.39,3.74c.14,1.9,0,3.82,0,5.72.1,3.84,2.14,7.2,2.32,11.19.16,3.55,4.26,5.29,7.59,6.67,1.87.77,3.8,1.38,5.68,2.11,1,.38,1.92.91,1.84,2.15-.08,1.08-1.07,1.41-1.89,1.65-8.46,2.5-16.79,5.79-25.93,2.82-2.58-.84-5.54-.4-8.21-1.3-.68-.24-1.58-.42-1.68-1.33s.76-1.19,1.38-1.61c2.28-1.54,5.77-2.1,5.11-6.11A2.45,2.45,0,0,1,143.87,294.42Z"/><path class="cls-2" d="M283.79,138.76c-1.62-.07-2.46.6-2,2.29.28,1.1.8,2.14,1.05,3.25.7,3.2-.77,5.4-3.83,5.06-2.38-.26-5.27,2.11-6.71,0-1-1.45.2-4.38.15-6.64-.18-6.89-.41-13.79-.77-20.67-.16-3,1-4.1,4-4,2.33.08,4.79.67,7-1,1-.75,1.34.85,2.11,1.13-.09,5.65-.26,11.29-.2,16.94A12.14,12.14,0,0,1,283.79,138.76Z"/><path class="cls-2" d="M363.37,285.91c-4.13-2.24-2.35-5.89-2.33-9.22q.1-25,0-50c0-8.25.5-16.49.1-24.75-.16-3.34.48-6.72-.06-10.11-.25-1.58.25-2.68,2.23-2.68s2.41.94,2.33,2.62c-.27,5.88-.68,11.76-.73,17.64-.11,12.79.34,25.6-.16,38.37-.4,10.4-.65,20.74.61,31.08.06.47-.35,1.32-.19,1.42,3,1.92,1,3.47-.3,5.08Z"/><path class="cls-3" d="M92.15,190.72c5.8-1.31,11.82,0,17.62-1.55,3.17-.86,4.26-2.8,4.47-6,.43-6.8-.1-13.3-3.67-19.36-.41-.69-3-.31-1.26-2.59,2.44-3.14,4.57-2.37,7-.41s.72,4.09-.07,6c-.5,1.24-2,2.48-.68,3.66a3.75,3.75,0,0,0,3.87.89,5.73,5.73,0,0,0,1.58-1c2.53-2.32,5.08-3.38,8.7-2,3.31,1.31,9.7-4,9.78-8,.18-8.24-2.23-15.53-8.72-21.08a7.32,7.32,0,0,1-1.1-1.51,11.5,11.5,0,0,1,1.34-.61c9.24-3,18.91-4.13,28.22-6.82a61.89,61.89,0,0,0,11.51,11.81,55.78,55.78,0,0,1,10.69,11.67c8,11.7,16.84,22.9,20.86,36.85.4,1.42,1.39,2.6,1.55,4.21a19.08,19.08,0,0,0,1.26,4.06c-10.19,0-19.65,3.08-29,6.73v0c-2.91,0-5.43,1.41-7.71,2.77-7.2,4.28-15.18,6.33-22.9,9.21-7,2.6-13.52,6.56-18.31,12.68l-2.3,3a6.28,6.28,0,0,1-5.28-1.53c-5.11-4.38-10.19-8.92-13.67-14.67C100.78,208.71,97.76,199,92.15,190.72Z"/><path class="cls-4" d="M186.68,58.84c2.44,8.85,7.33,16.87,8.85,26,1.34,8.11-1.27,14.74-6.81,20.76-12.24,13.28-28.1,19-45.15,22.43-6.7,1.35-13.28,3.24-20.1,4-3.72-.11-6.77-.57-10-3.61-3.9-3.69-9.94-3.08-15.2-2.31-4.26.63-8.14.86-11.84-1.93s-8.47-3.66-12.88-5.06a9.3,9.3,0,0,0-1.51-.17c-2-.32-4.22,2.16-6,0a25.47,25.47,0,0,1-4.46-9.07c-.24-.84-.4-1.7-.61-2.55-1.29-5.28-.9-6.48,3.87-9.26,9.76-5.7,19.4-11.63,30-15.88,2-.79,2.16.14,2.6,1.3,3,8.18,9.78,12.25,18.39,12,4.46-.16,8.53-.52,12.66-2.62,6.32-3.22,9.09-8.74,11-14.93A14.61,14.61,0,0,1,144.81,70c1.13-.83,2.28-1.32,2.45,1,.6,7.83,10.36,12.42,16.83,12,9.71-.65,16.33-6.07,18.5-14.36,1-3.86.09-7.93-1.07-10.92-1.55-4,.85-3.81,2.9-5,.62,1.78,1.22,3.52,1.83,5.26a.7.7,0,0,0,.44,1Zm-42,45.72c5.4-1.51,11.59-1.59,15.47-6.78.86-1.16,3.36-2.67,1.85-4s-2.86,1.11-4,2.35c-4.15,4.65-13.09,6.16-18.07,3.07-.77-.48-1.73-.83-2.44,0s-.16,1.56.36,2.35C139.52,104,142.16,103.87,144.73,104.56Z"/><path class="cls-5" d="M98.93,35.57c-5.48,2.26-8.7,7.16-12.68,11.1-12.52,12.4-19.85,28-25.66,44.22-1.68,4.72-3.52,9.73-2.8,15-2.21.34-3.59-.6-4.43-2.64-2-5-4.75-9.57-6.15-15-2.86-11-3.41-21.83-.34-32.85.6-2.17,1.94-4.37,1-6.82-.56-2,1.62-3.12,2.16-5.47-2.49,1.26-3.94,2.54-4.39,4.76-4,4.9-4.33,11-5.75,16.84-1-.73,0-2.25-1.21-2.86-2,2.83-2,2.83,0,15-2.07,3.2.32,6.2.41,9.29,0,1.79,1.66,3.93-1.06,5.15-3.67-8.69-3.53-17.7-2.69-26.9a55.36,55.36,0,0,1,9.27-26.06c4.73-7.15,11.32-12.06,18.3-16.61C71.6,16.13,80.49,10.87,90.61,8.07c6.17-1.7,12.28-3.62,18.42-5.44,3.87-1.14,7.87-.73,11.7-.27,9.38,1.12,18.24,4.83,27.65,6,1.59.2,2.55,1.57,3.69,2.57,4.4,3.86,9.73,6.35,14.45,9.77,4.4,3.18,7.18,7.32,9.83,11.76l-.54.68a46.23,46.23,0,0,0-17.32-7.49,72.05,72.05,0,0,0-27,0c-3.62.62-7.32.9-10.88,1.77-7.57,1.84-15,4.11-21.76,8.16Z"/><path class="cls-6" d="M176.1,205.76c5.24.48,10.05-1.76,15.11-2.48a9.34,9.34,0,0,1,5.76.91c6,2.81,11.1,6.9,16.55,10.51,7.9,5.25,15.12,11.77,24.23,15.19,2.83,1.06,4.91,3.45,7.68,4.82,2.32,1.15.42,3.23-.47,4.53-1.3,1.93-1.72-.31-2.32-.86-6.27-5.73-15.08-7.24-21.57-3.71-3,1.65-4.38,4.56-5.6,7.43s-2.45,2.8-4.75,1.15c-8.6-6.21-17.21-12.4-25.72-18.74a64.18,64.18,0,0,0-18.67-9.74c-1-.3-2.24-.94-2.66.24s.88,1.9,2,2.34a116.15,116.15,0,0,1,26.12,15.17q9.6,7.28,19.5,14.15c1.36,1,1.06,1.77.73,2.84-1.15,3.8-2.69,7.53-5.46,10.34-3.37,3.42-3.32,7.76-4.15,11.89-.19,1,.86,2.35-.67,2.86-1.36.46-2.12-.9-3.16-1.44-7.47-3.89-13-11.06-21.58-13h0l-.77-.73-6.9-4.61c-1.49-3.19-5.09-3.35-7.53-5.17-.21-.15-1,.07-1,.13-.12,4.53-2.83,1.28-4.1,1.18-5-.41-9.9-2-14.85-2.94-5.12-1-8.68-4.59-12.9-7.07-1.66-1-.88-3-.64-4.6,1-6.46,5.4-10.11,10.64-13.37,5-3.09,10.6-4.09,15.89-6.15,6.94-2.7,13.37-6.43,20.2-9.31a1.57,1.57,0,0,0,1.13-1.72Z"/><path class="cls-7" d="M203,181.46c4.07,0,8.15.1,12.22,0a8.17,8.17,0,0,0,6.18-2.26c2.59-2.59,6.29-1.36,9.31-1.36,13,0,25.89-.8,38.83-1.18,9.33-.28,18.73-.6,28.06-.83,5.74-.15,11.52-.61,17.29-.49,10.91.21,21.78-1,32.65-1.16,8.1-.16,16.23-.42,24.35-.41,11.32,0,22.68,0,34-.87,7.37-.58,14.72-.11,22.05-.72,2.11-.18,2.06.72,1.94,2.05-.24,2.9-.95,5.74-.81,8.69.1,2-1.56,1.53-2.76,1.68-8.45,1-16.94.49-25.4.72-18.56.51-37.14.35-55.69.9-15.2.44-30.4.1-45.58.73-17.57.73-35.15.16-52.7.76-12.27.42-24.54.57-36.81.64-5.65,0-6.56-.84-7.24-6.76Z"/><path class="cls-8" d="M111.24,178.86c0,1.27-.09,2.55,0,3.81.17,2.06-.83,3-2.74,3.39-5.86,1.11-11.83.44-17.69,1-8.34.76-16.7.11-25,1.08-8.1.95-16.22,1.32-24.2-1.15a29.73,29.73,0,0,0-5.92-1.19c-4.07-.38-5.2-3-5.4-6.51-.16-2.65.27-5.3-.66-7.92-.54-1.56.64-2.78,1.81-3.48,2.69-1.59,5.33-3.42,8.73-3.14a20.84,20.84,0,0,0,10.69-2.06,4.53,4.53,0,0,1,2.88-.26c9.09,1.32,18.2.4,27.3.55,6.14.11,12.42-.66,18.54.83l.37.08c2.44.26,5.22-1.8,7.29,1.07a19.89,19.89,0,0,1,4,11.26C111.26,177.08,111.24,178,111.24,178.86Z"/><path class="cls-3" d="M41.9,148.69c-5-8-2.49-15.74,6.17-19.32,6.16-2.55,13.11-2.69,19.06-5.5s10.73-1,15.71,2c-5.6-.56-10.93.45-16.27,2s-9.76,5.26-15.26,6.63c2.62,1.47,5.11.09,7.09-.95,7.79-4.09,16-5.15,24.62-4.75,7.47.34,15,.06,22.45.08a14.33,14.33,0,0,1,3.41.24c2,.49,3.41,1,1,3.25-4.14,3.75-7.39,8.15-7.71,14.07-3.48.72-3.18,3.88-3.83,6.25-.71,2.61-1.94,3.74-4.76,3.73-3.77,0-7.54.4-11.3.73-13,1.13-26,2.23-37.48-6-.35-.26-1-.12-1.49-.17v0c0-.67-.21-1.24-1-1.36l0,0Z"/><path class="cls-9" d="M244,173.42c1.89-.65,4,0,5.84-.93.66-.33,1.86-.48,2-.91.94-4.16,3.54-2.56,6-1.9a11,11,0,0,0,7-.81c6.68-2.78,13.56-1.38,20.31-1.42,3.91,0,7.79,0,11.71-.25,7.55-.43,15.13-.13,22.7-.19,3.77,0,7.54-.18,11.31-.23a1.13,1.13,0,0,0,1.27-1.07c.05-.37-.06-.76,0-1.14.35-2.86-.22-6.55,1.36-8.35,1.37-1.56,5.17-1.18,7.92-1.29,4.92-.2,9.85-.13,14.78-.17,1.77,0,2.22.62,1.48,2.35-3.2,7.48,0,12.07,8.37,12,5.77-.06,9-2.24,10.5-6.3,1.24-3.42-1.07-5.72-2.24-8.71,2.87-.24,5.47-.41,8.05-.68,4.8-.5,9.62.18,14.43-.78,5.93-1.18,11.06.58,15.55,4.8,3.67,3.45,7.77,6.44,11.69,9.64.48.39,1.17.76,1,1.46-.28,1-1.24.75-1.94.69-10.09-.81-20.21,0-30.27.3-17.57.6-35.16.82-52.73,1.56-9.58.4-19.15.24-28.72.7-13.81.67-27.62,1.57-41.44,1.6C261.24,173.4,252.66,174.69,244,173.42Z"/><path class="cls-10" d="M61.23,122.46c-3.46,2.21-7.54,1.82-11.18,3.1-7,2.49-12.38,6.16-13.68,14-.18,1.08-.65.84-1.49.92-6.48.6-10.28-3-12.72-8.26-4.33-9.27-8.46-18.71-10.92-28.63C8.61,93,11.67,88.07,22.3,83.79c2.8-1.13,5.83-1.69,8.7-2.68,1.73-.6,2,.46,2.25,1.62,1,5,3,9.82,3.29,15.09a7.67,7.67,0,0,0,5.93,6.78c4.54,1,7.08,4.1,8.78,7.63C53.46,116.85,57.38,119.42,61.23,122.46Zm-23-4.28a6.72,6.72,0,0,0-1,.41c-1.67,1-6.08,10.27-5.71,12.06a1.28,1.28,0,0,0,1.25,1.18,1.14,1.14,0,0,0,1.32-1,24.92,24.92,0,0,1,5.2-10.32C40.17,119.42,40,118.37,38.2,118.18ZM20.41,94.58c3,.81,6.22.16,9,2a1.4,1.4,0,0,0,2.15-.8c.34-1.34-.85-1.2-1.63-1.48A14.13,14.13,0,0,0,20.41,94.58Z"/><path class="cls-10" d="M99.78,254.86c-2.6-2.7-2.81-6.42-3.18-9.67-.27-2.34,3-3.94,5-5.25,4.89-3.24,11.11-2.38,16.06,1.73-.6.07-1,.14-1.51.17-1.42.09-3.25.31-3.15,1.92.12,2.16,2.22,1.15,3.36,1.08,4.77-.29,9.13.88,13.66,2.34,11.27,3.64,22.68,6.95,34.53,8.32,1.45.16,2.56-1.22,4-.67,0,1.89,1.83,2.26,2.87,3.28.58.57,1.88.62,1.62,1.82-.31,1.43-1.62,1-2.52,1-8.33.57-16.66,1.07-25,1.62a88.76,88.76,0,0,1-39-6.15C104.36,255.58,102.38,253.85,99.78,254.86Z"/><path class="cls-2" d="M68.26,190.61c2.85-.18,4.59.12,5.81,3.68,4.33,12.67,8.16,25.53,13.49,37.83,2.3,5.3,3.29,11.21,7.11,15.82a3.28,3.28,0,0,1,.51,2.56c-.32,3.09.84,5.64,2.55,8.14,1.9,2.77,1.29,3.71-2.13,3.82-5.12.16-10.47-3.93-12.68-9.79-5.59-14.74-11.78-29.26-16-44.51a66.73,66.73,0,0,0-5-12.7c-1.76-3.41-.22-4.17,2.56-4.58C65.72,190.7,67,190.7,68.26,190.61Z"/><path class="cls-4" d="M110.47,56.43c-6.42,4.45-11.62,9.33-13.65,16.85C96.1,76,93,76.12,91,77.39c-8.88,5.61-17.9,11-26.87,16.48-.41.25-.87.42-1.7.82C63,89,65.61,84.47,67.64,79.78,70.84,72.4,75,65.49,79,58.53c2.46-4.23,6.56-3.82,10.06-4.35,7.32-1.11,13.84-4.06,20.39-7.15.79-.37,1.48-1.16,2.28-1.25s1.76-2,2.43-.23c.75,1.93-1,1.31-2,1.65-1.62.6-3.12,1.54-4.74,2.17-1.94.77-3.31,2-3,4.17s2.27,2.4,4,2.72A19.66,19.66,0,0,0,110.47,56.43Z"/><path class="cls-4" d="M160.25,28.87c8.75.92,14.42,6,18.25,13.54,1.13,2.25,2.46,4.4,3.64,6.49-2.83,2.69-5.4,1.89-8.46.06-9.45-5.66-24.67.93-27.11,11.61-.37,1.63-.32,2.82-2.54,2.67s-2.95,2.27-4.8,2.84a26,26,0,0,0-9-9.34c-3.92-2.38-8.5-.47-12.54-2.12,5.56-4,5.7-4.86,1.17-8.17,3.59-2.23,7.88-2.45,11.4-4.57,1.2-.73,1.59.36,1.65,1.58.15,3.26,1.8,3.67,4.61,2.49a67.52,67.52,0,0,0,21.43-14.08C158.09,30.4,160.52,30.67,160.25,28.87Zm.36,7.49c-4,.6-7.73,2-10.12,5.51-2,3-.8,5,2.79,5.29,3.11.24,5.81-1.34,8.75-1.91,2.76-.54,4-2.45,3.45-5.29S163.35,36.16,160.61,36.36Z"/><path class="cls-2" d="M160.25,28.87c.27,1.8-2.16,1.53-2.31,3-4.18.61-7.36,3.19-10.55,5.58s-6.6,3.71-10,5.38c-1.54.76-2.26.36-2.51-1.44-.44-3.13-1.76-4-4.93-2.27s-6.63,2.48-10,3.68c-1.12.4-2.36.94-2.59-.88-.46-3.76-2.16-2.57-4-1.13A50.22,50.22,0,0,1,88.54,51c-.76.09-1.71,1.15-2.29-.16-.44-1,.4-1.66,1-2.27,2.79-2.74,5.53-5.55,8.46-8.15,1.56-1.38,2.93-2.72,3.2-4.87l0,0c4.41.81,8.23-1.36,11.95-2.92,7.81-3.28,16-4.26,24.23-5.3a84.54,84.54,0,0,1,21.56-.15A5.84,5.84,0,0,1,160.25,28.87Z"/><path class="cls-2" d="M393.17,250.24c0,8.9,0,17.8,0,26.7,0,3.61-.22,7.21-.4,10.81a6.34,6.34,0,0,0,1.57,4.5c2.85,3.48,2.66,3.74-1.57,4.7a14.18,14.18,0,0,1-6.7,0c-2.43-.58-2.32-1.8-1.22-3.18,1.6-2,1.52-4.22,1.46-6.5-.25-8.41-.16-16.86.2-25.22.86-20,.18-40,.65-60,.07-3.15,0-6.28-.13-9.4-.11-2.61.68-3.6,3.42-3.55,2.54,0,3.71.62,3.55,3.41-.45,7.46-.13,14.93-.6,22.42C392.63,226.64,393.17,238.46,393.17,250.24Z"/><path class="cls-4" d="M137,162.21c-1-4.26-1.11-4.52-3.47-6.2.46,3,1.59,5.83-.81,8.31-.79.81-1.6,1.56-2.58,1-.83-.46-.4-1.53-.21-2.38a24.42,24.42,0,0,0,.31-2.59c.09-.84-.14-1.75-1-1.71s-.76,1-.83,1.79c-.22,2.28-.47,4.63-3.51,5-.18-.16-.45-.29-.51-.48-.32-1.08,1.74-2.58-.21-3.23s-2.07,1.23-2.47,2.55a11.33,11.33,0,0,1-4.19,5.74c.56-3.27,2.94-5.78,1.86-9-.46-1.39-.88-2.53-2.47-2.86a10.19,10.19,0,0,1-5-3.19c-1.59-1.62-3.12-2.76-5.56-2.53-1.24.12-2.74-.61-2.42-2.17,1.14-5.56,1-11.61,6.17-15.67,1.37-1.08,2.23-1.66,3.8-.35,1.88,1.56,4.41,1.74,6.67,2.48C130.81,140.08,137.83,150.46,137,162.21Z"/><path class="cls-4" d="M102.84,77.15c-.7-6.63,3.58-11.2,8.88-14.13,5.61-3.1,11.76-3.64,17.42,1.29,6.06,5.29,7.31,17.66-1,22.22-6,3.27-12.1,3.42-18.26,2.3C104.69,87.89,102.84,84.18,102.84,77.15Zm11.65-1.82c-2.91.32-4.14,2.39-4.21,5.4-.09,3.85,2.26,6.27,6,6.18,2.11-.06,4.24-3.2,4.18-6.17C120.35,77.61,118,75.32,114.49,75.33Z"/><path class="cls-11" d="M225.11,281.55c-5,0-7.47-2.56-5.87-7,2.74-7.57,3.46-15.5,5.2-23.23,1.25-5.56,4-10.1,10.32-11.36,5.14-1,8.2,1.63,7.12,6.84-1.37,6.59-4,12.76-6.6,18.94-1.94,4.67-4.83,8.94-6.12,13.87C228.47,282.24,226.48,281.34,225.11,281.55Z"/><path class="cls-12" d="M108.81,233.53c0,.67-.12,1.32-1,1.37a16.78,16.78,0,0,0-13,7.19c-2.53-6.36-4.9-12.12-7.1-17.94-2.63-7-5.28-13.91-7.6-21a102.45,102.45,0,0,0-3.74-9.8c-1-2.16-.22-2.9,2.07-2.73s4.57.08,6.85.11l.06,1c5.14,10.06,8.15,21.14,14.15,30.74C102,226.53,103.88,231.43,108.81,233.53Z"/><path class="cls-11" d="M258.68,266.27c-5.44,0-7.51-2.46-5.39-7.42C256,252.53,257.4,246,259,239.33c1.45-6.21,6.56-10.3,12.23-13.2,2.16-1.11,4.1.07,5.42,1.64,1.89,2.25,1.7,5.06.55,7.54A85.54,85.54,0,0,1,271.47,246c-2.87,4.42-1.86,9.84-4.31,14.42C265.26,264,262.82,266.27,258.68,266.27Z"/><path class="cls-4" d="M164.88,77.06c-7.24.82-12-3.17-11.81-10.12.27-8.63,4.83-14.33,12.24-14.47,8.3-.16,13.17,4,13.17,11.51C178.49,71.67,173,77,164.88,77.06Zm.61-6.44c0-3.38-1.8-5.88-4.37-5.91-2,0-4.85,2.65-4.78,4.52.11,3.2,2.15,5.47,5,5.39C163.87,74.55,165.77,73.69,165.49,70.62Z"/><path class="cls-11" d="M216.25,279.88c-3.17-.71-5.6-2.17-8.43-2.5-1.79-.21-2.48-1.63-2.68-3.59-.42-4.3.33-8.25,3-11.64,5.05-6.51,7.44-14.35,11-21.59,2.1-4.27,7.19-6.66,14.6-3.2a14.33,14.33,0,0,0-10.41,9.83,41.62,41.62,0,0,0-2.63,11.8c-.17,5-2.08,9.39-3.61,13.91C216.29,275.11,215.64,277.17,216.25,279.88Z"/><path class="cls-8" d="M209.51,178.48c-1.78,0-3.67-.39-5.31.09-3.65,1.06-4.61-.93-6-3.73a65.48,65.48,0,0,0-8.42-13c-.47-.54-1.34-1-.88-1.89s1.31-.44,2.05-.39c6.67.46,13.33,1.13,20,1.27,3.25.07,4.93,1.32,5.79,4.25a34.66,34.66,0,0,1,1.59,9.29c.05,3.14-1,4.48-4.21,4.14a43.32,43.32,0,0,0-4.56,0Z"/><path class="cls-2" d="M99.78,254.86c2.6-1,4.58.72,6.74,1.57a88.76,88.76,0,0,0,39,6.15c8.33-.55,16.66-1.05,25-1.62.9-.06,2.21.4,2.52-1,.26-1.2-1-1.25-1.62-1.82-1-1-2.83-1.39-2.87-3.28h.7l6.9,4.61.77.73h0c0,2.31,2.43,2.3,4,4.2-3.69.69-7,.6-10.24,1.06-9.55,1.34-19.2,1.05-28.8.79-9.13-.25-18.19,1-27.3.87-2.28,0-4-.22-5.21-2.66-1.33-2.63-4.54-3.48-6.77-5.34C101.17,257.86,100,256.73,99.78,254.86Z"/><path class="cls-11" d="M272.59,223.7c-11,3.93-15.49,12.84-17.56,23.36a25,25,0,0,1-2.34,6.73c-1.4,2.72-2.82,5.37-2.44,8.63.26,2.27-.93,2.69-2.79,1.65-2.19-1.22-4.37-2.47-6.56-3.7,1.48-5.39,4-10.47,4.28-16.38.13-3.09,2.51-6.15,4.94-8.31a48.23,48.23,0,0,0,7.63-9.2C261.4,221.15,266.77,220.33,272.59,223.7Z"/><path class="cls-13" d="M85.35,191.78l-.06-1c2.29.53,4.56-1.45,6.86,0,5.61,8.31,8.63,18,13.78,26.51,3.48,5.75,8.56,10.29,13.67,14.67a6.28,6.28,0,0,0,5.28,1.53c-1.76,3,1.92,4.77,1.27,7.68-4.37.73-7.51-2.48-10.92-4.92-1.9-1.36-3.27-3.42-5.46-4.45a63.75,63.75,0,0,1-12.61-19.9c-2.6-6.31-4.67-13-8.91-18.57C87.41,192.16,86.92,191.14,85.35,191.78Z"/><path class="cls-12" d="M9.13,90.06c-1.38,7-1.84,12.93.53,18.82,2.78,6.92,5.32,13.93,8.08,20.85,3.42,8.57,8.42,15.14,19.44,13.9-5.19,4.74-13.66,3.92-17.67-1.11-4.64-5.84-6.88-12.91-9.76-19.58-2.13-4.94-5.31-9.55-6-15.08C3,101.57,3.32,95.53,9.13,90.06Z"/><path class="cls-3" d="M221.14,169.36c-3.26-12-1.89-10.52-15-11.67-6.14-.53-12.32-.7-18.46-1.26-3.16-.28-3.78-3.71-5.77-5.49-1-.88-1.52-2.27-2.8-4.3,17,8.12,34.44,9.66,52.2,9.12-.51,5.27-2.38,9.68-.95,14.29C227.32,169,224.21,169.33,221.14,169.36Z"/><path class="cls-14" d="M47.91,48.67c.9,2.45-.44,4.65-1,6.82-3.07,11-2.52,21.8.34,32.85,1.4,5.39,4.1,10,6.15,15,.84,2,2.22,3,4.43,2.64a51.24,51.24,0,0,0,5.43,13.64l-.26.26A13.46,13.46,0,0,1,53,111.42a11.09,11.09,0,0,0-1.8-3.32,26.5,26.5,0,0,1-7-18.27C44.1,84,42.28,78.39,42,72.61c-.34-8.36.85-16.46,5.09-23.88Z"/><path class="cls-4" d="M238.82,161.37c1.9,5.81,7.25,5.38,10.74,8.18-4.79,0-8.75,2.59-13.2,3.55a1.84,1.84,0,0,1-2.33-1.35c-1.79-4.41-1.09-8.84,0-13.25.3-1.26,1-2.08,2.41-1,3.34,2.49,7.46,2.43,11.19,2.51,6.35.14,12,1.53,17.61,5.87C255.75,168.05,247.53,165.22,238.82,161.37Z"/><path class="cls-13" d="M43.28,151c.51,0,1.14-.09,1.49.17,11.51,8.23,24.48,7.13,37.48,6,3.76-.33,7.53-.76,11.3-.73,2.82,0,4-1.12,4.76-3.73.65-2.37.35-5.53,3.83-6.25a45.14,45.14,0,0,0-.79,6c0,4.83,1,6.76,6,6.17l.23.26c-1.74,2.12-4.12,2.3-6.55,2-8.57-1.06-17.18-.32-25.77-.69-7.61-.32-15.27.78-22.83-.77A11.27,11.27,0,0,1,43.28,151Z"/><path class="cls-6" d="M267,162.67c5.85-1.84,11.62-.85,17.28-1.14,13.6-.72,27.25,0,40.84-1.33a25.85,25.85,0,0,1,3.05,0c1.11,0,1.54.68,1.57,1.73s-.34,1.93-1.68,2-2.81.67-4.12.46c-6.86-1.08-13.63.56-20.47.45-9.11-.16-18.24.94-27.35.89C273.09,165.73,269,167.05,267,162.67Z"/><path class="cls-2" d="M190.58,272c6.13,1.37,7.22,3.82,6.17,11.23-.61,4.26-1.58,8.85,2.3,12.55,1.39,1.34,1.46,3.05-1.23,3.34s-5.2,1.11-7.89.74c-2-.27-3-1.51-1.75-3.13,2.28-3.07,1.74-6.47,1.73-9.82A116.62,116.62,0,0,1,190.58,272Z"/><path class="cls-6" d="M247.24,152.55c2.27,0,4.55-.05,6.83,0,3.07,0,6.86-1.15,7.17,4.61-.92-5.78,2.77-4.55,5.5-4.6,1.39,0,2.78,0,4.17,0,.66,1.42-1.43,4,.23,4.1,2.32.13.88-2.65,1.31-4.1l3.81,0c.19,2.28-.51,4.65.75,6.8-9.27.69-18.39-.57-27.5-2.1a44,44,0,0,0-6.09-.2l-.78-3c.26-2.07,1.86-1.36,3.06-1.48.23,1.11-.53,2.46.77,3.43C247.77,155,247,153.66,247.24,152.55Zm18,1.73a1.9,1.9,0,0,0,1.38,2.59A1.9,1.9,0,0,0,265.27,154.28Zm-13.92,1.58a1,1,0,0,0,1-.9,1.06,1.06,0,0,0-.62-.76.75.75,0,0,0-1.11.59A.92.92,0,0,0,251.35,155.86Zm5.25,1c.09-.22.3-.48.24-.63s-.4-.2-.61-.29c-.09.21-.3.47-.24.63S256.38,156.72,256.6,156.82Z"/><path class="cls-6" d="M287.73,152.56l9.16,0c.09,1.29-1.46,2.52-.13,3.83.22.22.78.43.94.31,1.38-1,.45-2.51.72-3.77a1.53,1.53,0,0,0,0-.37c3,.55,6.2-1.25,9.05,1.34.64.59,2.14-2.07,3.93-1.32-.43,1-1.2,2.08.77,2.25h0c0,.77,0,1.55,0,2.32a4.1,4.1,0,0,1-3.08,1.44c-.19-1,.52-2.63-1-2.73-2-.15-1,1.72-1.32,2.74H283.91c-.46-1.67-.91-3.34-1.43-5.23-1.78,2-1.53,3.65-.11,5.26-1.27,1.37-2.54-.48-3.81,0a15.9,15.9,0,0,1-.77-6.09l9.15.05c-.49,1.13-1.28,2.27-.18,3.44a1.06,1.06,0,0,0,1,.07c1.08-1-.4-2.07-.06-3.13A1.21,1.21,0,0,0,287.73,152.56Zm14.51,1.9c-.67.09-.7.61-.7,1.1s0,1.09.69,1.1.7-.59.7-1.08S302.91,154.56,302.24,154.46Zm-9.15.61c-.29-.26-.54-.65-.76-.64a.91.91,0,0,0-.62.64c-.07.48.11,1,.75.86C292.7,155.87,292.84,155.42,293.09,155.07Z"/><path class="cls-2" d="M85.35,191.78c1.57-.64,2.06.38,2.9,1.49,4.24,5.6,6.31,12.26,8.91,18.57a63.75,63.75,0,0,0,12.61,19.9,1.9,1.9,0,0,1-1,1.79c-4.93-2.1-6.81-7-9.31-11C93.5,212.92,90.49,201.84,85.35,191.78Z"/><path class="cls-2" d="M364.71,167.13a39.3,39.3,0,0,1-5.94-2.7c-1.34-.89-1-2.37.16-3.55,2.71-2.73,9.6-4.19,13.16-2.82a2.85,2.85,0,0,1,2,3.24c-.09,1.5.29,3.23-1.67,3.81C369.87,165.86,367.29,166.46,364.71,167.13Z"/><path class="cls-13" d="M159.2,130.43c-9.31,2.69-19,3.85-28.22,6.82a11.5,11.5,0,0,0-1.34.61c-2.14-1.11-3.61-3.38-6.58-3.17-.94.07.72-.37.52-.9,11.87.1,23.15-2.84,34.27-6.64Z"/><path class="cls-6" d="M312.18,152.55h4.59c.5.75,1,.76,1.5,0,3-.28,6.07.47,9.05-.59,1-.34,2.24-.3,2.3,1.12s.91,3.38-.8,4.52a1.27,1.27,0,0,1-2-1,25.28,25.28,0,0,0-.74-3.25c-1,4.91-3.28,5.7-7.38,3.43-.86-.48-3.12,2-5,.32a2.22,2.22,0,0,0-1.5-2.32h0C312.17,154.05,312.18,153.3,312.18,152.55Z"/><path class="cls-14" d="M38,91.35c2.72-1.22,1.11-3.36,1.06-5.15-.09-3.09-2.48-6.09-.41-9.29,4,4.79,3.11,10.77,3.81,16.32A39.84,39.84,0,0,0,44.18,102l-.51.43c-3.11-.52-4-3.25-4.93-5.53C38,95.23,38.24,93.21,38,91.35Z"/><path class="cls-13" d="M221.14,169.36c3.07,0,6.18-.4,9.17.69a14.33,14.33,0,0,1,.86,1.23c.48.83,1.88,1.32,1.38,2.47s-2.05,1.08-3,.77a5.49,5.49,0,0,0-3.66.15c-3.74,1.3-5.11-.07-4.67-3.8A8.51,8.51,0,0,0,221.14,169.36Z"/><path class="cls-2" d="M115.74,49.45c1,0,2.11-.12,2.18,1.13.06,1-.89,1-1.62,1.19-2.2.58-4.38,1.19-6.55,1.85-.84.26-1.55.18-1.9-.65-.42-1,.48-1.38,1.14-1.59C111.27,50.67,113.58,50.06,115.74,49.45Z"/><path class="cls-8" d="M231.27,152.52c1.37,0,2.74-.07,4.1,0,.75.06,2-.61,2.1.81.06.68,0,1.67-.86,2s-1.83,1.13-2.63-.25A8.89,8.89,0,0,0,231.27,152.52Z"/><path class="cls-13" d="M198.75,201.52h4.49c1.07,0,1.21.7,1.17,1.51s-.41,1.56-1.41,1.09C201.53,203.42,199.32,203.86,198.75,201.52Z"/><path class="cls-8" d="M242.64,154l.78,3c-.74-.1-1.47-.25-2.2-.3a2.07,2.07,0,0,1-1.83-3.15C240.51,151.24,241.42,154.57,242.64,154Z"/><path class="cls-8" d="M277.79,152.51a15.9,15.9,0,0,0,.77,6.09l-1.55.74c-1.26-2.15-.56-4.52-.75-6.8Z"/><path class="cls-13" d="M107.36,158.57,105.51,155c1.45-.14,3.11-.81,3.87.81.59,1.26-.24,2.59-1.79,3.06Z"/><path class="cls-15" d="M47.91,48.67l-.78.06A1.47,1.47,0,0,0,45.68,48c.45-2.22,1.9-3.5,4.39-4.76C49.53,45.55,47.35,46.63,47.91,48.67Z"/><path class="cls-8" d="M282.37,158.6c-1.42-1.61-1.67-3.24.11-5.26.52,1.89,1,3.56,1.43,5.23Z"/><path class="cls-2" d="M79.69,254c1.38,1.47,2.25,2.6,2.07,4.19a1.63,1.63,0,0,1-1.29.24C78.77,257.49,79,256,79.69,254Z"/><path class="cls-8" d="M298.42,152.53a1.53,1.53,0,0,1,0,.37c-.27,1.26.66,2.76-.72,3.77-.16.12-.72-.09-.94-.31-1.33-1.31.22-2.54.13-3.83Z"/><path class="cls-8" d="M272.45,152.56c-.43,1.45,1,4.23-1.31,4.1-1.66-.09.43-2.68-.23-4.1Z"/><path class="cls-8" d="M306.82,158.58c.28-1-.65-2.89,1.32-2.74,1.5.1.79,1.75,1,2.73Z"/><path class="cls-8" d="M287.73,152.56a1.21,1.21,0,0,1,0,.38c-.34,1.06,1.14,2.1.06,3.13a1.06,1.06,0,0,1-1-.07c-1.1-1.17-.31-2.31.18-3.44Z"/><path class="cls-8" d="M247.24,152.55c-.23,1.11.53,2.46-.77,3.43-1.3-1-.54-2.32-.77-3.43Z"/><path class="cls-8" d="M312.18,152.55c0,.75,0,1.5,0,2.25-2-.17-1.2-1.27-.77-2.25Z"/><path class="cls-8" d="M312.18,154.81a2.22,2.22,0,0,1,1.5,2.32H312.2C312.2,156.36,312.19,155.58,312.18,154.81Z"/><path class="cls-8" d="M318.27,152.54c-.5.76-1,.75-1.5,0C317.28,151.73,317.78,151.74,318.27,152.54Z"/><path class="cls-5" d="M177.58,34.81l-.36.56c-.13-.2-.33-.39-.36-.61s.2-.33.31-.5Z"/><path class="cls-14" d="M44.18,102c.36.32.81.84.37,1.15s-.63-.4-.88-.73C43.84,102.26,44,102.11,44.18,102Z"/><path class="cls-7" d="M202.82,181.64l-1-.42c.08-.09.21-.28.23-.27.31.15.61.34.91.51Z"/><path class="cls-13" d="M42.28,149.58c.78.12,1,.69,1,1.36A1.67,1.67,0,0,1,42.28,149.58Z"/><path class="cls-14" d="M63.22,119.58l.29.52-.55-.26Z"/><path class="cls-13" d="M41.9,148.69l.42.93Z"/><path class="cls-2" d="M186.69,58.81a.7.7,0,0,1-.44-1Z"/><path class="cls-5" d="M176.35,32.47c.11.31.39.75.28.89-.3.38-.6.1-.82-.21Z"/><path class="cls-16" d="M274,104.39c-2.92,0-5.84-.1-8.74.07-1.68.1-4.31-1.23-4.2,2.48,0,.94-1.75.43-2.69.51-10,.92-19.94.77-29.93.82a23.23,23.23,0,0,0-4.08.7l-.76-1.5c2.06-2,2.58-4.08,0-6.11V97.54c2.76-1,1.93-3.62,1.11-4.65-2.09-2.66-.7-4.61.43-6.79,1.52-.53,3.8,1.2,4.58-1.53,1-.44,2-1.41,3.07,0,1.46,2.43,3.4,1.56,5.33.76h16.8c.25,1,.51,2,.76,3-2.15.18-4.39-.36-6.49.36v1.17h12.62a2,2,0,0,1,0,2.29c-4.44,0-8.89.24-13.31-.08-2.31-.17-4.29-.29-6,2a117,117,0,0,1,22,.33c-2.7-.39-3.16,2.73-5,3a59.2,59.2,0,0,1-7.19.31,1.85,1.85,0,0,0-.71.28c-.67.36-2.06.12-1.52,1.54.32.85,1.12.66,1.93.58a240.32,240.32,0,0,1,27.36-1.09c0,.76,0,1.51,0,2.26-10.88.77-21.78.9-32.69.75a7.47,7.47,0,0,0-3.9,1.27c10.43.06,20.84.78,31.23-.46C274,103.4,274,103.9,274,104.39Z"/><path class="cls-17" d="M206.75,109.73c-2.65.56-4.07-.53-4.28-3.22-.09-1.26-.29-2.51-.29-3.77,0-8.77-.12-17.54,0-26.3.18-12.94-1.31-25.84-.81-38.79.17-4.4.06-8.8.06-13.2A2.18,2.18,0,0,1,203.7,22c1-.05,2,0,3.05,0,12.05-.26,24.13-.09,36.14-.91,11.63-.8,23.29-.36,34.91-1.38a2.05,2.05,0,0,0,0,2.3c-1.18.2-2.63-.59-3.52.7s1.79,1.58,1.24,2.95H270c.49-1.17,1.44-2.18.35-3.24a1.78,1.78,0,0,0-2.14-.12c-1.23.65-1,1.51-.34,2.51a1,1,0,0,1-.81,1.58c-2.58-.66-5.24.86-7.73-.39-.79-.4-1.48-1.18-2.31-.25a1.79,1.79,0,0,0-.47,1.35c.37,1.36,1.59.95,2.54,1,1.68.08,3.49-.24,4.72,1.9-3.11.84-6.07-.09-8.83.57-2.18.52-3.19.14-3.2-2.14,0-1.35-.55-1.47-1.9-1.42-6.76.25-13.52.26-20.29.36.47-2.9-.56-4-3.68-3.92-4.93.1-9.77,1.35-14.72.86-1.66-.16-2.3.71-2.19,2.27-.82,1.44-5.48-.19-3.06,3.82-1.34.15-1.53,1.07-1.53,2.19,0,7.84-.26,15.69.74,23.5.21,1.58,1.07,1.82,2.32,1.81v2.28c-2.27-.19-2.32,1.29-2.31,3,0,10.64-.3,21.29.18,31.91.19,4.12-.84,8.53,1.36,12.48C206.75,108.21,206.75,109,206.75,109.73Z"/><path class="cls-16" d="M349.22,85.31c-14.84,3-30.15.25-45,3.22,12.17.66,24.37-1,36.54.54-2,1.19-4.25.74-6.38.8-3.31.09-6.62,0-9.93,0-.87,0-2-.1-2.1,1.08s.76,1.85,1.9,1.91a21.92,21.92,0,0,0,4.58,0c8.34-1.36,16.74-.43,25.1-.73a15.93,15.93,0,0,0,3-.28c1.15-.25,2.42-.84,2.52,1s-1.33,1.53-2.45,1.56c-10.52.26-21.07.13-31.56.88-12.71.9-25.45,0-38.13,1.22-1,.09-1.86,0-2.26-.92-.52-1.2-.68-2.43.51-3.46,2.07-1.81,2-3.61-.05-5.42a2.78,2.78,0,0,1-.42-3.81c1-1.32,2.18-.8,2.79.79.2.52,1,.76,1.22.31,1.27-3.24,4.91.08,6.43-2.37a.73.73,0,0,1,.7,0c2.93,4.4,7,1.49,10.64,1.75,5.45.4,10.83,1.68,16.35,1.09a213,213,0,0,1,23.7-.74,20.33,20.33,0,0,1,2.19.23C349.13,84.46,349.18,84.88,349.22,85.31Z"/><path class="cls-18" d="M223.57,107.47l.76,1.5a85.27,85.27,0,0,1-13.74.79c1.38-4.34.57-9.23,3.3-13.51-.14-.78-3.15-.14-1.77-1.35,2-1.76,1.44-2.4-.11-3.64-.67-.54-.08-.88.41-1.38,2.75-2.8,2-5.18-1.83-6.12V81.54c1.16-.26,3.12.65,3.35-.79.37-2.31-2.44-3-3.81-4.9a17.74,17.74,0,0,0,7.06-2.67c-1.14-1.28-2.39-.94-3.4-.79-2.75.4-3.81-1.58-2.69-3.09,1.29-1.74.19-4.2,2.22-5.35.71-.4,1-.71.27-1.36-.48-.45-2.29.36-1.4-1.36.51-1,1.17-1.94,2.59-1.88,1.9.07,3.81,0,5.71,0-.31,3.68.62,7.27.71,10.9.18,7.54,0,15.08.1,22.62,0,1.78-.11,3.9,2.25,4.66v3.82C220.81,103.32,220.81,105.07,223.57,107.47Z"/><path class="cls-17" d="M279.32,101.35c0-.75,0-1.5,0-2.26-.39-1.49-.4-1.41-2-1.57-2.46-.25-5.08.71-8.07-1,3.37-1,6.13-.39,8.85-.55,1.38-.09,2.69-.36,2.61-2A2.39,2.39,0,0,0,278,91.44a10.71,10.71,0,0,0-2.27,0c-4.62,1.23-9.33.53-14,.7a2,2,0,0,0,0-2.29c5.81-1.75,12,.12,17.84-1.2,0-.43,0-.86,0-1.3H263c.94-1.55,2.1-1.28,3.17-1.29,3.55,0,7.11,0,10.66,0,1.83,0,2.85.21,3-2.72.22-3.72-.64-7.24-.59-10.88.21-14.93-1-29.81-1.41-44.72,0-1.16-1.38-2.35-.06-3.52h3c-.05,10.64.7,21.25.95,31.89.31,12.88,1.22,25.75,1.46,38.65.07,3.63.8,7.27.67,11-.05,1.39-.19,2.82-2,2.38-5.53-1.33-11.12-.27-16.67-.66a8.9,8.9,0,0,1-1.43-.31c.07-1.59,1.23-1.16,2-1.16,4.07-.06,8.13,0,12.2,0,1.07,0,2.53.36,2.75-1.25C280.88,103.4,281.46,101.74,279.32,101.35Z"/><path class="cls-16" d="M296.91,55.57c5.51-.27,11-.56,16.54-.78,1.47-.07,3.05-.27,4.13,1.14-4.1,1.38-8.47,1.29-13.42,2.42,3,1.68,5.58.53,8.94,1.42-7.09,1.55-12.65,5.07-19.26,5,.28-1.85-.78-5.16.67-5.31C297.8,59.11,296.62,57.12,296.91,55.57Z"/><path class="cls-16" d="M280.83,24.23h-3c0-.76,0-1.52,0-2.28a2.05,2.05,0,0,1,0-2.3c15.79-.33,31.56-1.69,47.37-1.54,0,.53,0,1.06,0,1.59-12.19.69-24.38,1.61-36.61,1.53l-5.48,0C281.09,21.32,280.79,22.65,280.83,24.23Z"/><path class="cls-16" d="M210.59,83.76c3.83.94,4.58,3.32,1.83,6.12-.49.5-1.08.84-.41,1.38,1.55,1.24,2.14,1.88.11,3.64-1.38,1.21,1.63.57,1.77,1.35-2.73,4.28-1.92,9.17-3.3,13.51l-3.84,0c0-.76,0-1.52,0-2.27l.73,0c2.55-1.74,2.61-2,.81-3,.24-1,.49-2,.73-3-.74-1.79,1.72-3.58,0-5.37,0-.51,0-1,0-1.53a1.83,1.83,0,0,0,0-3c1.42-2.43-.27-5.16.74-7.63Z"/><path class="cls-17" d="M325.16,19.71c0-.53,0-1.06,0-1.59,3.33-1.17,6.78-.78,10.18-.73a158.92,158.92,0,0,0,17-.77c1.12-.1,2.42-.18,3,1.12.44,1-.52,1.58-1.09,2.22-.87,1-1.76,1.37-2.93.37s-2.92-.7-4.4-.64c-6.57.25-13.18-.74-19.71.69A2,2,0,0,1,325.16,19.71Z"/><path class="cls-17" d="M296.91,55.57c-.29,1.55.89,3.54-2.4,3.87-1.45.15-.39,3.46-.67,5.31-.43.46-1.22.92-1.22,1.37,0,1.35-.45,1.8-1.78,1.64s-1.51-1-1.61-2.14c-.24-2.93.87-6-1.7-8.66-.95-1,.46-1.38,1.36-1.39C291.56,55.54,294.23,55.56,296.91,55.57Z"/><path class="cls-16" d="M311,49.1c-5.64-1.35-10.42,2.95-16,2-1.23-.2-2.62.83-4,1.14-1.09.26-2.3.55-3.14-.6-.45-.61-.95-1.32-.62-2.09.6-1.43,2-1,3-.89,5.72.38,11.37-.74,17.07-.77C308.48,47.93,309.8,47.5,311,49.1Z"/><path class="cls-16" d="M287.61,75.8c1.2-2.58,2.19-3.47,3.92-3.46,5.65,0,11.29,0,16.93,0,.88,0,2,0,2,1.19,0,.95-.91,1.08-1.7,1.07C302,74.59,295.18,74.53,287.61,75.8Z"/><path class="cls-16" d="M311.32,26.89c-7.3.6-14.34,2.78-21.65,2.68-1.19,0-3,.34-3-1.37.05-1.51,1.82-.74,2.83-.91C296.76,26.08,304.06,26.71,311.32,26.89Z"/><path class="cls-16" d="M313.62,43.21c-1.53,1.29-2.86.91-4.05.85-6-.33-11.78.87-17.55,2.23a8.67,8.67,0,0,1-2.28.11c-.65,0-1.56.77-1.89-.42A1.63,1.63,0,0,1,289,43.89a5.14,5.14,0,0,1,2.18-.53c6.18.69,12.24-1.31,18.41-.8C310.81,42.66,312.09,42.3,313.62,43.21Z"/><path class="cls-16" d="M310.66,32c-.61.85-.67,1-.74,1-7.23.2-14.34,1.91-21.61,1.76-.84,0-1.55-.27-1.74-1.13s.56-1,1.19-1A153,153,0,0,1,310.66,32Z"/><path class="cls-16" d="M353,81c-3.83,1.49-7.85,1.32-11.86,1.2-.9,0-1.93-.3-1.74-1.49.16-1,1.19-.73,1.89-.74,3.88,0,7.77,0,11.65,0Z"/><path class="cls-16" d="M283.07,21.26l5.48,0a14.16,14.16,0,0,1-.45,2.17c-.46,1.16-1,2.29-2.59,2.3-1.83,0-1.6-1.63-2.13-2.63A5.88,5.88,0,0,1,283.07,21.26Z"/><path class="cls-16" d="M293.28,39.43c.72.58,2.88-1.79,2.57.83-.27,2.2-2.6,1.43-4.14,1.51-.92,0-2.51.26-2.2-1.21C289.92,38.55,291.65,38.9,293.28,39.43Z"/><path class="cls-16" d="M324.46,62.06c-2.35,1.67-4.78.91-7.19.66C319.54,60.83,322.09,62.09,324.46,62.06Z"/><path class="cls-16" d="M320,65.94c-2,1.91-3.63,2.29-5.5,1.26-.5-.28-.67-1.08-.3-1.27C315.84,65.1,317.57,65.39,320,65.94Z"/><path class="cls-16" d="M314.82,71.59c.88.08,2,.09,1.69,1.36s-1.55,1.51-2.7,1.6c-.82.07-1.57-.24-1.47-1.23C312.5,71.89,313.6,71.62,314.82,71.59Z"/><path class="cls-16" d="M307.45,67.28c2-2.09,3.57-2.16,5.32-.25C311.12,68.12,309.59,67.83,307.45,67.28Z"/><path class="cls-16" d="M313.23,62.43c-1.72.91-3.44,1-5.82.1A5.56,5.56,0,0,1,313.23,62.43Z"/><path class="cls-11" d="M274,104.39c0-.49,0-1,0-1.48,1.64.13,3.39-.43,5.54.73C277.36,104.81,275.61,104.24,274,104.39Z"/><path class="cls-16" d="M299.45,66.79c-2.21,1.38-3.67.91-5.9.63C295.65,65.8,297.16,66.19,299.45,66.79Z"/><path class="cls-16" d="M352.37,85.15c-.53,0-1-.19-1.07-.8-.09-.78.34-1.15,1.08-1.14a.9.9,0,0,1,.91,1A.93.93,0,0,1,352.37,85.15Z"/><path class="cls-16" d="M357.13,83.88c-.45.26-.72.54-1,.56-.53,0-1-.28-.78-.86.06-.21.6-.39.9-.36S356.74,83.57,357.13,83.88Z"/><path class="cls-1" d="M144.73,104.56c-2.57-.69-5.21-.54-6.81-3-.52-.79-1.07-1.55-.36-2.35s1.67-.44,2.44,0c5,3.09,13.92,1.58,18.07-3.07,1.12-1.24,2.4-3.67,4-2.35s-1,2.79-1.85,4C156.32,103,150.13,103.05,144.73,104.56Z"/><path class="cls-1" d="M177,260.16l-.77-.73Z"/><path class="cls-2" d="M38.2,118.18c1.78.19,2,1.24,1.07,2.32a24.92,24.92,0,0,0-5.2,10.32,1.14,1.14,0,0,1-1.32,1,1.28,1.28,0,0,1-1.25-1.18c-.37-1.79,4-11.09,5.71-12.06A6.72,6.72,0,0,1,38.2,118.18Z"/><path class="cls-2" d="M20.41,94.58A14.13,14.13,0,0,1,30,94.35c.78.28,2,.14,1.63,1.48a1.4,1.4,0,0,1-2.15.8C26.63,94.74,23.4,95.39,20.41,94.58Z"/><path class="cls-1" d="M160.61,36.36c2.74-.2,4.39.91,4.87,3.6s-.69,4.75-3.45,5.29c-2.94.57-5.64,2.15-8.75,1.91-3.59-.28-4.81-2.32-2.79-5.29C152.88,38.37,156.59,37,160.61,36.36Z"/><path class="cls-1" d="M114.49,75.33c3.5,0,5.86,2.28,5.92,5.41.06,3-2.07,6.11-4.18,6.17-3.69.09-6-2.33-6-6.18C110.35,77.72,111.58,75.65,114.49,75.33Z"/><path class="cls-1" d="M165.49,70.62c.28,3.07-1.62,3.93-4.16,4-2.84.08-4.88-2.19-5-5.39-.07-1.87,2.77-4.55,4.78-4.52C163.69,64.74,165.53,67.24,165.49,70.62Z"/><path class="cls-8" d="M265.27,154.28a1.9,1.9,0,0,1,1.38,2.59A1.9,1.9,0,0,1,265.27,154.28Z"/><path class="cls-8" d="M251.35,155.86a.92.92,0,0,1-.76-1.07.75.75,0,0,1,1.11-.59,1.06,1.06,0,0,1,.62.76A1,1,0,0,1,251.35,155.86Z"/><path class="cls-8" d="M256.6,156.82c-.22-.1-.55-.14-.61-.29s.15-.42.24-.63c.21.09.55.14.61.29S256.69,156.6,256.6,156.82Z"/><path class="cls-8" d="M302.24,154.46c.67.1.69.63.69,1.12s0,1.08-.7,1.08-.69-.61-.69-1.1S301.57,154.55,302.24,154.46Z"/><path class="cls-8" d="M293.09,155.07c-.25.35-.39.8-.63.86-.64.16-.82-.38-.75-.86a.91.91,0,0,1,.62-.64C292.55,154.42,292.8,154.81,293.09,155.07Z"/><path class="cls-2" d="M277.78,22c0,.76,0,1.52,0,2.28-1.32,1.17,0,2.36.06,3.52.43,14.91,1.62,29.79,1.41,44.72-.05,3.64.81,7.16.59,10.88-.16,2.93-1.18,2.72-3,2.72-3.55,0-7.11,0-10.66,0-1.07,0-2.23-.26-3.17,1.29h16.53c0,.44,0,.87,0,1.3-5.85,1.32-12-.55-17.84,1.2H249.14V88.72c2.1-.72,4.34-.18,6.49-.36l1.53-.74c1.21.92,2.84,1.41,3.37-.17.38-1.12-1.19-2-2.6-2.12H238.07V83c1.85.5,2.73-2,4.58-1.49.59,1.12,1.42,1.82,2.7,1.2,1.05-.5,1.11-1.53,1.1-2.57,0-1.62-1.1-1.71-2.3-1.69-1-.12-2.24.35-3-.77.47-1.19,2.25-.24,2.68-1.65-1-1.13-2.33-.45-3.48-.62h-3.78c.52-2.35,2.42-2.18,4.18-2.31s3.62.39,6.16-.87c-3.53-1.09-6.27-.53-8.94-.62-1.65-.07-3.13-.08-2.93-2.34,1.73,0,3.47,0,5.21,0,1.46,0,2.53-.47,1.65-2.26.39-1,2.47-1,1.8-2.49-.48-1.1-1.83-.43-2.78-.58s-2.5.15-2.31-.6c.77-3-2.46-2-3.33-3.3,1.52-1.19,3.65-.63,4.69-2.13-.24-.83-.81-.71-1.27-.84-1.19-.34-3.33.84-3.4-1.25s2.07-1.67,3.52-1.8c2.16-.19,4.43.4,6.93-.56-3.41-2.11-6.46-3.3-9.94-1.74V50.2c2.16,0,4.31,0,6.47,0,.78,0,1.66-.09,1.7-1.08s-.82-1.15-1.61-1.15c-2.16,0-4.32.06-6.47,0-1.78-.09-3.93,0-4.84-1.77a5,5,0,0,0-3.66-2.78v-.79c2.1-.73,4.2-1.48,6.31-2.18.68-.22,1.77,0,1.74-1s-1-1.31-2-1.38c0-1.33,2.24-2.21.76-3.84l.77-.75h2.28v0c-.32,2.14,1.34,2.68,2.75,2.66,1.7,0,.83-1.69,1.07-2.66a8.5,8.5,0,0,0,1.13,0c.91-.14,2.31.39,2.44-1s-1.28-1.19-2.2-1.25c-2-.14-3.89-1.08-5.93-.73a1.84,1.84,0,0,0-3.07,0,31,31,0,0,1-4.09-.05c-3.14-.43-4.63.49-3.56,3.86.11.56.1,1.32.92,1.15.27-.05.42-.73.62-1.12l5.34,0c-1.36,1.48-4.93.29-4.58,3.81a1.45,1.45,0,0,0-1.58,1.54c-2.94,1.33-.78,2.57.07,3.83,0,.25,0,.5,0,.75-2.36.16-3.05-1.09-3.09-3.26,0-1.55.7-3.38-1.46-5.4,0,3.8,0,6.81,0,9.81,0,.79.17,1.74,1.07,1.73,2.86,0,3,1.89,2.68,3.84-.43,2.48,2.4,2,2.8,3.32.62,2.1-2.76.82-2.81,3.23-.17,8.11-.35,8.1,7.67,8.11h.76l0,.78-.08,1.5c-2.14,0-4.29,0-6.44,0-1.53,0-1.89.9-1.89,2.21s.2,2.3,1.78,2.32c1.14,0,2.27,0,3.41.06.8,0,1.55.26,1.43,1.29-.1.8-.79.89-1.42.94a17.07,17.07,0,0,1-1.89,0c-2.14-.12-3.31.63-3.34,3,0,2.62,1.36,3.31,3.59,3.11s4.73-.49,7.1-.75c0,.26,0,.51,0,.76.06,2.59-1.88,3.2-3.8,3.81-1-1.39-2.05-.42-3.07,0-2.17-1.31-4.34-1-6.95-.18l2.37,1.71c-1.13,2.18-2.52,4.13-.43,6.79.82,1,1.65,3.68-1.11,4.65-2.36-.76-2.22-2.88-2.25-4.66-.1-7.54.08-15.08-.1-22.62-.09-3.63-1-7.22-.71-10.9.78-.51.76-1,0-1.54-.35-8.1.56-16.22-.68-24.33-.68-4.41,1.32-6.15,5.67-5.28a4.6,4.6,0,0,0,4.14-.9c6.77-.1,13.53-.11,20.29-.36,1.35-.05,1.89.07,1.9,1.42,0,2.28,1,2.66,3.2,2.14,2.76-.66,5.72.27,8.83-.57-1.23-2.14-3-1.82-4.72-1.9-.95,0-2.17.37-2.54-1a1.79,1.79,0,0,1,.47-1.35c.83-.93,1.52-.15,2.31.25,2.49,1.25,5.15-.27,7.73.39a1,1,0,0,0,.81-1.58c-.68-1-.89-1.86.34-2.51a1.78,1.78,0,0,1,2.14.12c1.09,1.06.14,2.07-.35,3.24h5.46c.55-1.37-2.18-1.59-1.24-2.95S276.6,22.16,277.78,22ZM262.1,35.84c-2.42.1-4.24-.73-5.31-3a1.66,1.66,0,0,0-2.3-.74c-.65.29-1.42.49-1.36,1.53.14,2.53.17,5.07.29,7.6a1.91,1.91,0,0,0,1.56,1.9c4.26,1,5.78-.27,5.57-5C260.49,37,262.13,37.46,262.1,35.84Zm-.18,25.8c-.32-1.15-.95-2.16-.77-3,.7-3.26-1.59-3.67-3.68-3.75-1.38-.06-3.8-.25-3.65,2s-.42,5.52,3.84,4.74A25.05,25.05,0,0,1,261.92,61.64ZM253.73,45.8c.16,1.92.28,3.41.4,4.9.2,2.47,2.11,1.76,3.47,1.72s3.18-.06,2.94-2c-.14-1.23.17-3.46-2.25-3.22C256.65,47.37,255.46,46.31,253.73,45.8Zm21.32,37.61L275,82.32c-4.45,0-8.9,0-13.35,0a1.08,1.08,0,0,0-1.2,1.15,1.13,1.13,0,0,0,1.31,1.06C266.2,84.22,270.79,85.5,275.05,83.41Zm.38-45a8.29,8.29,0,0,0-2.5-.35c-1.39.33-4-1.19-3.9,1.27.06,1.58,2.28-.17,3.56.16A2.41,2.41,0,0,0,275.43,38.38Zm-42.6,7.36c1.39.76,2.48,1.08,3.45-.16a1,1,0,0,0-.18-1C234.71,43.77,233.84,44.56,232.83,45.74ZM223.34,75.9c-.28,1.24-1.2,2.61.47,3.85C224.43,78.24,224.57,77,223.34,75.9Zm0-7.29c-.62,1.51-.88,2.55.46,3.5C224.39,70.85,224.67,69.86,223.32,68.61ZM223.74,53c.09-.21.3-.47.24-.62s-.39-.2-.6-.29c-.09.21-.3.47-.24.62S223.53,52.88,223.74,53Zm-.4,8.21c-.09.21-.3.47-.24.62s.39.2.6.29c.09-.21.31-.47.25-.62S223.56,61.27,223.34,61.18Zm0-3.79-.28.64c.22.09.48.29.63.23s.2-.39.29-.6Z"/><path class="cls-18" d="M261.74,92.18c4.66-.17,9.37.53,14-.7a10.71,10.71,0,0,1,2.27,0A2.39,2.39,0,0,1,280.68,94c.08,1.68-1.23,2-2.61,2-2.72.16-5.48-.42-8.85.55,3,1.66,5.61.7,8.07,1,1.62.16,1.63.08,2,1.57A240.32,240.32,0,0,0,252,100.18c-.81.08-1.61.27-1.93-.58-.54-1.42.85-1.18,1.52-1.54a1.85,1.85,0,0,1,.71-.28,59.2,59.2,0,0,0,7.19-.31c1.84-.3,2.3-3.42,5-3a117,117,0,0,0-22-.33c1.67-2.3,3.65-2.18,6-2C252.85,92.42,257.3,92.18,261.74,92.18ZM274,94.46c1.64-.14,3.39.42,5.7-.84-2.34-.93-4.05-.58-5.71-.62l-6.82,1,0,.45Z"/><path class="cls-2" d="M223.57,107.47c-2.76-2.4-2.76-4.15,0-6.11C226.15,103.39,225.63,105.43,223.57,107.47Z"/><path class="cls-18" d="M238.07,83v2.3c-1.93.8-3.87,1.67-5.33-.76,1.92-.61,3.86-1.22,3.8-3.81A2.31,2.31,0,0,1,238.07,83Z"/><path class="cls-18" d="M225.09,86.1l-2.37-1.71c2.61-.78,4.78-1.13,6.95.18C228.89,87.3,226.61,85.57,225.09,86.1Z"/><path class="cls-17" d="M257.16,87.62l-1.53.74c-.25-1-.51-2-.76-3h2.3Z"/><path class="cls-18" d="M229.63,27.31a4.6,4.6,0,0,1-4.14.9c-4.35-.87-6.35.87-5.67,5.28,1.24,8.11.33,16.23.68,24.33h-7.24c-1.58,0-2.89-1.76-2.3-2.18,1.86-1.3,1.07-4.47,4.1-4.54-5-5.33-5-4.77-3.71-11.45-1.88-.14-4.34-.74-3.75,2.39.65,3.51-.5,7,.22,10.52.28,1.39,1.58,3.68-.31,5.28-1.25,0-2.11-.23-2.32-1.81-1-7.81-.7-15.66-.74-23.5,0-1.12.19-2,1.53-2.19.92,1.51,1.63,3.1.81,4.85-.43.92-1.34,1.94,0,2.53a3.29,3.29,0,0,0,3.89-.5c.95-1,1.18-2.69.09-3.39-1.84-1.17-1.93-1.67-.33-3.26s1.28-3.46-1.4-4.05c-.11-1.56.53-2.43,2.19-2.27,5,.49,9.79-.76,14.72-.86C229.07,23.33,230.1,24.41,229.63,27.31Z"/><path class="cls-16" d="M207.51,57.84c1.89-1.6.59-3.89.31-5.28-.72-3.57.43-7-.22-10.52-.59-3.13,1.87-2.53,3.75-2.39-1.28,6.68-1.31,6.12,3.71,11.45-3,.07-2.24,3.24-4.1,4.54-.59.42.72,2.19,2.3,2.18h7.24c.75.51.77,1,0,1.54-1.9,0-3.81.06-5.71,0-1.42-.06-2.08.89-2.59,1.88-.89,1.72.92.91,1.4,1.36.69.65.44,1-.27,1.36-2,1.15-.93,3.61-2.22,5.35-1.12,1.51-.06,3.49,2.69,3.09,1-.15,2.26-.49,3.4.79a17.74,17.74,0,0,1-7.06,2.67c1.37,1.9,4.18,2.59,3.81,4.9-.23,1.44-2.19.53-3.35.78l-.83,0c-.07-.62.06-1.38-.25-1.83-2.12-3.13-2.32-6.36-1.42-10,.53-2.12.43-4.43.87-6.64.23-1.15.41-2.63-1.45-2.9Z"/><path class="cls-18" d="M207.51,60.12c1.86.27,1.68,1.75,1.45,2.9-.44,2.21-.34,4.52-.87,6.64-.9,3.65-.7,6.88,1.42,10,.31.45.18,1.21.25,1.83-.61.1-1.26.19-1.35,1-.13,1,.58,1.22,1.35,1.33-1,2.47.68,5.2-.74,7.63a1.86,1.86,0,0,0,0,3c0,.51,0,1,0,1.53-.6,1.79-3.26,3.57,0,5.37-.24,1-.49,2-.73,3-1.13.78-.65,2-.81,3l-.73,0c-2.2-3.95-1.17-8.36-1.36-12.48-.48-10.62-.15-21.27-.18-31.91C205.19,61.41,205.24,59.93,207.51,60.12Z"/><path class="cls-16" d="M209,26.52c2.68.59,3.12,2.34,1.4,4.05s-1.51,2.09.33,3.26c1.09.7.86,2.37-.09,3.39a3.29,3.29,0,0,1-3.89.5c-1.34-.59-.43-1.61,0-2.53.82-1.75.11-3.34-.81-4.85C203.56,26.33,208.22,28,209,26.52Z"/><path class="cls-16" d="M209.76,83.8c-.77-.11-1.48-.33-1.35-1.33.09-.78.74-.87,1.35-1l.83,0v2.23Z"/><path class="cls-11" d="M209,101.38c-3.25-1.8-.59-3.58,0-5.37C210.73,97.8,208.27,99.59,209,101.38Z"/><path class="cls-11" d="M207.47,107.43c.16-1-.32-2.24.81-3C210.08,105.47,210,105.69,207.47,107.43Z"/><path class="cls-11" d="M209,94.48a1.86,1.86,0,0,1,0-3A1.83,1.83,0,0,1,209,94.48Z"/><path class="cls-18" d="M234.22,65.47h-.76c-8,0-7.84,0-7.67-8.11.05-2.41,3.43-1.13,2.81-3.23-.4-1.35-3.23-.84-2.8-3.32.35-2,.18-3.85-2.68-3.84-.9,0-1.07-.94-1.07-1.73,0-3,0-6,0-9.81,2.16,2,1.44,3.85,1.46,5.4,0,2.17.73,3.42,3.09,3.26,2.08,3.51,3.73,7.68,9.19,6.11v1.52c-1.15-.14-1.28,3.21-3.37.72-1.16-1.37-1.86.22-1.6,1.53.52,2.59.93,5.4,2.95,7.2C235.49,62.71,235.17,63.92,234.22,65.47Z"/><path class="cls-18" d="M236.51,80c-2.37.26-4.73.53-7.1.75s-3.63-.49-3.59-3.11c0-2.36,1.2-3.11,3.34-3a17.07,17.07,0,0,0,1.89,0c.63,0,1.32-.14,1.42-.94.12-1-.63-1.25-1.43-1.29-1.14-.05-2.27,0-3.41-.06-1.58,0-1.77-1.07-1.78-2.32s.36-2.22,1.89-2.21c2.15,0,4.3,0,6.44,0a1.71,1.71,0,0,0,.83,1.52c-.2,2.26,1.28,2.27,2.93,2.34,2.67.09,5.41-.47,8.94.62-2.54,1.26-4.41.73-6.16.87s-3.66,0-4.18,2.31C235,76.92,235.9,78.45,236.51,80Z"/><path class="cls-16" d="M234.22,65.47c.95-1.55,1.27-2.76-.46-4.3-2-1.8-2.43-4.61-2.95-7.2-.26-1.31.44-2.9,1.6-1.53,2.09,2.49,2.22-.86,3.37-.72,3.48-1.56,6.53-.37,9.94,1.74-2.5,1-4.77.37-6.93.56-1.45.13-3.59-.36-3.52,1.8s2.21.91,3.4,1.25c.46.13,1,0,1.27.84-1,1.5-3.17.94-4.69,2.13.87,1.33,4.1.29,3.33,3.3-.19.75,1.48.47,2.31.6s2.3-.52,2.78.58c.67,1.49-1.41,1.48-1.8,2.49-2.47-.93-5-.8-7.61-.76Z"/><path class="cls-16" d="M262.1,35.84c0,1.62-1.61,1.16-1.55,2.37.21,4.69-1.31,6-5.57,5a1.91,1.91,0,0,1-1.56-1.9c-.12-2.53-.15-5.07-.29-7.6-.06-1,.71-1.24,1.36-1.53a1.66,1.66,0,0,1,2.3.74C257.86,35.11,259.68,35.94,262.1,35.84Z"/><path class="cls-16" d="M261.92,61.64a25.05,25.05,0,0,0-4.26,0c-4.26.78-3.69-2.59-3.84-4.74s2.27-2.1,3.65-2c2.09.08,4.38.49,3.68,3.75C261,59.48,261.6,60.49,261.92,61.64Z"/><path class="cls-16" d="M235.78,50.2c-5.46,1.57-7.11-2.6-9.19-6.11,0-.25,0-.5,0-.75h.74A5,5,0,0,1,231,46.11c.91,1.8,3.06,1.68,4.84,1.77,2.15.11,4.31,0,6.47,0,.79,0,1.65.16,1.61,1.15s-.92,1.07-1.7,1.08C240.09,50.19,237.94,50.19,235.78,50.2Z"/><path class="cls-16" d="M236.51,80c-.61-1.53-1.47-3.06,0-4.57h3.78c.07.83-.09,1.73.8,2.27.79,1.12,2,.65,3,.77.15,1.34-1.09,2-1.5,3.06-1.85-.52-2.73,2-4.58,1.49a2.31,2.31,0,0,0-1.53-2.27C236.54,80.49,236.53,80.24,236.51,80Z"/><path class="cls-16" d="M253.73,45.8c1.73.51,2.92,1.57,4.56,1.4,2.42-.24,2.11,2,2.25,3.22.24,1.94-1.64,1.95-2.94,2s-3.27.75-3.47-1.72C254,49.21,253.89,47.72,253.73,45.8Z"/><path class="cls-16" d="M235,33.4l-.77.75h-1.52l-5.34,0-1.54,0c-1.07-3.37.42-4.29,3.56-3.86a31,31,0,0,0,4.09.05C234,31.34,236.24,31.51,235,33.4Z"/><path class="cls-16" d="M275.05,83.41c-4.26,2.09-8.85.81-13.29,1.13a1.13,1.13,0,0,1-1.31-1.06,1.08,1.08,0,0,1,1.2-1.15c4.45,0,8.9,0,13.35,0Z"/><path class="cls-16" d="M233.48,38c.93.07,1.92.33,2,1.38s-1.06.77-1.74,1c-2.11.7-4.21,1.45-6.31,2.18a4.86,4.86,0,0,0-.82-3A1.45,1.45,0,0,1,228.14,38C229.92,37.52,231.69,39.24,233.48,38Z"/><path class="cls-8" d="M234.26,66.25c2.57,0,5.14-.17,7.61.76.88,1.79-.19,2.22-1.65,2.26-1.74,0-3.48,0-5.21,0a1.71,1.71,0,0,1-.83-1.52C234.21,67.25,234.24,66.75,234.26,66.25Z"/><path class="cls-16" d="M236.56,30.38c2-.35,3.94.59,5.93.73.92.06,2.34-.29,2.2,1.25s-1.53.9-2.44,1a8.5,8.5,0,0,1-1.13,0H237.3v0A5.09,5.09,0,0,1,236.56,30.38Z"/><path class="cls-18" d="M233.48,38c-1.79,1.25-3.56-.47-5.34,0-.35-3.52,3.22-2.33,4.58-3.81h1.52C235.72,35.78,233.46,36.66,233.48,38Z"/><path class="cls-18" d="M242.65,81.52c.41-1.06,1.65-1.72,1.5-3.06,1.2,0,2.29.07,2.3,1.69,0,1,0,2.07-1.1,2.57C244.07,83.34,243.24,82.64,242.65,81.52Z"/><path class="cls-16" d="M275.43,38.38a2.41,2.41,0,0,1-2.84,1.08c-1.28-.33-3.5,1.42-3.56-.16-.08-2.46,2.51-.94,3.9-1.27A8.29,8.29,0,0,1,275.43,38.38Z"/><path class="cls-15" d="M257.16,87.62v-2.3h.76c1.41.1,3,1,2.6,2.12C260,89,258.37,88.54,257.16,87.62Z"/><path class="cls-18" d="M237.3,33.42h3.82c-.24,1,.63,2.65-1.07,2.66C238.64,36.1,237,35.56,237.3,33.42Z"/><path class="cls-18" d="M236.56,30.38a5.09,5.09,0,0,0,.73,3H235c1.23-1.89-1-2.06-1.52-3A1.84,1.84,0,0,1,236.56,30.38Z"/><path class="cls-16" d="M232.83,45.74c1-1.18,1.88-2,3.27-1.15a1,1,0,0,1,.18,1C235.31,46.82,234.22,46.5,232.83,45.74Z"/><path class="cls-18" d="M223.34,75.9c1.23,1.13,1.09,2.34.47,3.85C222.14,78.51,223.06,77.14,223.34,75.9Z"/><path class="cls-18" d="M226.56,39.51a4.86,4.86,0,0,1,.82,3c0,.26,0,.53,0,.79h-.74C225.78,42.08,223.62,40.84,226.56,39.51Z"/><path class="cls-18" d="M241.12,77.69c-.89-.54-.73-1.44-.8-2.27,1.15.17,2.46-.51,3.48.62C243.37,77.45,241.59,76.5,241.12,77.69Z"/><path class="cls-18" d="M223.32,68.61c1.35,1.25,1.07,2.24.46,3.5C222.44,71.16,222.7,70.12,223.32,68.61Z"/><path class="cls-18" d="M223.74,53c-.21-.09-.54-.13-.6-.29s.15-.41.24-.62c.21.09.54.14.6.29S223.83,52.76,223.74,53Z"/><path class="cls-18" d="M225.84,34.16l1.54,0c-.2.39-.35,1.07-.62,1.12C225.94,35.48,226,34.72,225.84,34.16Z"/><path class="cls-18" d="M223.34,61.18c.22.09.54.14.61.29s-.16.41-.25.62c-.21-.09-.54-.14-.6-.29S223.25,61.39,223.34,61.18Z"/><path class="cls-18" d="M223.34,57.39l.64.27c-.09.21-.14.55-.29.6s-.41-.14-.63-.23Z"/><path class="cls-11" d="M274,93c1.66,0,3.37-.31,5.71.62-2.31,1.26-4.06.7-5.7.84C274,94,274,93.49,274,93Z"/><path class="cls-16" d="M274,93c0,.49,0,1,0,1.46h-6.79l0-.45Z"/></g></g></svg>