<svg xmlns="http://www.w3.org/2000/svg" width="567.5065" height="411.2011" viewBox="0 0 567.5065 411.2011"><defs><style>.cls-1{fill:#172328;}.cls-2{fill:#353737;}.cls-3{fill:#1d1f1f;}.cls-4{fill:#cc9d4a;}.cls-5{fill:#ebbf9d;}.cls-6{fill:#848f88;}.cls-7{fill:#2e3147;}.cls-8{fill:#74452c;}.cls-9{fill:#a4714a;}.cls-10{fill:#a22d26;}.cls-11{fill:#262626;}</style></defs><g id="Layer_2" data-name="Layer 2"><g id="Layer_1-2" data-name="Layer 1"><path class="cls-1" d="M314.7107,343.453a141.6433,141.6433,0,0,0-10.2252,22.1276c-2.4866,7.0043-5.195,9.0115-12.79,7.1425a36.43,36.43,0,0,0-7.7466-.7225c.4231,2.2546,3.056,5.32-.4925,6.3853-3.9247,1.1777-8.1956,3.26-12.3231.6828-2.1922-1.3686-2.3746-3.6561-.5316-5.539a13.946,13.946,0,0,0,2.7363-4.61c.58-1.3729-.85-2.9271-1.3364-2.6357-3.3427,2.0033-4.4968-.7249-5.9819-2.5307-1.2677-1.5413-2.7548-.9276-4.1169-.6313-1.8592.4045-.788,1.8145-.6512,2.8285a20.3448,20.3448,0,0,1-.0568,3.921c-.3026,5.367-2.3,10.96,2.9932,15.5281,2.3132,1.9964,2.1713,5.6386,1.0564,8.4087s-4.1212,2.2335-6.5591,2.187c-4.0475-.0773-8.0056,1.1546-12.1559.2036-4.0709-.9328-6.7657-3.5577-4.7839-6.7833,4.6135-7.5088,2.1276-15.4924,2.7365-23.2478.2984-3.8009.1342-7.6364.3609-11.4454.1037-1.7426.0394-2.7443-2.1655-2.7646-10.9217-.1007-21.8085.1553-32.6155,1.9765-1.3607.2293-2.6766-.05-2.5371,2.0087.4914,7.25.55,14.5531,1.4968,21.7407.6375,4.84,4.5454,7.1093,9.1351,8.3184,5.3655,1.4136,10.764,2.7948,13.2761,8.7907,2.4353,5.8127,1.2962,9.1342-4.6479,11.2228-15.8658,5.5749-32.04,6.8268-48.4715,2.9162-3.6432-.8671-8.1594-2.1876-8.4743-6.2063-.3287-4.1941,2.4057-7.9407,6.5248-10.1443,3.2894-1.76,6.4333-3.789,9.6981-5.597,3.341-1.85,4.3108-5.0214,3.9674-8.318-.7059-6.7773-.458-13.5485-.4548-20.32.0015-3.0475-.7033-4.4394-4.1786-4.4427-11.9873-.0115-23.9482-.302-35.9425.7573-3.2169.2841-8.4459.976-9.5608-5.2232-.5373-2.9878-4.546-2.0622-6.4665-1.7992-7.5485,1.0336-14.7269,1.4309-20.9637-3.9859-1.1994-1.0417-2.4418-.3239-3.755-.0347-5.2913,1.1652-8.7688-1.2545-9.078-6.6457-.2219-3.8679-2.9839-8.4141,2.2036-11.3867.2151-.1233-.4555-1.9375-.8292-2.92-3.9321-10.3369-8.1407-20.5769-11.77-31.0184-4.17-11.9962-7.8565-24.1614-11.7014-36.2695-.9537-3.0032-2.3732-4.4886-6.006-4.2741-11.1722.66-21.8772-2.1557-32.0833-6.2755-3.8544-1.5558-3.4716-6.7312-3.9535-10.4-.47-3.574.7543-7.1372-.126-11.0353-.9365-4.1465,3.0438-6.6,6.4531-8.2973,5.4963-2.7364,11.4869-3.28,17.5507-3.1917A6.8311,6.8311,0,0,0,62.45,211.26c-5.7693-4.04-8.5757-9.8366-11.12-15.84-.636-1.5007-1.65-1.2857-3.2075-.6668-13.061,5.1911-23.9424.7864-30.26-11.9444A313.3053,313.3053,0,0,1,2.46,147.0986c-3.2809-9.3832-4.0682-19.4485,2.6274-27.6533,5.5671-6.822,14.0744-10.0993,22.1808-13.2658a47.8688,47.8688,0,0,1,12.7727-2.9513c2.7351-.2591,2.6151-1.1979,2.5837-3.252-.1376-8.9968-.1775-18.0371,2.4378-26.755,3.9944-13.3148,9.6927-25.4566,20.6755-34.9136C78.81,27.0515,92.81,17.7114,108.94,11.4286c9.5963-3.7376,19.5935-6.16,29.2244-9.8531,7.6718-2.9421,16.2925-1.0487,24.4716-.0383,10.922,1.3494,21.1847,5.9545,32.26,6.5763a6.5754,6.5754,0,0,1,4.3131,2.1009c6.3584,6.5236,14.8445,10.0561,21.8491,15.703a51.144,51.144,0,0,1,14.743,19.72c.8561,1.94,1.7148,3.96-.5217,5.5582-.55.3928-.6766.92-.4458,1.1731,3.4972,3.8419,3.9768,10.0144,9.799,12.8151-.1061-15.7379.7111-30.9642-.93-46.1605-.3348-3.1,1.8653-2.8561,3.9087-2.8427,9.7842.0644,19.5415-.5954,29.3113-.9927,22.5216-.9158,45.0717-1.1593,67.5881-2.1691,19.294-.8653,38.6135-1.1429,57.8849-2.1421C424.2252,9.7448,446.0694,9.4535,467.9,8.62a143.3749,143.3749,0,0,0,14.3793-1.0331c2.261-.315,3.1777,1.0031,3.1889,3.1749.0371,7.1907-.238,14.406.2643,21.5657.6737,9.6027.8573,19.2.7014,28.8041-.36,22.166,1.1932,44.2828,1.4717,66.4243.0808,6.4268-.307,12.8257.4268,19.2676.3677,3.2274-1.0431,5.19-5.1906,5.4351-15.3084.9052-30.6553.1561-45.92,1.0371-14.0123.8088-28.0215.1019-41.99,1-6.85.44-13.6835.7738-20.5382.7446-1.808-.0076-2.9085.5057-2.8084,2.5.5889,11.7269-.2307,23.44-.3609,35.16-.0281,2.5311.1556,3.51,3.4557,3.5457,16.117.1757,32.2393-.7944,48.3609.2431,2.8689.1846,6.7467-1.6,8.7032-.0906,9.1872,7.09,19.3176,2.103,28.914,3.1618,5.8.64,11.11-.8444,16.4479-2.63,3.2088-1.0734,6.1761-1.6259,8.9829,1.3675,1.8677,1.9919,4.8427.81,7.1215.6614,12.5007-.8169,25.0819.03,37.5232-1.807a3.98,3.98,0,0,1,3.1643,1.1663c6.5819,5.2028,13.3744,10.176,19.6,15.7781,3.25,2.9246,6.99,5.25,10.2384,8.2073,2.3083,2.1019,2.3368,3.6022,2.5395,5.8193.4858,5.3112-1.3852,10.7048.7629,15.994.6495,1.5994-.6819,1.9135-2.2525,2.2369-7.5657,1.5582-15.1746.2706-22.752.6157-6.6335.3021-13.2894.1578-19.9349.12-1.6191-.0093-2.9274-.1683-2.9724,2.1153-.19,9.65-.5267,19.2965-.7279,28.9462-.1188,5.6977-.0988,11.3985-.116,17.098-.0567,18.8913-.0311,37.7832-.185,56.6736-.0659,8.0923-.5384,16.1806-.7292,24.273a5.5663,5.5663,0,0,0,2.1867,4.7534c3.0495,2.4676,3.44,6.0873,2.4049,9.4674-1.0822,3.5338-4.5494,2.3912-7.23,2.5689-3.8768.2571-7.7092.93-11.6459.177-4.0275-.77-6.7248-3.6987-4.6853-6.8185,4.3661-6.6786,2.6216-13.85,2.7661-20.7688.7264-34.81,1.1315-69.6274,1.5383-104.4435.0488-4.1748-1.2759-8.3666.288-12.4876-6.4823-2.9239-13.0558.0266-19.5339-.5806-2.747-.2575-2.1289,1.9426-2.1408,3.4829-.0757,9.8057.0612,19.616-.1865,29.4169-.6607,26.1411-.2353,52.3141-2.2985,78.4189-.2095,2.6511-.9341,5.7732,2.7146,7.5668,1.0935.5375,1.9714,3.1274,1.3939,4.8678-.6379,1.9227-2.433,2.2937-4.4614,2.29-2.1188-.0035-4.23.7363-6.36.8362-3.6208.17-6.1736-2.5541-4.8035-5.7863,1.8787-4.4321,1.7316-8.9093,1.7528-13.4385q.189-40.414.2683-80.8286c.0146-6.6485.0692-13.3056-.2308-19.9435-.2957-6.5423-1.1986-7.121-7.5843-6.9242-12.2012.3759-24.4067,1.0043-36.6072.9365-27.8522-.1545-55.6887.8891-83.523,1.3777-17.8522.3133-35.7392.0555-53.5969.9-2.665.1261-2.456.7264-2.8058,2.829-1.4407,8.6581,1.4378,17.3436-.429,25.9644-.2426,1.12.8315,1.4963,1.7228,2.0173a35.2319,35.2319,0,0,1,10.9951,9.3072c1.8984,2.5552,5.7589,3.1124,8.6609,4.1587a54.7955,54.7955,0,0,1,15.0152,8.3219c3.8471,2.9692,6.0581.9241,8.2177-1.8827a78.05,78.05,0,0,0,4.6992-6.8676c5.6218-9.192,15.1767-10.8728,26.38-4.25,6.2259,3.68,9.8189,13.6449,4.4976,21.6191-2.0759,3.1106-3.4023,6.7518-5.6511,9.71-3.8754,5.0975-3.5155,11.4787-5.8012,17.0263-.7494,1.8187-1.0573,3.8556-3.545,4.1049-1.5555-3.9844,2.4136-6.7569,2.2894-10.4236-.2036-6.0117,2.9092-10.6438,6.01-15.4226a52.3606,52.3606,0,0,0,4.87-10.3017c2.0685-5.5689-2.0455-9.1546-4.7332-13.1467l.0067.0073c-6.3138-4.1447-15.9577-4.4947-19.2682.1842a160.3228,160.3228,0,0,1-13.566,16.84c-3.4431,3.6966-4.9562,8.45-5.4882,13.9429C319.5639,331.2511,316.6325,337.3031,314.7107,343.453ZM301.41,223.0094c-1.8174-6.0375.4393-11.815,1.2443-18.6666-23.2.5479-46.0346-1.3032-68.3689-12.0647,1.7626,2.8152,2.4716,4.7638,3.8395,5.9571,2.5962,2.2648,3.2794,6.6686,7.6215,6.9589,9.1871.6143,18.4326.7607,27.5493,1.9224,11.3889,1.4512,12.235-1.7116,15.5045,13.8182a5.6338,5.6338,0,0,0,.3695.9236c.7579,7.5908.7571,7.5772,7.8229,7.1247,1.1462-.0733,2.3107.1225,3.4548.0361,1.3936-.1051,3.2345.63,3.9452-1.1473.6063-1.5168-1.0949-2.2266-1.8079-3.2728C302.214,224.055,301.8029,223.5384,301.41,223.0094ZM141.5489,306.0472c1.4342-.1094,2.01-.9937,2.0948-2.3206,2.882,1.3444,4.6816,4.0242,7.1662,5.8308,4.443,3.2305,8.5881,7.3579,14.3367,6.4481.66-3.8825-4.3967-6.2535-1.3882-10.5532,6.7673-9.6716,16.2524-16.0657,26.8548-20.0486,9.9846-3.7508,20.3332-6.372,29.6579-11.89,3.0011-1.7757,6.2746-3.79,10.1395-3.6071-5.5995,5.4384-13.14,7.4625-19.8062,10.9553-9.3276,4.8869-20.1086,6.3852-29.3213,11.77-7.624,4.4559-13.4977,10.0617-13.7112,19.6294-.0277,1.2433-.4061,2.62,1.07,3.5609,6.5155,4.1534,12.5917,9.03,20.66,10.2107,6.3528.93,12.6118,2.4917,18.9268,3.6984.7543.1442,2.5438.8408,2.2016-.5438-.9038-3.6564,1.69-2.3608,2.5764-1.7268,3.6652,2.62,8.6277,3.7086,10.5114,8.5195l-.9359.763c-3.0176-4.1148-7.6048-2.0216-11.395-2.6015a209.1285,209.1285,0,0,1-31.7954-7.2975c-8.7007-2.7624-17.154-6.7959-26.7295-5.9449-1.5811.1406-4.6843,1.5723-4.7725-1.505-.0657-2.2908,2.6963-2.3614,4.7085-2.428a5.4868,5.4868,0,0,0,1.2349-.3522c-6.3254-7.07-13.73-5.0045-20.6155-2.152-3.06,1.2676-7.4291,4.2516-6.9437,7.7007.5558,3.9494,1.2176,8.5513,4.2732,11.9164.2244,1.9342,1.5954,3.0466,2.7466,4.4755,2.7594,3.4251,8.11,3.597,9.8661,7.8982,1.351,3.3082,3.6834,3.5453,6.7231,3.591,11.7683.1771,23.457-1.4569,35.2451-1.1492,12.7406.3325,25.5433.7337,38.2114-1.0363,4.2007-.5869,8.5691-.4884,13.3077-1.3665-2.4767-3.0057-6.223-3.1152-7.0935-6.44a5.1906,5.1906,0,0,1,1.4911.02c11.2879,3.5661,19.1635,12.5791,29.0666,18.38,1.32.7732,2.4112,1.8622,3.8663,1.4235,1.7375-.524.7136-2.1541.8814-3.3374.8021-5.6579.9638-11.3953,5.42-16.0141,3.4634-3.5895,5.3549-8.3288,7.0082-13.0728.7788-2.2348-.0116-3.109-1.7829-4.679-3.7571-3.33-8.3217-5.3241-12.1646-8.4383-13.6438-11.0567-27.849-21.2513-43.9975-28.4681-2.021-.9032-6.1931-.9459-4.9535-4.1033.8465-2.1563,4.1842.1413,6.2408.8463,14.0072,4.8022,24.788,14.8681,36.8059,22.8989,6.4524,4.3118,12.1526,9.6837,18.8187,13.7555,2.4615,1.5035,3.521,1.5519,5.1154-1.3037,2.122-3.8,3.6548-8.1728,8.0371-10.4646,8.5529-4.473,20.0144-2.4845,28.18,5.1043.8055.7487,1.43,3.6344,3.0548.86,1.0576-1.8053,3.536-4.4125.3591-5.9252-3.9735-1.892-6.8317-5.5931-10.8062-6.94-11.797-3.9962-20.6963-12.6461-30.818-19.1635-7.1688-4.616-13.8073-10.0665-21.6549-13.739a12.402,12.402,0,0,0-7.5453-1.1879c-6.64.9179-12.935,3.8213-19.7853,3.3954.6913-1.3354,2.1729-1.2739,3.2465-1.9016,5.1318-3,11.2944-1.7763,16.51-4.2283a30.5522,30.5522,0,0,1,18.2333-2.3012c-1.548-5.6729-3.3436-11.0806-5.3089-16.456-4.58-12.5273-12.1949-23.28-19.41-34.2918-6.9281-10.574-14.9032-20.1156-24.8964-28.0367-4.4456-3.5239-8.8557-7.619-10.9574-13.1172-1.1045-2.8895-2.24-2.4287-4.3811-1.6726-8.2331,2.9064-16.7415,4.7074-25.2992,6.4314-5.5942,1.127-11.3234.63-18.2405,1.8675,2.7322.7095,4.21.8218,5.42,1.45,9.8613,5.123,18.621,22.0062,17.24,33.0373-.6195,4.949-8.5588,11.78-12.6726,10.1686-4.9183-1.9265-8.4981-.5478-11.8087,2.74-2.3263,2.31-4.89,1.4707-6.7961.1461-1.9585-1.3611-.0867-3.1952.7438-4.767,2.9221-5.53,1.8573-8.3707-3.9271-10.5972-3.4751-1.3375-3.09,3.3711-5.6709,3.6738-1.0232.12-.2934.7507.1637,1.2186,6.6965,6.8537,7.0051,15.4743,7.0379,24.3411.0361,9.7252-3.6337,10.6643-11.2836,11.276-8.8382.7067-17.72.8694-26.5829,1.2684H99.0784c8.2673,22.6351,16.0308,44.9823,24.9421,66.8489,6.1559-6.4214,6.1469-6.454,15.2525-8.9667C140.4706,307.7007,141.584,307.6329,141.5489,306.0472Zm-5.2456-112.9978c-.9208,4.5917-.1686,7.7937,5.6465,7.0188,1.5088-.201,2.3046,1.1008,3.2237,2.02,2.3433,2.3442,4.8246,4.5749,8.08,5.4514,1.9809.5334,2.26,1.8986,2.8366,3.4693,1.5782,4.3-1.5067,7.6706-2.5539,12.3607,3.1155-2.9468,5.2485-5.4,5.933-8.7941.3366-1.6689,1.0759-3.0025,2.916-2.5587,2.2566.5443.6015,2.0907.4945,3.2074-.0615.6408-.3439,1.2864.4927,1.7087,3.9673-.3186,4.2211-3.4854,4.7494-6.4035.1608-.8883-.42-2.2716,1.0187-2.2952,1.2607-.0206,1.3523,1.2006,1.2691,2.2519a15.69,15.69,0,0,1-.2655,2.92c-.3469,1.2532-1.0325,2.7488.3345,3.4435,1.6571.8419,2.6273-.734,3.6264-1.8576,2.7437-3.0853.98-6.7014.85-10.5106,3.4747,1.603,3.0392,4.8136,4.229,7.3824,1.6028-13.5592-8.1178-28.3632-20.8217-32.1582-2.6762-.7995-5.851-1.0946-7.8436-2.7608-3.536-2.9569-5.7627-1.6483-8.1785,1.0521l-.9085-1.1676c.3669-.7338.6773-1.5033,1.1129-2.1938.8447-1.3389,3.5677-1.924,2.7951-3.6181-.7939-1.7409-3.2359-1.9348-5.25-1.9547-.9984-.01-1.997-.0046-2.9956-.0057-10.6193-.0124-21.256.349-31.8527-.1471a52.4614,52.4614,0,0,0-27.216,5.632,18.5535,18.5535,0,0,1-11.8414,2.3506c14.2294-6.1185,26.7088-14.098,42.2281-11.5591-6.425-4.2767-12.6232-6.3975-20.4115-2.8827-8.327,3.758-17.879,4.0507-26.3592,7.71-7.1072,3.067-11.8575,9.9322-9.8263,16.9848,4.4275,15.3732,9.2556,23.0973,26.0489,22.92,18.2038-.192,36.4136-.3566,54.6047.6854,2.9626.9623,5.43-.1079,7.9-1.6891,1.78-1.14,3.5534-2.6248,2.9625-4.5864-.758-2.5167-3.2476-1.4154-5.1567-1.2926-.2475,1.6949,2.5646,2.7676,1.0334,4.3859-1.26,1.3316-2.7655-.16-4.1614-.435a10.85,10.85,0,0,0-1.4884-.0928c-1.5877-4.6939-1.0681-9.3432.2954-13.9748Zm2.0729-128.1467c-9.2339,2.6032-17.9737,6.9994-27.8487,7.2971-3.9406.1188-6.045,2.9894-8.0042,6.2049a216.9375,216.9375,0,0,0-13.339,24.7779c-2.9354,6.6185-6.3233,13.1478-7.6255,20.3388,1.65.931,2.5267-.2962,3.3558-.8011,11.621-7.0763,23.028-14.5187,34.8224-21.2877,4.2988-2.4672,7.8636-4.7395,8.7865-9.9657.2671-1.5127,1.5185-2.8714,2.3932-4.2535,3.3636-5.3143,8.1521-9.2075,13.6369-13.02-3.3961-.1763-6.6154-.1-7.8287-3.1365a4.1131,4.1131,0,0,1,2.4022-5.3462c3.026-1.1084,5.5629-3.46,8.9512-3.6184,1.4208-.0667,1.6879-.795,1.367-1.927-.4591-1.6193-1.3089-.8262-2.2-.3488C144.24,61.4273,141.0377,62.6912,138.3762,64.9027ZM57.6169,134.0241l.1751,1.2487.5526-.25-.7992-.942a75.872,75.872,0,0,1-2.1115-12.1161c-.8535-7.2644-.8556-14.59-4.3949-21.5813a23.1467,23.1467,0,0,1-.66-19.9888c1.6191,3.3348,1.1529,5.8,1.2651,8.1615,1.9024-6.9632,1.6681-14.4224,5.9952-20.9824,1.41,1.7448.7666,2.76.4886,3.89-1.9267,7.8378-3.9327,15.7055-3.0108,23.8741.9449,8.3733,2.6384,16.69,3.1041,25.0813.4458,8.0326,3.5007,14.5259,8.2512,20.7758,2.9333,3.8589,4.7915,8.5349,7.1324,12.8442-2.912.1524-3.7762-2.1663-5-4.0954-3.2934-5.1906-5.6862-10.7781-12.8958-12.6281-4.7334-1.2146-8.22-5.3867-8.2284-11.2248a41.9754,41.9754,0,0,0-.8475-7.3752c-2.2155-12.1965-4.7681-13.6207-16.4429-9.3139C17.302,114.157,10.8774,123.1511,14.1,134.3813c4.2808,14.92,9.4948,29.62,17.3579,43.1548a14.7008,14.7008,0,0,0,14.8167,6.9381c1.251-.1859,1.1489-.8281,1.2805-1.5806,1.7184-9.8257,8.4724-14.59,17.1632-17.9761,4.9447-1.9265,10.548-1.373,15.0826-4.0383-1.6175-3.0416-5.9056-3.0266-6.2176-6.861,3.4694-.3975,5.4907,3.57,9.02,2.992l.3631.49c-.0155-.0975.0028-.2421-.0535-.2824a1.3717,1.3717,0,0,0-.3879-.1343c-7.55-11.8379-8.5639-24.41-3.5761-37.34,7.98-20.687,17.728-40.1135,32.6256-57.2115,14.4655-16.6022,32.5695-23.87,53.1194-27.3632,10.8252-1.84,21.648-3.1857,32.7842-2.3941,12.645.8987,24.0374,4.0942,33.5156,12.8077.3861.3525.484,1.4231,1.219.8647.5215-.3962.1565-1.1671-.3742-1.6325-3.2152-6.2063-6.8885-12.002-12.5459-16.4059-7.3147-5.694-16.0279-9.37-22.7394-15.93a5.7076,5.7076,0,0,0-3.1769-1.2822c-9.8522-1.13-19.1818-4.5443-28.8418-6.5378-10.2695-2.1193-20.1684-2.3063-30.186,1.4013-14.1836,5.25-29.3192,7.8994-42.1815,16.6892-8.27,5.6515-17.5292,10.0448-24.7,17.0823-19.1494,18.7929-24.2412,42.1525-21.063,68.0362.8265,6.7313,3.8215,12.868,4.6476,19.6482C51.3532,129.995,52.7442,134.609,57.6169,134.0241Zm424.59-103.0405.25-.0081c0-4.1648.156-8.3375-.0533-12.4917-.1463-2.9011,1.3122-6.27-1.0908-8.6114-2.2441-2.1869-3.98,1.3917-6.3451,1.2918-11.92-.5034-23.6644,2.0892-35.6033,2.0462-14.2167-.0512-28.424,1.2868-42.6211,1.6544-13.95.3611-27.8787,1.3942-41.8517,1.3467-9.6126-.0327-19.23.7557-28.8583,1.0241-22.2822.6212-44.5415,2.0239-66.8208,2.8042-10.7659.3771-10.7368.065-10.7028,10.7857.0424,13.3273-.1934,26.6592.094,39.98.15,6.9291.8124,13.9085,3.94,20.3333a103.103,103.103,0,0,1,6.1928,16.2845,28.9873,28.9873,0,0,1-4.0729,25.5092c-4.3644,6.0851-4.5871,11.9642-4.15,18.568.1564,2.3626,1.594,2.6776,3.4034,2.54,10.3768-.7918,20.8241.8555,31.11-.1688,15.8534-1.5787,31.7415-.8435,47.5941-1.4739,20.41-.8116,40.87-2.0625,61.3376-1.3466a13.6108,13.6108,0,0,0,2.4961-.0475c16.1737-2.4488,32.51.29,48.7051-1.5584,11.3695-1.2976,22.8557.7123,34.23-1.2844,6.3321-1.1115,6.9923-1.3775,5.978-7.9677-1.74-11.3045-.9117-22.718-1.7525-34.0658-.5485-7.4027.26-14.953.2789-22.3913C483.9387,66.1534,482.8423,48.5679,482.2068,30.9836Zm-240.51,38.0952c-3.1509,1.7289-6.1377,1.5963-4.2216,6.7788,1.4748,3.9889,2.9172,9.2628,1.3909,14.1759-2.582,8.3115-9.081,19.0378-24.7131,18.8572-9.0972-.1051-20.6348-5.837-21.4514-15.77-.2519-3.0642-1.9038-2.2027-3.3393-1.1274a18.6324,18.6324,0,0,0-6.8478,9.9733c-2.4581,8.371-6.2259,15.6036-14.6019,19.9753-5.4277,2.8329-10.8312,3.04-16.6409,3.3451-10.6008.5562-20.189-5.2709-23.7537-15.4826-.6727-1.9271-1.12-2.7649-3.7579-1.7165-13.7224,5.4546-26.1729,13.24-38.8539,20.599-6.5549,3.8039-6.8628,5.0275-4.9819,12.5631.2771,1.11.3348,2.2872.7061,3.36,1.46,4.2177,3.0539,8.5,6.0847,11.77,2.1347,2.3035,4.963-.5591,7.5218-.2751a10.833,10.833,0,0,1,1.9743.2346c5.801,1.7832,11.9432,2.9114,16.8868,6.63,4.8783,3.67,9.9667,3.2925,15.5311,2.5015,7.0677-1.0047,15.0681-1.7162,20.3157,3.3661,3.9827,3.8573,7.6752,4.38,12.2154,4.2074,9.3634-.3551,18.2968-3.2339,27.3845-5.1066,22.1206-4.5583,42.8-12.0617,58.6132-29.4722,6.9444-7.6461,10.4877-16.1572,8.8108-26.3316C253.5066,97.1994,245.0837,84.243,241.6963,69.0788Zm27.1249,87.9889h-14.48c-.3329,0-.6658.0032-.9987,0-7.295-.0773-7.8538-.7577-6.7-8.0651.21-1.3273,1.8947-2.944-.114-3.9143-1.733-.8371-2.4444,1.2175-3.5514,2.0718-9.5284,7.3532-19.0285,14.7756-31.1543,17.4616-2.682.5941-2.5113,1.7666-1.3854,3.736a40.9053,40.9053,0,0,0,19.056,17.68c16.1509,7.2517,32.672,13.189,50.5751,14.064,3.7048.1811,9.0314,1.2481,10.7937-.6745,2.8242-3.0811,5.4821-2.9659,8.6214-2.925,4.2578.0556,8.5133.5041,12.7686.4866q19.1121-.0785,38.2212-.4744c1.372-.03,4.1494.7727,3.76-2.3385-1.1287-9.01-.6-18.0562-.8023-27.0867-.0794-3.5393.648-7.7981-1.0295-10.4318-2.3765-3.7312-6.8836-.4686-10.4524-.5477C317.5646,155.57,293.2008,156.958,268.8212,157.0677Zm-4.9847,80.54a15.7047,15.7047,0,0,1,1.4127,2.9124c1.21,5.1271,4.1284,6.8366,9.5662,6.6561,16.0544-.5331,32.1212-.4264,48.1915-.9819,23.3124-.8058,46.6574-.0751,69.9951-.95,20.3181-.7613,40.6791-.301,61.017-.6325,23.77-.3876,47.5344-1.0861,71.3029-1.5736,10.6053-.2175,21.2155-.1945,31.82-.4223,1.645-.0353,4.2454.1636,4.1617-2.409-.1368-4.2031,1.0729-8.2318,1.0979-12.3795.0078-1.2877.2107-2.5423-2.11-2.2291-10.0536,1.357-20.1968.3022-30.3383,1.1864-14.4228,1.2576-28.9892,1.275-43.4872,1.1281-10.6838-.1083-21.3162.8937-32.0271.504-9.2158-.3353-18.511,1.6929-27.7381,1.4453-12.4049-.333-24.7673.6274-37.1495.6807-13.0309.0559-26.1666.9733-39.2232,1.2446-16.2781.3382-32.5317,1.4827-48.8281,1.4811-4.6265,0-10.3882-1.7134-14.0207,3.5477-.2684.3888-1.26.2642-1.9088.4066C278.5205,238.77,271.4461,237.9785,263.8365,237.608Zm-118.2926-2.9192c0-1.499.1087-3.0074-.02-4.4954a25.1762,25.1762,0,0,0-5.5053-14.15c-2.7344-3.3349-6.4179-.7552-9.5829-1.3552-8.2189-1.5582-16.5453-.7433-24.7846-.9578-11.9074-.31-23.8682,1.4015-35.7213-1.0719-.8275-.1726-1.5717-.471-2.3694.0132-5.1962,3.1546-10.9479,3.38-16.8119,3.4157-4.9513.03-12.4726,4.5086-11.8788,7.3694,1.0256,4.9411.0092,9.95,1.29,14.8079.76,2.8817,2.1745,4.6132,5.3646,4.9687a47.9552,47.9552,0,0,1,8.7037,1.8659c10.948,3.3614,22.0611,2.7214,33.1746,1.45,10.4056-1.1906,20.8642-.2892,31.31-1.2533,7.64-.7053,15.4381-.0451,23.1057-1.3106,2.4558-.4054,3.9535-1.5351,3.7468-4.301C145.4419,238.0276,145.5429,236.3544,145.5439,234.6888ZM319.2967,227.88a23.9193,23.9193,0,0,0,3.4321.3076c16.6633-.84,33.3516-.7981,50.0185-1.8937,12.405-.8155,24.9034-.0878,37.351-.4084,17.1486-.4417,34.2871-1.2669,51.4329-1.8385,6.7609-.2253,13.5339-.0937,20.2943-.3289,13.8528-.482,27.6992-1.4778,41.5514-1.5386,9.9279-.0436,19.8525-1.2439,29.79-.2422.91.0918,2.2172.4478,2.7143-.6214.6976-1.5005-.8417-1.8387-1.6909-2.5322-4.7377-3.8688-9.6493-7.5536-14.1255-11.7065-5.7558-5.34-12.0578-8.52-20.096-7.0089-9.15,1.72-18.47.4535-27.6634,1.5859-2.5427.3132-2.8272,1.1277-1.5273,3.0629,1.39,2.07,2.5468,4.0645,2.06,6.8612-1.2321,7.0816-8.7466,11.7651-16.5037,9.93-8.2762-1.9575-14.5088-6.615-8.3582-15.66,1.4791-2.1749-.0368-2.9141-2.1266-2.9-6.11.0419-12.2227-.0332-18.33.12-12.1824.3046-12.1821.3547-13.0217,12.6782-.0225.33.0533.6654.0421.9969-.0469,1.376-.5005,1.8614-2.1277,1.859-6.2748-.01-12.55.2855-18.8251.4472-12.3661.3186-24.7365.9685-37.0977.8284-10.3723-.1176-20.7573-2.0936-30.9011,1.9058a13.5642,13.5642,0,0,1-7.276.9767c-3.7119-.7746-7.387-3.3731-9.2288,2.5136-.1713.5475-1.7723.615-2.6844.97C324.0909,227.1427,321.5953,226.7765,319.2967,227.88ZM124.672,343.9885c1.8705-.4312,6.469.7332,3.7262-3.84-2.5542-4.2589-3.3947-8.8935-5.0885-13.3308-8.5-22.2682-17.714-44.257-24.5148-67.164-3.2112-10.8165-4.5827-11.0105-15.9884-8.7939-3.1369.61-3.4705,1.4195-2.3052,4.1545,2.5969,6.095,5.45,12.1589,7.2376,18.506,5.5751,19.7921,13.6386,38.6617,20.8175,57.8587C111.2469,338.5732,118.1087,343.9191,124.672,343.9885ZM182.1885,86.98c2.7343-1.3753,4.3937-4.4181,7.92-3.9782,1.7462.2179,1.3721-1.4683,1.5837-2.5093,3.0807-15.1579,22.99-23.4237,36.15-15.722,5.0521,2.9566,5.106,2.8644,10.43-.5506-1.55-2.7166-3.0776-5.4512-4.66-8.1535-4.4987-7.6834-9.1376-15.2081-18.9941-16.8919-1.7061-.2915-2.8974-.5166-4.6892.8828-9.5924,7.4911-18.8025,15.6118-30.408,20.1281-3.8914,1.5144-6.9378,2.1864-6.9682-3.4786-.01-1.7664-1.204-2.16-2.1861-1.5229-4.5311,2.94-10.2482,3.0161-15.0513,6.1588,2.1578,1.59,4.9248,2.2871,4.2566,5.6153-.622,3.0982-4.2506,2.6051-5.4918,4.956,5.2728,2.2,11.2821-.4,16.4111,2.812A34.5447,34.5447,0,0,1,182.1885,86.98ZM183.2451,35.26c-13.0278,2.2743-26.5368,3.7467-39.7053,8.3295-12.2365,4.2586-21.2245,11.8723-29.7369,20.7876-.6936.7264-1.445,1.5444-.9535,2.6253.6284,1.3819,1.6652.4137,2.5577.2889,12.5191-1.75,23.9544-6.065,33.7181-14.2954,1.4592-1.23,3.7227-2.9412,4.0091-.0083.58,5.9424,3.7182,3.51,6.4135,2.5618a98.2464,98.2464,0,0,0,11.52-4.5831c3.0866-1.5483,5.0363-.04,5.18,2.3216.3032,4.9945,2.9,3.1746,5.2441,2.2859,9.438-3.5774,16.7746-10.58,25.3076-15.6383,1.0523-.6239,1.9274-1.451,1.3841-2.8234-.466-1.1768-1.6383-.8336-2.5794-1.0213C198.3411,34.6423,190.9568,36.122,183.2451,35.26ZM515.4477,264.2573c0-3.9985-.2211-8.0127.0635-11.9909.2728-3.8127-1.6031-4.3024-4.7785-4.3334-3.2093-.0313-4.4254.9225-4.3446,4.2634.1959,8.1.1911,16.2111.0355,24.3132-.3033,15.7975-.16,31.61-.2211,47.3968-.0324,8.3189-.84,16.7051-.1043,25.17.7726,8.8909-.8214,18.0336-.6395,27.0917.0636,3.1658.15,6.2248-2.0014,8.9923-1.6063,2.0661-.8991,3.1057,1.809,4.1056,3.5186,1.2993,6.5474-.3775,9.796-.3194,1.2766.0229,2.8189.3006,3.2355-1.5174a3.0766,3.0766,0,0,0-1.4839-3.4561c-2.5632-1.4855-3.1268-4.0762-2.92-6.412.3742-4.2207.3343-8.4731.4026-12.6541C514.8454,331.36,513.6069,297.7931,515.4477,264.2573ZM134.587,101.6531c-.6155,10.9345,3.31,13.323,8.9791,14.7817a32.03,32.03,0,0,0,23.8559-2.6173c11.5212-6.2279,9.2609-22.7067,1.3929-29.4007-7.4923-6.3744-15.55-5.5778-22.8227-1.4407C139.1442,86.8717,133.4866,92.8658,134.587,101.6531ZM294.7222,368.9708c3.3064.878,4.6161-1.1368,5.8729-4.3984,2.6115-6.7767,5.87-13.3023,8.7992-19.9589a118.9723,118.9723,0,0,0,7.0879-21.1758c1.2414-5.3823-1.9231-9.7782-6.4429-9.3917-6.7911.5806-12.063,3.5979-14.481,10.3176-4.2588,11.8351-4.4295,24.6385-8.8048,36.5295C284.856,366.05,288.2505,368.95,294.7222,368.9708ZM200.24,403.0458c7.4741-.6087,14.0687-2.8361,20.7589-4.5249,1.86-.47,5.0294-.7042,5.2-3.0411.2114-2.9-3.0212-2.9458-5.0942-3.7833-1.6827-.68-3.4939-1.1776-5.0768-1.9108-4.995-2.3136-9.1938-5.2627-10.7231-11.3869-1.7626-7.058-1.8413-14.099-1.7406-21.2112.0468-3.3093-2.0141-3.4657-4.2677-3.1546-2.1171.2922-5.6133-1.5834-5.6917,2.6406-.1264,6.8057-.29,13.647.2552,20.4174.4375,5.4318-.4653,9.715-5.4576,12.6252-3.2881,1.9167-6.4175,4.105-9.6328,6.1483-.83.5276-1.9285.8943-1.7484,2.1159.1722,1.1682,1.3314,1.5367,2.233,1.6893C186.4058,400.88,193.575,401.9866,200.24,403.0458ZM342.6289,205.7417c-3.1462-1.6215-.8182-6.357-4.9214-5.644-6.8868,1.1968-14.3653-2.9746-20.8084,2.29-.1675.1369-.98-.15-1.138-.4356-.4736-.8535-.6918-2.0635-2.051-1.3386-1.1925.636-.3046,1.7984-.4689,2.7046-.2525,1.392.4233,1.6871,1.6475,1.7306,11.7076.4162,23.0777,4,34.814,3.926,10.717-.0678,21.4322-.5779,32.1461-.9535,8.4565-.2964,16.9087.3355,25.3929-.4384,3.4774-.3172,7.7022-2.5253,9.645-1.7331,5.5123,2.2479,8.4762,1.9769,9.7607-4.68.5794,1.7662.61,3.0759.9976,4.2693.6708,2.0627,2.3765,2.1123,3.3316.6362,1.08-1.6687.8509-3.9676.1787-5.8031-.6962-1.9011-2.4339-.979-3.8772-.6873a42.96,42.96,0,0,1-14.8842.2351c-4.5239-.691-8.5548,1.1681-13.1676.7791-7.5359-.6355-15.913-3.45-23.2423,1.75a.6355.6355,0,0,1-1.0846-.4346c-.2283-3.2544-2.722-1.7715-4.1479-1.8-7.5926-.1524-15.1949.0935-22.7833-.14C344.1133,199.8564,340.9044,199.7516,342.6289,205.7417ZM216.0665,101.3076c10.4432-.1948,17.6111-7.4051,17.4564-17.51-.1483-9.6838-6.5337-15.0224-17.5852-14.7538-9.42.2289-15.221,8.053-15.6562,19.3143C199.97,96.4148,205.8113,102.3684,216.0665,101.3076ZM305.92,311.2336c-8.2988-4.7331-15.5035-2.6423-19.3589,4.5651-4.8938,9.1486-7.5084,19.5044-14.3054,27.6228-3.945,4.7119-3.9738,10.102-3.7844,15.7264.0814,2.418,1.1892,4.0683,3.2828,4.3111,3.8073.4414,7.0963,2.4882,10.9419,3.2043.0927-2.292-.6387-4.4388.2674-6.4966,3.6871-8.3733,5.29-17.2191,6.7215-26.222C291.2262,324.2549,293.651,314.55,305.92,311.2336Zm-59.4308-101.916c5.6955,8.1227,10.8734,15.7439,14.9722,24.0165a2.2579,2.2579,0,0,0,2.4706,1.3387c5.922-1.3109,11.9171-.3965,17.8737-.614,2.4561-.09,3.5662-1.1336,3.7209-3.6192a35.6336,35.6336,0,0,0-2.6216-15.5491,5.7,5.7,0,0,0-5.6881-3.9172C267.3326,210.5891,257.4586,209.9316,246.4894,209.3176Zm231.8331,43.6529c.176-4.3892-1.372-6.0929-4.3285-4.7619-2.7424,1.2346-1.7987,3.9756-1.3717,5.7128,1.4055,5.717.4284,11.5944.2241,17.1154-.3992,10.7862.0262,21.5637-.2445,32.336-.4973,19.8-.1319,39.6219-.1588,59.4345-.0024,1.7956.4943,3.7426-.765,5.3184-1.6848,2.1082-.3872,3.1757,1.4209,3.49,2.3309.4058,4.8775,1.2653,6.9884-.715.1963-.1843.0736-1.0592-.1911-1.3316-4.4033-4.531-2.6016-10.5143-3.1981-15.7182-1.0648-9.2905.57-18.7143.6772-28.0782C477.653,301.5045,477.2619,277.2278,478.3225,252.9705ZM12.1452,119.0114c-7.5017,5.3739-9.9854,19.2593-5.7418,28.6139,5.1158,11.2774,10.1379,22.5973,15.2293,33.8858,4.4921,9.96,18.9812,15.6077,27.0882,6.9912-15.7045,1.6058-21.7593-8.4672-26.32-20.4007-1.2377-3.2385-2.6519-6.4095-3.9012-9.6438C13.653,145.91,7.26,133.6318,12.1452,119.0114Zm356.3441,47.875a39.6094,39.6094,0,0,1,.0409-5.4911c.69-4.8858-.8708-6.66-6.1722-6.5455-4.9266.1067-6.1545,1.6063-5.9719,6.2983.3571,9.1773.1439,18.3785.08,27.5692-.0171,2.4727-1.38,5.6531-.2857,7.2459,1.5861,2.31,4.7854-.7568,7.3343.0563a9.7309,9.7309,0,0,0,1.4914.03c3.4974.4934,4.88-.9756,4.5041-4.4876A225.8268,225.8268,0,0,1,368.4893,166.8864Zm-55.7007,44.9351c11.1137,4.9875,21.8867,8.2315,34.4325,5.7757-6.8657-5.0285-13.3755-7.5946-21.067-7.6888-5.6612-.0692-11.6193-.0173-16.682-3.3568-2.3331-1.539-3.2242.1526-3.48,1.6265-.9525,5.4887-2.2354,11.0208.0423,16.55.6332,1.5372,1.2327,2.6741,3.1792,2.28,5.8627-1.188,11.049-4.6313,17.3289-4.6645C322.08,218.6385,314.96,219.3816,312.7886,211.8215Zm36.6128,1.4619c2.25,6.0139,7.8748,4.1656,11.6461,4.1179,15.425-.1949,30.8263-1.6909,46.2823-1.3691,5.5948.1164,11.0945-1.8954,16.7854-.5068,1.6541.4037,3.5852-.3679,5.3945-.5476,1.5-.149,1.9121-1.0948,1.9159-2.4037.0038-1.2876-.3448-2.3718-1.8446-2.455a28.0584,28.0584,0,0,0-4.4913.01c-17.4481,1.8506-34.9976.6714-52.469,1.79C364.8923,212.4136,357.0478,211.059,349.4014,213.2834ZM248.52,356.1661c0,5.926.1069,11.3161-.03,16.7-.136,5.3447,1.1643,10.8975-2.29,15.8243-.9524,1.3582-.7743,2.4968,1.2843,3.3559,4.3736,1.8254,8.5086-.0627,12.6993-.3985,1.9091-.1529,1.7269-2.61.6169-3.5855-5.7845-5.0837-4.0273-11.5391-3.2955-17.6658C258.6285,360.99,257.3529,358.4662,248.52,356.1661ZM489.4269,212.3806c.239-2.2172.0291-4.1753-2.6265-5.1315-4.715-1.6978-13.8644.1852-17.1963,3.8132-1.757,1.9132-1.7442,3.3645.7276,5.1461,5.7563,4.149,11.3728,1.8892,17.06.288C489.3766,215.9375,489.6052,214.2318,489.4269,212.3806ZM269.3751,251.6119c2.8417,5.07,2.79,10.6177,2.6546,15.4775-.1022,3.6616.5766,4.97,3.4785,6.8727,0-5.8588-.6164-11.2441.173-16.4149C276.4737,252.3559,274.5758,251.0967,269.3751,251.6119Zm32.3758-51.5538c2.0351,1.2931,3.6453,1.862,4.4279,3.3438.9813,1.8581,2.3113.7281,3.4209.3264,1.0933-.3958,1.2025-1.6776,1.1257-2.5725-.16-1.8625-1.77-.9834-2.7517-1.059C306.197,199.96,304.4022,200.0581,301.7509,200.0581Zm-41.7967,64.0255c.7234,2.9365,3.2439,2.7151,5.1,3.5067,1.2965.5529,2.2772.4789,2.4513-1.211.1341-1.3028-.125-2.3118-1.7495-2.299C263.9551,264.0946,262.1542,264.0836,259.9542,264.0836Zm212.53-59.45c.4359-3.3406,5.0958.2411,5.8681-3.3953.1793-.844-.287-2.0115-1.2252-1.324-2.0307,1.4881-5.0749,1.2218-6.4142,3.6811C470.3731,204.2206,471.2088,204.6452,472.4847,204.6339Zm13.6172-2.1006c-1.4441-1.5907-2.0531-3.6081-4.3579-2.9381-.59.1716-1.2706,1.0419-.7962,1.4985A4.9614,4.9614,0,0,0,486.1019,202.5333Z"/><path class="cls-2" d="M358.4877,294c2.6877,3.9921,6.8017,7.5778,4.7332,13.1467a52.3606,52.3606,0,0,1-4.87,10.3017c-3.1011,4.7788-6.2139,9.4109-6.01,15.4226.1242,3.6667-3.8449,6.4392-2.2894,10.4236q-.1744.8208-.3489,1.6415a13.3688,13.3688,0,0,0-5.7124,2.6267c-3.25,2.6173-7.3441,2.1933-10.7219.4193-3.5372-1.8577-3.367-5.3937-1.9582-8.7736.9566-2.2951,1.9952-4.5564,3.0151-6.8247,2.6981-6.0009,3.2221-12.3674,3.0782-18.9462-2.9738,9.3577-7.0954,18.29-9.6452,27.6316-1.77,6.4852-.6051,6.6606-6.9686,3.17-1.5321-.8405-3.2768-3.5109-5.5351-.85l-.2642.0946-.2789-.0308c1.9218-6.15,4.8532-12.2018,5.4613-18.4788.532-5.493,2.0451-10.2463,5.4882-13.9429a160.3228,160.3228,0,0,0,13.566-16.84c3.31-4.6789,12.9544-4.3289,19.2682-.1842-6.9871.1163-15.0913,5.6642-15.3312,10.9768,4.8281-4.01,9.1163-8.3377,15.0691-10.0615C358.393,294.876,358.4058,294.3189,358.4877,294Zm-16.7317,12.459c-3.0931.5034-3.4752,2.6889-3.9009,5.4653C340.9311,310.9142,340.6967,308.2341,341.756,306.4589Z"/><path class="cls-1" d="M315.2538,343.3891c2.2583-2.6607,4.003.01,5.5351.85,6.3635,3.49,5.1984,3.315,6.9686-3.17,2.55-9.3416,6.6714-18.2739,9.6452-27.6316.1439,6.5788-.38,12.9453-3.0782,18.9462-1.02,2.2683-2.0585,4.53-3.0151,6.8247-1.4088,3.38-1.579,6.9159,1.9582,8.7736,3.3778,1.774,7.4723,2.198,10.7219-.4193a13.3688,13.3688,0,0,1,5.7124-2.6267c-1.866,6.344-5.7656,9.1351-12.6218,8.1279C328.8317,351.8522,320.6205,350.9391,315.2538,343.3891Z"/><path class="cls-3" d="M482.2068,30.9836c.6355,17.5843,1.7319,35.17,1.6884,52.7524-.0184,7.4383-.8274,14.9886-.2789,22.3913.8408,11.3478.0125,22.7613,1.7525,34.0658,1.0143,6.59.3541,6.8562-5.978,7.9677-11.3746,1.9967-22.8608-.0132-34.23,1.2844-16.1946,1.8484-32.5314-.89-48.7051,1.5584a13.6108,13.6108,0,0,1-2.4961.0475c-20.4678-.7159-40.9279.535-61.3376,1.3466-15.8526.63-31.7407-.1048-47.5941,1.4739-10.2862,1.0243-20.7335-.623-31.11.1688-1.8094.138-3.247-.177-3.4034-2.54-.4373-6.6038-.2146-12.4829,4.15-18.568a28.9873,28.9873,0,0,0,4.0729-25.5092,103.103,103.103,0,0,0-6.1928-16.2845c-3.1273-6.4248-3.79-13.4042-3.94-20.3333-.2874-13.3211-.0516-26.653-.094-39.98-.034-10.7207-.0631-10.4086,10.7028-10.7857,22.2793-.78,44.5386-2.183,66.8208-2.8042,9.6281-.2684,19.2457-1.0568,28.8583-1.0241,13.973.0475,27.9017-.9856,41.8517-1.3467,14.1971-.3676,28.4044-1.7056,42.6211-1.6544,11.9389.043,23.6832-2.55,35.6033-2.0462,2.3652.1,4.101-3.4787,6.3451-1.2918,2.403,2.3418.9445,5.71,1.0908,8.6114.2093,4.1542.0533,8.3269.0533,12.4917ZM399.5225,94.1178c-2.3468.32-4.91-.9514-7.0409.9587l-3.9989,0a4.5088,4.5088,0,0,0-6.0016.018,14.2373,14.2373,0,0,0-3.4356.3544c-1.1586.4065-3.0672.69-2.7968,2.2972.27,1.6052,2.1008,1.4913,3.3642,1.2325,8.8967-1.822,17.8929-.4489,26.8271-.9344,4.2457.5614,8.4686-.96,12.7507-.0522a2.3745,2.3745,0,0,0,3.0873-2.388c-.0485-2.1552-1.7969-2.9188-3.5266-2.3388-4.0737,1.366-8.2239.5111-12.3209.853ZM380.5071,39.1505c8.5536.451,16.7431-3.4223,25.3822-2.1321,1.095.1636,2.6394-.0224,2.2225-1.7457-.3679-1.5209-1.7954-1.07-2.9141-.9113a110.3943,110.3943,0,0,1-20.5518.8687c-3.8444-.1744-8.182-.9781-11.1208,2.8843-3.2971-.59-1.5905-2.4587-1.0313-4.0342,1.1047-.0281,2.28.1687,3.0387-.9579,3.3958-.6728,6.8135-2.0113,10.1836-1.9008,13.1262.43,26.1683-1.2523,39.2732-1.15,10.9363.085,21.8271-1.6138,32.7863-.9836a2.8953,2.8953,0,0,0,2.6853-.9755l1.0076-.0053c1.4547.0127,2.91.0266,2.9912-2.0073,2.4253-4.0153-.3733-4.3089-3.0907-3.9351-13.196,1.8154-26.5028.8965-39.7508,1.6561-17.0422.9772-34.1384,1.3123-51.2114,2.0962-18.2239.8369-36.4723,1.1838-54.704,2.0841-15.5911.77-31.22.7771-46.8319,1.1214-.8319.0183-1.6681-.0145-2.4949.06-2.0421.1832-2.814,1.3944-2.8125,3.373.0112,14.0916-.0908,28.1838.0186,42.2745.0346,4.4573.8464,8.9085.8836,13.3659.1247,14.9829.0618,29.9673.0682,44.9512.0046,10.9755.0029,10.9755,11.0248,10.9338,5.3384-.1094,10.7162.3871,15.9687-1.04l-.0011.0081c.32.72.6475.6961.9806.0088,6.7069.6284,13.3072-.9928,19.9865-.947.3421.5488.6817.5449,1.0189-.0045l29.0033-1.0266c3.33,1.2846,6.6587,1.8139,9.9807-.0267,4.4847.0253,9.1967-.814,13.3976.29,5.4924,1.444,5.919-.79,5.6042-5.031-.9453-12.7329-1.23-25.4878-1.0355-38.2532,5.3631-.57,6.1794-5.2158,8.02-8.9434,6.5432,1.1286,12.9148-.0791,19.3438-.5066l-.0458-1.3444H383.5117c8.8214-3.5866,18.125-3.9883,27.3678-5.0012-3.6223-2.2713-7.771-.0835-11.9909-1.69,3.6006-1.3114,7.16.8456,10.43-2.2659L399.31,77.803l-.0675-1.2908c5.3729-1.2524,11.1238-.7919,16.4029-2.9933-1.4172-1.4947-3.2364-1.5157-5.0626-1.4527-9.8171.3386-19.6331.7077-29.4509,1.0239-1.8584.06-3.7242-.0746-4.692,1.9974-2.5094,4.8368.49,10.4638-2.2739,15.3159-.61-5.0274-1.0855-10.0226-.2807-15.0435.366-2.2828-1.1082-5.3506,2.6042-6.2431a46.4393,46.4393,0,0,0,13.9315-1.7421,86.5071,86.5071,0,0,1,19.0173-2.3164c1.4991-.05,3.1953.4916,4.3949-1.3814-5.8917-.5541-11.805-1.0508-17.5939-.4149-5.8218.64-11.5043,1.1642-17.2739-.2434,11.8924-4.6342,24.3993-5.0756,36.9808-5.0606l-.147-1.7225H392.61c2.8627-1.29,6.7008-.3983,6.85-5.14,6.5524.189,12.9331-1.0206,19.3664-1.948-.4852-.6666-.9253-.9672-1.3731-.9793-11.5547-.3122-23.0459,1.6943-34.6151.9521a2.0113,2.0113,0,0,0-2.3536,1.97l-1.9964.02c-1.581-1.5355-1.8055-.3067-2.0008.9816-1.03.144-2.121.5093-1.7411,1.7418.5972,1.9379,2.4282.9976,3.7417,1.2607l.01,2.0113c-3.2545-.3619-4.8542,1.0008-3.679,4.209.6563,1.7918-.2313,3.1744-.3018,4.747-2.4045,1.5773-1.9581-.6179-1.9838-1.6472-.0989-3.96.1858-7.9427-.1215-11.8818a4.942,4.942,0,0,1,3.078-5.4044c9.8207-.5372,19.3567-3.7866,29.315-3.06a46.6331,46.6331,0,0,0,4.9725-.02c1.1332-.0388,2.6381.0446,2.3858-1.6666-.2377-1.6122-1.6931-1.1812-2.8113-1.0933-9.6147.756-19.2327,1.3846-28.8845.8309Q380.4871,40.6352,380.5071,39.1505Zm61.96,74.9174c9.4775.9887,18.2281-2.7495,27.4347-4.0722a10.2248,10.2248,0,0,0-5.2655-.8965c-17.3475.639-34.7008,1.1663-52.0365,2.0418-4.4233.2233-8.015-3.1793-12.5314-2.0258-3.9451,1.0075-8.1038,2.6129-11.4128-1.6239a1.973,1.973,0,0,0-1.8409-.1693c-2.2737,3.1657-7.8311-3.0311-8.9428,3.1613-.4064-.1512-1.0906-.2112-1.1749-.468-.6113-1.8628-2.069-2.5978-3.3922-1.4182a3.6264,3.6264,0,0,0-.1271,5.0158,6.1978,6.1978,0,0,1,.9462,6.54c-2.3741,6.4708-2.1075,7.521,4.7069,6.7611,15.0539-1.6786,30.1584-.4332,45.2406-1.5863,14.33-1.0956,28.8133-.0306,43.195-1.2615,1.46-.125,3.953.87,3.84-1.7258-.1151-2.6336-2.2326-1.7707-4.1478-1.7-13.0748.4835-26.1587.8555-39.24.8614-1.7673.0009-5.68,2.3447-5.5911-1.4246.0791-3.3714,4.0055-1.8443,6.2171-1.93,5.85-.2255,11.7142-.0765,18.4838-.0765-1.74-2.4142-3.148-1.8884-4.3417-2.039Zm.6679-8.5193q-.0591.6273-.1181,1.2546c6.2724,2.4866,12.5254,1.33,18.7874-1.2546Z"/><path class="cls-4" d="M230.4079,269.9059c-3.8622-.1822-7.1357,1.8324-10.1368,3.6081-9.3247,5.5177-19.6733,8.1389-29.6579,11.89-10.6024,3.9829-20.0875,10.377-26.8548,20.0486-3.0085,4.3,2.0484,6.6707,1.3882,10.5532-5.7486.91-9.8937-3.2176-14.3367-6.4481-2.4846-1.8066-4.2842-4.4864-7.1663-5.8306-11.25-10.8643-16.2477-25.2247-22.0319-39.1734-2.0829-5.0228-4.256-10.1116-8.9895-13.4169l-.872-.9875c8.8629-.399,17.7447-.5617,26.5829-1.2684,7.65-.6117,11.32-1.5508,11.2836-11.276-.0328-8.8668-.3414-17.4874-7.0379-24.3411-.4571-.4679-1.1869-1.0987-.1637-1.2186,2.5814-.3027,2.1958-5.0113,5.6709-3.6738,5.7844,2.2265,6.8492,5.0672,3.9271,10.5972-.8305,1.5718-2.7023,3.4059-.7438,4.767,1.9059,1.3246,4.47,2.1643,6.7961-.1461,3.3106-3.2879,6.89-4.6666,11.8087-2.74,4.1138,1.6113,12.0531-5.22,12.6726-10.1686,1.381-11.0311-7.3787-27.9143-17.24-33.0373-1.21-.6286-2.6879-.7409-5.42-1.45,6.9171-1.2371,12.6463-.74,18.2405-1.8675,8.5577-1.724,17.0661-3.525,25.2992-6.4314,2.1415-.7561,3.2766-1.2169,4.3811,1.6726,2.1017,5.4982,6.5118,9.5933,10.9574,13.1172,9.9932,7.9211,17.9683,17.4627,24.8964,28.0367,7.2149,11.0117,14.83,21.7645,19.41,34.2918,1.9653,5.3754,3.7609,10.7831,5.3089,16.456a30.5522,30.5522,0,0,0-18.2333,2.3012c-5.2155,2.452-11.3781,1.2278-16.51,4.2283-1.0736.6277-2.5552.5662-3.2456,1.9015Z"/><path class="cls-5" d="M241.6963,69.0788c3.3874,15.1642,11.81,28.1206,14.2719,43.0555,1.6769,10.1744-1.8664,18.6855-8.8108,26.3316-15.8128,17.41-36.4926,24.9139-58.6132,29.4722-9.0877,1.8727-18.0211,4.7515-27.3845,5.1066-4.54.1721-8.2327-.35-12.2154-4.2074-5.2476-5.0823-13.248-4.3708-20.3157-3.3661-5.5644.791-10.6528,1.1682-15.5311-2.5015-4.9436-3.7189-11.0858-4.8471-16.8868-6.63a10.833,10.833,0,0,0-1.9743-.2346c-2.5588-.284-5.3871,2.5786-7.5218.2751-3.0308-3.2706-4.6248-7.5528-6.0847-11.77-.3713-1.0727-.429-2.25-.7061-3.36-1.8809-7.5356-1.573-8.7592,4.9819-12.5631,12.681-7.359,25.1315-15.1444,38.8539-20.599,2.6375-1.0484,3.0852-.2106,3.7579,1.7165,3.5647,10.2117,13.1529,16.0388,23.7537,15.4826,5.81-.3049,11.2132-.5122,16.6409-3.3451,8.376-4.3717,12.1438-11.6043,14.6019-19.9753a18.6324,18.6324,0,0,1,6.8478-9.9733c1.4355-1.0753,3.0874-1.9368,3.3393,1.1274.8166,9.9335,12.3542,15.6654,21.4514,15.77,15.6321.1806,22.1311-10.5457,24.7131-18.8572,1.5263-4.9131.0839-10.187-1.3909-14.1759C235.5586,70.6751,238.5454,70.8077,241.6963,69.0788Zm-52.9215,67.9784c7.2244.1363,17.9346-4.2377,20.939-8.8033,1.0163-1.5444,4.3811-3.327,2.0969-5.1628-1.7185-1.3811-3.533,1.5508-4.9426,3.142-5.4066,6.1029-16.9856,8.1088-23.7274,4.1191-1.0856-.6425-2.3025-.99-3.1789.0154-.9318,1.069-.0218,2.02.6183,3.0345C182.6523,136.6864,186.1737,136.3123,188.7748,137.0572Z"/><path class="cls-6" d="M230.9893,45.59c-9.4741-8.7215-20.8665-11.917-33.5115-12.8157-11.1362-.7916-21.959.5541-32.7842,2.3941-20.55,3.4928-38.6539,10.761-53.1194,27.3632C96.6766,79.63,86.9283,99.0561,78.9486,119.7431c-4.9878,12.9307-3.9735,25.5026,3.5761,37.34l.0784-.0737c-3.5294.5786-5.5507-3.3892-9.02-2.9917l.0221.0214c-2.3409-4.3092-4.1991-8.9852-7.1324-12.8441-4.7505-6.25-7.8054-12.7432-8.2512-20.7758-.4657-8.3914-2.1592-16.708-3.1041-25.0813-.9219-8.1686,1.0841-16.0363,3.0108-23.8741.278-1.1307.9214-2.1457-.4886-3.89-4.3271,6.56-4.0928,14.0192-5.9952,20.9824-.1122-2.3613.354-4.8267-1.2651-8.1615a23.1467,23.1467,0,0,0,.66,19.9888c3.5393,6.9915,3.5414,14.3169,4.3949,21.5813a75.872,75.872,0,0,0,2.1115,12.1161l.0725-.0575c-4.8737.5856-6.2647-4.0284-6.5668-6.5084-.8261-6.78-3.8211-12.9169-4.6476-19.6482-3.1782-25.8837,1.9136-49.2433,21.063-68.0362,7.171-7.0375,16.43-11.4308,24.7-17.0823,12.8623-8.79,27.9979-11.44,42.1815-16.6892,10.0176-3.7076,19.9165-3.5206,30.186-1.4013,9.66,1.9935,18.99,5.4074,28.8418,6.5378a5.7076,5.7076,0,0,1,3.1769,1.2822c6.7115,6.561,15.4247,10.2365,22.7394,15.9305,5.6574,4.4039,9.3307,10.2,12.5459,16.4059ZM65.5467,57.4565c-4.9926,2.2684-5.3388,2.906-3.8537,6.4462Z"/><path class="cls-7" d="M223.5174,335.98c-1.8835-4.8107-6.846-5.8988-10.5112-8.5193-.8867-.634-3.48-1.93-2.5764,1.7268.3422,1.3846-1.4473.688-2.2016.5438-6.315-1.2067-12.574-2.7685-18.9268-3.6984-8.0682-1.181-14.1444-6.0573-20.66-10.2107-1.4757-.9406-1.0973-2.3176-1.07-3.5609.2135-9.5677,6.0872-15.1735,13.7112-19.6294,9.2127-5.3846,19.9937-6.8829,29.3213-11.77,6.6666-3.4928,14.2067-5.5169,19.8049-10.9558l-.0182-.0072c6.8494.426,13.144-2.4774,19.7844-3.3953a12.402,12.402,0,0,1,7.5453,1.1879c7.8476,3.6725,14.4861,9.123,21.6549,13.739,10.1217,6.5174,19.021,15.1673,30.818,19.1635,3.9745,1.3464,6.8327,5.0475,10.8062,6.94,3.1769,1.5127.6985,4.12-.3591,5.9252-1.6252,2.7742-2.2493-.1115-3.0548-.86-8.1651-7.5888-19.6266-9.5773-28.18-5.1043-4.3823,2.2918-5.9151,6.6641-8.0371,10.4646-1.5944,2.8556-2.6539,2.8072-5.1154,1.3037-6.6661-4.0718-12.3663-9.4437-18.8187-13.7555-12.0179-8.0308-22.7987-18.0967-36.8059-22.8989-2.0566-.705-5.3943-3.0026-6.2408-.8463-1.24,3.1574,2.9325,3.2,4.9535,4.1033,16.1485,7.2168,30.3537,17.4114,43.9975,28.4681,3.8429,3.1142,8.4075,5.1083,12.1646,8.4383,1.7713,1.57,2.5617,2.4442,1.7829,4.679-1.6533,4.744-3.5448,9.4833-7.0082,13.0728-4.4565,4.6188-4.6182,10.3562-5.42,16.0141-.1678,1.1833.8561,2.8134-.8814,3.3374-1.4551.4387-2.5465-.65-3.8663-1.4235-9.9031-5.8007-17.7787-14.8137-29.0666-18.38a5.2177,5.2177,0,0,0-1.4915-.02C227.8015,338.3072,226.3492,336.1212,223.5174,335.98Z"/><path class="cls-8" d="M263.8365,237.608c7.61.37,14.684,1.1621,21.7343-.3844.649-.1424,1.64-.0178,1.9088-.4066,3.6325-5.2611,9.3942-3.5482,14.0207-3.5477,16.2964.0016,32.55-1.1429,48.8281-1.4811,13.0566-.2713,26.1923-1.1887,39.2232-1.2446,12.3822-.0533,24.7446-1.0137,37.1495-.6807,9.2271.2476,18.5223-1.7806,27.7381-1.4453,10.7109.39,21.3433-.6123,32.0271-.504,14.498.1469,29.0644.13,43.4872-1.1281,10.1415-.8842,20.2847.1706,30.3383-1.1864,2.3208-.3132,2.1179.9414,2.11,2.2291-.025,4.1477-1.2347,8.1764-1.0979,12.3795.0837,2.5726-2.5167,2.3737-4.1617,2.409-10.6049.2278-21.2151.2048-31.82.4223-23.7685.4875-47.533,1.186-71.3029,1.5736-20.3379.3315-40.6989-.1288-61.017.6325-23.3377.8744-46.6827.1437-69.9951.95-16.07.5555-32.1371.4488-48.1915.9819-5.4378.18-8.3559-1.529-9.5662-6.6561A15.7047,15.7047,0,0,0,263.8365,237.608Z"/><path class="cls-4" d="M132.4685,210.7521c-18.1911-1.042-36.4009-.8774-54.6047-.6854-16.7933.177-21.6214-7.5471-26.0489-22.92-2.0312-7.0526,2.7191-13.9178,9.8263-16.9848,8.48-3.6595,18.0322-3.9522,26.3592-7.71,7.7883-3.5148,13.9865-1.394,20.4115,2.8827-15.5193-2.5389-27.9987,5.4406-42.2281,11.5591a18.5535,18.5535,0,0,0,11.8414-2.3506,52.4614,52.4614,0,0,1,27.216-5.632c10.5967.4961,21.2334.1347,31.8527.1471.9986.0011,1.9972-.0042,2.9956.0057,2.0142.02,4.4562.2138,5.25,1.9547.7726,1.6941-1.95,2.2792-2.7951,3.6181-.4356.69-.746,1.46-1.1127,2.1941-5.85,3.8613-7.4,9.7291-7.5786,16.2371-1.3637,4.6315-1.8833,9.2808-.2957,13.9746A6.2332,6.2332,0,0,0,132.4685,210.7521Z"/><path class="cls-2" d="M145.5434,234.6888c0,1.6656-.1015,3.3388.0223,4.9951.2067,2.7659-1.291,3.8956-3.7468,4.301-7.6676,1.2655-15.4653.6053-23.1057,1.3106-10.446.9641-20.9046.0627-31.31,1.2533-11.1135,1.2718-22.2266,1.9118-33.1746-1.45a47.9552,47.9552,0,0,0-8.7037-1.8659c-3.19-.3555-4.6048-2.087-5.3646-4.9687-1.2808-4.8574-.2644-9.8668-1.29-14.8079-.5938-2.8608,6.9275-7.34,11.8788-7.3694,5.864-.0354,11.6157-.2611,16.8119-3.4157.7977-.4842,1.5419-.1858,2.3694-.0132,11.8531,2.4734,23.8139.7619,35.7213,1.0719,8.2393.2145,16.5657-.6,24.7846.9578,3.165.6,6.8485-1.98,9.5829,1.3552a25.1762,25.1762,0,0,1,5.5053,14.15C145.6526,231.6814,145.5439,233.19,145.5434,234.6888Z"/><path class="cls-9" d="M319.2967,227.88c2.2986-1.1037,4.7942-.7375,7.1027-1.6357.9121-.3549,2.5131-.4224,2.6844-.97,1.8418-5.8867,5.5169-3.2882,9.2288-2.5136a13.5642,13.5642,0,0,0,7.276-.9767c10.1438-3.9994,20.5288-2.0234,30.9011-1.9058,12.3612.14,24.7316-.51,37.0977-.8284,6.2754-.1617,12.55-.4568,18.8251-.4472,1.6272.0024,2.0808-.483,2.1277-1.859.0112-.3315-.0646-.6671-.0421-.9969.84-12.3235.8393-12.3736,13.0217-12.6782,6.107-.1527,12.22-.0776,18.33-.12,2.09-.0144,3.6057.7248,2.1266,2.9-6.1506,9.0448.082,13.7023,8.3582,15.66,7.7571,1.8348,15.2716-2.8487,16.5037-9.93.4866-2.7967-.67-4.7916-2.06-6.8612-1.3-1.9352-1.0154-2.75,1.5273-3.0629,9.193-1.1324,18.513.1339,27.6634-1.5859,8.0382-1.5108,14.34,1.6688,20.096,7.0089,4.4762,4.1529,9.3878,7.8377,14.1255,11.7065.8492.6935,2.3885,1.0317,1.6909,2.5322-.4971,1.0692-1.8042.7132-2.7143.6214-9.9372-1.0017-19.8618.1986-29.79.2422-13.8522.0608-27.6986,1.0566-41.5514,1.5386-6.76.2352-13.5334.1036-20.2943.3289-17.1458.5716-34.2843,1.3968-51.4329,1.8385-12.4476.3206-24.946-.4071-37.351.4084-16.6669,1.0956-33.3552,1.054-50.0185,1.8937A23.9193,23.9193,0,0,1,319.2967,227.88Z"/><path class="cls-10" d="M73.583,154.0182c.312,3.8344,4.6,3.8194,6.2176,6.861-4.5346,2.6653-10.1379,2.1118-15.0826,4.0383-8.6908,3.3861-15.4448,8.15-17.1632,17.9761-.1316.7525-.0295,1.3947-1.2805,1.5806a14.7008,14.7008,0,0,1-14.8167-6.9381C23.5945,164.0014,18.3805,149.3012,14.1,134.3813c-3.2223-11.23,3.2023-20.2243,16.0907-24.979,11.6748-4.3068,14.2274-2.8826,16.4429,9.3139a41.9754,41.9754,0,0,1,.8475,7.3752c.0084,5.8381,3.495,10.01,8.2284,11.2248,7.21,1.85,9.6024,7.4375,12.8958,12.6281,1.2239,1.9291,2.0881,4.2478,5,4.0953Zm-30.95,18.85c.9074.1007,1.61-.0811,1.761-.8179,1.1139-5.4494,3.913-10.0673,7.0043-14.5632a1.4235,1.4235,0,0,0-.51-2.1441,1.7846,1.7846,0,0,0-2.2742.45c-3.2205,4.5135-6.5391,9.0034-7.0489,14.809C41.4765,171.616,41.4911,172.6334,42.6334,172.8677ZM27.7745,123.4421c4.1447,2.1017,8.0376,1.4055,11.0966,3.4791a1.6432,1.6432,0,0,0,2.3807-1.05c.3956-1.3376-.6218-1.52-1.6007-1.8888C36.1327,122.6571,32.5559,122.88,27.7745,123.4421Z"/><path class="cls-10" d="M130.5467,334.0793c-3.0556-3.3651-3.7174-7.967-4.2732-11.9164-.4854-3.4491,3.8835-6.4331,6.9437-7.7007,6.8858-2.8525,14.29-4.9182,20.6155,2.152a5.4868,5.4868,0,0,1-1.2349.3522c-2.0122.0666-4.7742.1372-4.7085,2.428.0882,3.0773,3.1914,1.6456,4.7725,1.505,9.5755-.851,18.0288,3.1825,26.73,5.9449a209.1285,209.1285,0,0,0,31.7954,7.2975c3.79.58,8.3774-1.5133,11.3944,2.6026a9.0755,9.0755,0,0,1,1.1032,1.0054c.9632,1.2126,3.63,1.3379,2.9525,3.4418-.5033,1.5632-2.6512.9769-3.9553,1.0792-12.2012.9574-24.4148,2.3-36.6315,2.37-13.5515.0782-26.9747-1.4655-39.9935-6.0707C141.0448,336.7978,136.3865,333.1722,130.5467,334.0793Z"/><path class="cls-3" d="M124.672,343.9885c-6.5633-.0694-13.4251-5.4153-16.1156-12.61-7.1789-19.197-15.2424-38.0666-20.8175-57.8587-1.7878-6.3471-4.6407-12.411-7.2376-18.506-1.1653-2.735-.8317-3.5449,2.3052-4.1545,11.4057-2.2166,12.7772-2.0226,15.9884,8.7939,6.8008,22.907,16.0147,44.8958,24.5148,67.164,1.6938,4.4373,2.5343,9.0719,5.0885,13.3308C131.141,344.7217,126.5425,343.5573,124.672,343.9885Z"/><path class="cls-5" d="M139.1278,65.7107a4.1123,4.1123,0,0,0-2.4029,5.3458c1.2133,3.0367,4.4326,2.96,7.8287,3.1365-5.4848,3.8129-10.2733,7.7061-13.6369,13.02-.8747,1.3821-2.1261,2.7408-2.3932,4.2535-.9229,5.2262-4.4877,7.4985-8.7865,9.9657-11.7944,6.769-23.2014,14.2114-34.8224,21.2877-.8291.5049-1.7055,1.7321-3.3558.8011,1.3022-7.191,4.69-13.72,7.6255-20.3388a216.9375,216.9375,0,0,1,13.339-24.7779c1.9592-3.2155,4.0636-6.0861,8.0042-6.2049,9.875-.2977,18.6148-4.6939,27.8487-7.2971Z"/><path class="cls-5" d="M182.1885,86.98a34.5447,34.5447,0,0,0-11.6968-12.254c-5.129-3.2124-11.1383-.6124-16.4111-2.812,1.2412-2.3509,4.87-1.8578,5.4918-4.956.6682-3.3282-2.0988-4.0249-4.2566-5.6153,4.8031-3.1427,10.52-3.2189,15.0513-6.1588.9821-.6372,2.1766-.2435,2.1861,1.5229.03,5.665,3.0768,4.993,6.9682,3.4786,11.6055-4.5163,20.8156-12.637,30.408-20.1281,1.7918-1.3994,2.9831-1.1743,4.6892-.8828,9.8565,1.6838,14.4954,9.2085,18.9941,16.8919,1.5822,2.7023,3.1094,5.4369,4.66,8.1535-5.3239,3.415-5.3778,3.5072-10.43.5506-13.1605-7.7017-33.07.5641-36.15,15.722-.2116,1.041.1625,2.7272-1.5837,2.5093C186.5822,82.5621,184.9228,85.6049,182.1885,86.98Zm19.3972-24.56c4.0753-1.13,8.2349-2.0273,12.1984-3.4651,3.0172-1.0944,3.2309-3.9878,2.6659-6.6966-.55-2.6373-2.1919-4.0805-5.1512-4.2212-5.5542-.2643-9.7718,2.4995-13.55,5.9046-1.4032,1.2646-2.9414,3.4622-1.79,5.7534C197.0491,61.8654,199.2086,62.3158,201.5857,62.42Z"/><path class="cls-3" d="M183.2451,35.26c7.7117.8625,15.096-.6172,22.3591.8308.9411.1877,2.1134-.1555,2.5794,1.0213.5433,1.3724-.3318,2.2-1.3841,2.8234-8.533,5.0587-15.87,12.0609-25.3076,15.6383-2.3445.8887-4.9409,2.7086-5.2441-2.2859-.1434-2.3619-2.0931-3.87-5.18-2.3216a98.2464,98.2464,0,0,1-11.52,4.5831c-2.6953.9481-5.8331,3.3806-6.4135-2.5618-.2864-2.9329-2.55-1.2217-4.0091.0083-9.7637,8.23-21.199,12.545-33.7181,14.2954-.8925.1248-1.9293,1.093-2.5577-.2889-.4915-1.0809.26-1.8989.9535-2.6253,8.5124-8.9153,17.5-16.529,29.7369-20.7876C156.7083,39.0062,170.2173,37.5338,183.2451,35.26Z"/><path class="cls-3" d="M515.4477,264.2573c-1.8408,33.5358-.6023,67.1029-1.1509,100.65-.0683,4.181-.0284,8.4334-.4026,12.6541-.2071,2.3358.3565,4.9265,2.92,6.412a3.0766,3.0766,0,0,1,1.4839,3.4561c-.4166,1.818-1.9589,1.54-3.2355,1.5174-3.2486-.0581-6.2774,1.6187-9.796.3194-2.7081-1-3.4153-2.04-1.809-4.1056,2.1515-2.7675,2.065-5.8265,2.0014-8.9923-.1819-9.0581,1.4121-18.2008.6395-27.0917-.7355-8.4651.0719-16.8513.1043-25.17.0614-15.7865-.0822-31.5993.2211-47.3968.1556-8.1021.16-16.2129-.0355-24.3132-.0808-3.3409,1.1353-4.2947,4.3446-4.2634,3.1754.031,5.0513.5207,4.7785,4.3334C515.2266,256.2446,515.4477,260.2588,515.4477,264.2573Z"/><path class="cls-5" d="M142.34,177.9976c2.4158-2.7,4.6425-4.009,8.1785-1.0521,1.9926,1.6662,5.1674,1.9613,7.8436,2.7608,12.7039,3.795,22.4245,18.599,20.8217,32.1582-1.19-2.5688-.7543-5.7794-4.229-7.3824.13,3.8092,1.8938,7.4253-.85,10.5106-.9991,1.1236-1.9693,2.7-3.6264,1.8576-1.367-.6947-.6814-2.19-.3345-3.4435a15.69,15.69,0,0,0,.2655-2.92c.0832-1.0513-.0084-2.2725-1.2691-2.2519-1.4384.0236-.8579,1.4069-1.0187,2.2952-.5283,2.9181-.7821,6.0849-4.7494,6.4035-.8366-.4223-.5542-1.0679-.4927-1.7087.107-1.1167,1.7621-2.6631-.4945-3.2074-1.84-.4438-2.5794.89-2.916,2.5587-.6845,3.3939-2.8175,5.8473-5.933,8.7941,1.0472-4.69,4.1321-8.0607,2.5539-12.3607-.5765-1.5707-.8557-2.9359-2.8366-3.4693-3.2554-.8765-5.7367-3.1072-8.08-5.4514-.9191-.9195-1.7149-2.2213-3.2237-2.02-5.8151.7749-6.5673-2.4271-5.6465-7.0187C137.935,187.88,138.1247,182.1316,142.34,177.9976Z"/><path class="cls-5" d="M134.587,101.6531c-1.1-8.7873,4.5572-14.7814,11.4052-18.677,7.2724-4.1371,15.33-4.9337,22.8227,1.4407,7.868,6.694,10.1283,23.1728-1.3929,29.4007a32.03,32.03,0,0,1-23.8559,2.6173C137.8973,114.9761,133.9715,112.5876,134.587,101.6531Zm9.6786,4.7337c.0677,4.7731,2.9881,7.74,7.6366,7.7578,2.7906.0107,5.6487-3.9936,5.6329-7.8919a6.9754,6.9754,0,0,0-7.0733-7.2484C146.7327,98.92,144.2025,101.9344,144.2656,106.3868Z"/><path class="cls-2" d="M294.7222,368.9708c-6.4717-.0207-9.8662-2.9206-7.9687-8.0777,4.3753-11.891,4.546-24.6944,8.8048-36.5295,2.418-6.72,7.69-9.737,14.481-10.3176,4.52-.3865,7.6843,4.0094,6.4429,9.3917a118.9723,118.9723,0,0,1-7.0879,21.1758c-2.9295,6.6566-6.1877,13.1822-8.7992,19.9589C299.3383,367.834,298.0286,369.8488,294.7222,368.9708Z"/><path class="cls-8" d="M111.75,250.149q.436.4937.8721.9873c-.8857,4.3107,2.5713,7.0289,4.0229,10.433,3.1718,7.4383,5.3588,15.2917,9.3258,22.39,4.4184,7.9062,8.4082,16.12,15.5779,22.0879.0351,1.5857-1.0783,1.6535-2.2759,1.984-9.1056,2.5127-9.0966,2.5453-15.2525,8.9667-8.9113-21.8666-16.6748-44.2138-24.9421-66.8489Z"/><path class="cls-3" d="M200.24,403.0458c-6.665-1.0592-13.8342-2.166-20.986-3.3761-.9016-.1526-2.0608-.5211-2.233-1.6893-.18-1.2216.9181-1.5883,1.7484-2.1159,3.2153-2.0433,6.3447-4.2316,9.6328-6.1483,4.9923-2.91,5.8951-7.1934,5.4576-12.6252-.5454-6.77-.3816-13.6117-.2552-20.4174.0784-4.224,3.5746-2.3484,5.6917-2.6406,2.2536-.3111,4.3145-.1547,4.2677,3.1546-.1007,7.1122-.022,14.1532,1.7406,21.2112,1.5293,6.1242,5.7281,9.0733,10.7231,11.3869,1.5829.7332,3.3941,1.231,5.0768,1.9108,2.073.8375,5.3056.8831,5.0942,3.7833-.17,2.3369-3.34,2.5715-5.2,3.0411C214.3087,400.21,207.7141,402.4371,200.24,403.0458Z"/><path class="cls-7" d="M342.6289,205.7417c-1.7245-5.99,1.4844-5.8853,5.3393-5.7668,7.5884.2332,15.1907-.0127,22.7833.14,1.4259.0287,3.92-1.4542,4.1479,1.8a.6355.6355,0,0,0,1.0846.4346c7.3293-5.2005,15.7064-2.3859,23.2423-1.75,4.6128.389,8.6437-1.47,13.1676-.7791a42.96,42.96,0,0,0,14.8842-.2351c1.4433-.2917,3.181-1.2138,3.8772.6873.6722,1.8355.9009,4.1344-.1787,5.8031-.9551,1.4761-2.6608,1.4265-3.3316-.6362-.388-1.1934-.4182-2.5031-.9976-4.2693-1.2845,6.6572-4.2484,6.9282-9.7607,4.68-1.9428-.7922-6.1676,1.4159-9.645,1.7331-8.4842.7739-16.9364.142-25.3929.4384-10.7139.3756-21.4291.8857-32.1461.9535-11.7363.0741-23.1064-3.51-34.814-3.926-1.2242-.0435-1.9-.3386-1.6475-1.7306.1643-.9062-.7236-2.0686.4689-2.7046,1.3592-.7249,1.5774.4851,2.051,1.3386.1584.2853.9705.5725,1.138.4356,6.4431-5.2649,13.9216-1.0935,20.8084-2.29C341.8107,199.3847,339.4827,204.12,342.6289,205.7417Z"/><path class="cls-5" d="M216.0665,101.3076c-10.2552,1.0608-16.0964-4.8928-15.785-12.95.4352-11.2613,6.236-19.0854,15.6562-19.3143,11.0515-.2686,17.4369,5.07,17.5852,14.7538C233.6776,93.9025,226.51,101.1128,216.0665,101.3076Zm.4694-8.5433c.0285-4.3854-2.4845-7.9225-5.77-7.6087a6.4221,6.4221,0,0,0-6.13,5.4336,6.5284,6.5284,0,0,0,6.5319,7.47C214.4991,97.9389,216.9305,96.7408,216.5359,92.7643Z"/><path class="cls-2" d="M305.92,311.2336c-12.2692,3.316-14.694,13.0213-16.2351,22.7111-1.4319,9.0029-3.0344,17.8487-6.7215,26.222-.9061,2.0578-.1747,4.2046-.2674,6.4966-3.8456-.7161-7.1346-2.7629-10.9419-3.2043-2.0936-.2428-3.2014-1.8931-3.2828-4.3111-.1894-5.6244-.1606-11.0145,3.7844-15.7264,6.797-8.1184,9.4116-18.4742,14.3054-27.6228C290.4167,308.5913,297.6214,306.5005,305.92,311.2336Z"/><path class="cls-2" d="M246.4894,209.3176c10.9692.614,20.8432,1.2715,30.7277,1.6557a5.7,5.7,0,0,1,5.6881,3.9172,35.6336,35.6336,0,0,1,2.6216,15.5491c-.1547,2.4856-1.2648,3.5295-3.7209,3.6192-5.9566.2175-11.9517-.6969-17.8737.614a2.2579,2.2579,0,0,1-2.4706-1.3387C257.3628,225.0615,252.1849,217.44,246.4894,209.3176Z"/><path class="cls-3" d="M130.5467,334.0793c5.84-.9071,10.4981,2.7185,15.51,4.4913,13.0188,4.6052,26.442,6.1489,39.9935,6.0707,12.2167-.07,24.43-1.4131,36.6315-2.37,1.3041-.1023,3.452.484,3.9553-1.0792.6773-2.1039-1.9893-2.2292-2.9525-3.4418a9.0755,9.0755,0,0,0-1.1032-1.0054q.4689-.3831.9364-.7642c2.8317.141,4.284,2.327,6.0353,4.0712.8709,3.3254,4.6172,3.4349,7.0939,6.4406-4.7386.8781-9.107.78-13.3077,1.3665-12.6681,1.77-25.4708,1.3688-38.2114,1.0363-11.7881-.3077-23.4768,1.3263-35.2451,1.1492-3.04-.0457-5.3721-.2828-6.7231-3.591-1.7566-4.3012-7.1067-4.4731-9.8661-7.8982C132.1421,337.1259,130.7711,336.0135,130.5467,334.0793Z"/><path class="cls-3" d="M478.3225,252.9705c-1.0606,24.2573-.6695,48.534-.9471,72.8026-.1071,9.3639-1.742,18.7877-.6772,28.0782.5965,5.2039-1.2052,11.1872,3.1981,15.7182.2647.2724.3874,1.1473.1911,1.3316-2.1109,1.98-4.6575,1.1208-6.9884.715-1.8081-.3147-3.1057-1.3822-1.4209-3.49,1.2593-1.5758.7626-3.5228.765-5.3184.0269-19.8126-.3385-39.6343.1588-59.4345.2707-10.7723-.1547-21.55.2445-32.336.2043-5.521,1.1814-11.3984-.2241-17.1154-.427-1.7372-1.3707-4.4782,1.3717-5.7128C476.9505,246.8776,478.4985,248.5813,478.3225,252.9705Z"/><path class="cls-8" d="M12.1452,119.0114C7.26,133.6318,13.653,145.91,18.5,158.4578c1.2493,3.2343,2.6635,6.4053,3.9012,9.6438,4.5608,11.9335,10.6156,22.0065,26.32,20.4007-8.107,8.6165-22.5961,2.9687-27.0882-6.9912-5.0914-11.2885-10.1135-22.6084-15.2293-33.8858C2.16,138.2707,4.6435,124.3853,12.1452,119.0114Z"/><path class="cls-4" d="M289.17,221.8583a5.6338,5.6338,0,0,1-.3695-.9236c-3.2695-15.53-4.1156-12.367-15.5045-13.8182-9.1167-1.1617-18.3622-1.3081-27.5493-1.9224-4.3421-.29-5.0253-4.6941-7.6215-6.9589-1.3679-1.1933-2.0769-3.1419-3.8395-5.9571,22.3343,10.7615,45.1685,12.6126,68.3689,12.0647-.805,6.8516-3.0617,12.6291-1.2442,18.6665C297.434,221.5188,293.2329,222.4222,289.17,221.8583Z"/><path class="cls-3" d="M368.4889,166.8864a225.9271,225.9271,0,0,0,1.0216,24.6752c.3756,3.512-1.0067,4.981-4.5041,4.4876a9.7309,9.7309,0,0,1-1.4914-.03c-2.5489-.8131-5.7482,2.2533-7.3343-.0563-1.094-1.5928.2686-4.7732.2857-7.2459.0636-9.1907.2768-18.3919-.08-27.5692-.1826-4.692,1.0453-6.1916,5.9719-6.2983,5.3014-.1148,6.8622,1.66,6.1722,6.5455A39.6713,39.6713,0,0,0,368.4889,166.8864Z"/><path class="cls-5" d="M312.7886,211.8215c2.1718,7.56,9.2911,6.817,13.7539,10.5214-6.28.0332-11.4662,3.4765-17.3289,4.6645-1.9465.3944-2.546-.7425-3.1792-2.28-2.2777-5.5288-.9948-11.0609-.0423-16.55.2558-1.4739,1.1469-3.1655,3.48-1.6265,5.0627,3.3395,11.0208,3.2876,16.682,3.3568,7.6915.0942,14.2013,2.66,21.067,7.6888C334.6753,220.053,323.9023,216.809,312.7886,211.8215Z"/><path class="cls-7" d="M349.4014,213.2834c7.6464-2.2244,15.4909-.87,23.2193-1.3645,17.4714-1.1182,35.0209.061,52.469-1.79a28.0584,28.0584,0,0,1,4.4913-.01c1.5.0832,1.8484,1.1674,1.8446,2.455-.0038,1.3089-.4155,2.2547-1.9159,2.4037-1.8093.18-3.74.9513-5.3945.5476-5.6909-1.3886-11.1906.6232-16.7854.5068-15.456-.3218-30.8573,1.1742-46.2823,1.3691C357.2762,217.449,351.6514,219.2973,349.4014,213.2834Z"/><path class="cls-3" d="M248.52,356.1661c8.8325,2.3,10.1081,4.8242,8.9845,14.23-.7318,6.1267-2.489,12.5821,3.2955,17.6658,1.11.9755,1.2922,3.4326-.6169,3.5855-4.1907.3358-8.3257,2.2239-12.6993.3985-2.0586-.8591-2.2367-1.9977-1.2843-3.3559,3.4547-4.9268,2.1544-10.48,2.29-15.8243C248.6273,367.4822,248.52,362.0921,248.52,356.1661Z"/><path class="cls-3" d="M141.5489,306.0472c-7.17-5.9682-11.16-14.1817-15.5779-22.0879-3.967-7.0983-6.154-14.9517-9.3258-22.39-1.4516-3.4041-4.9086-6.1223-4.0229-10.433,4.7334,3.3055,6.9065,8.3943,8.9894,13.4171,5.7842,13.9487,10.7815,28.3091,22.0319,39.1734C143.5586,305.0535,142.9831,305.9378,141.5489,306.0472Z"/><path class="cls-11" d="M489.4269,212.3806c.1783,1.8512-.05,3.5569-2.0353,4.1158-5.6871,1.6012-11.3036,3.861-17.06-.288-2.4718-1.7816-2.4846-3.2329-.7276-5.1461,3.3319-3.628,12.4813-5.511,17.1963-3.8132C489.456,208.2053,489.6659,210.1634,489.4269,212.3806Z"/><path class="cls-9" d="M289.17,221.8583c4.0632.5639,8.2643-.34,12.24,1.151.3928.5291.8039,1.0457,1.1746,1.59.713,1.0462,2.4142,1.756,1.8079,3.2728-.7107,1.7774-2.5516,1.0422-3.9452,1.1473-1.1441.0864-2.3086-.1094-3.4548-.0361C289.9268,229.4355,289.9276,229.4491,289.17,221.8583Z"/><path class="cls-11" d="M142.34,177.9976c-4.2154,4.134-4.4051,9.882-6.0368,15.0519l-2.45.0179c.1784-6.508,1.7285-12.3758,7.5787-16.2371Z"/><path class="cls-9" d="M132.4685,210.7521a6.2332,6.2332,0,0,1,1.089-3.71,10.8664,10.8664,0,0,1,1.4885.0929c1.3959.2748,2.9013,1.7666,4.1614.435,1.5312-1.6183-1.2809-2.691-1.0334-4.3859,1.9091-.1228,4.3987-1.2241,5.1567,1.2926.5909,1.9616-1.1828,3.4467-2.9625,4.5864C137.8989,210.6442,135.4311,211.7144,132.4685,210.7521Z"/><path class="cls-7" d="M301.7509,200.0581c2.6513,0,4.4461-.098,6.2228.0387.9812.0756,2.5918-.8035,2.7517,1.059.0768.8949-.0324,2.1767-1.1257,2.5725-1.11.4017-2.44,1.5317-3.4209-.3264C305.3962,201.92,303.786,201.3512,301.7509,200.0581Z"/><path class="cls-9" d="M259.9542,264.0836c2.2,0,4.0009.011,5.8016-.0033,1.6245-.0128,1.8836.9962,1.7495,2.299-.1741,1.69-1.1548,1.7639-2.4513,1.211C263.1981,266.7987,260.6776,267.02,259.9542,264.0836Z"/><path class="cls-5" d="M138.3762,64.9027c2.6615-2.2115,5.8635-3.4754,8.8694-5.0866.8908-.4774,1.7406-1.27,2.2.3488.3209,1.132.0538,1.86-1.367,1.927-3.3883.1588-5.9252,2.51-8.9508,3.6186Q138.7522,65.3069,138.3762,64.9027Z"/><path class="cls-11" d="M472.4847,204.6339c-1.2759.0113-2.1116-.4133-1.7713-1.0382,1.3393-2.4593,4.3835-2.193,6.4142-3.6811.9382-.6875,1.4045.48,1.2252,1.324C477.5805,204.875,472.9206,201.2933,472.4847,204.6339Z"/><path class="cls-11" d="M486.1019,202.5333a4.9614,4.9614,0,0,1-5.1541-1.44c-.4744-.4566.206-1.3269.7962-1.4985C484.0488,198.9252,484.6578,200.9426,486.1019,202.5333Z"/><path class="cls-6" d="M231.8382,44.8142c.5307.4654.8957,1.2363.3742,1.6325-.735.5584-.8329-.5122-1.221-.8607C231.2723,45.3314,231.5552,45.0728,231.8382,44.8142Z"/><path class="cls-6" d="M57.5454,134.0809l.7992.942-.5526.25q-.0876-.6243-.1746-1.2491Z"/><path class="cls-6" d="M82.5247,157.0836a1.3717,1.3717,0,0,1,.3879.1343c.0563.04.038.1849.0535.2824q-.1817-.2451-.363-.49Z"/><path class="cls-1" d="M358.4877,294c-.0819.319-.0947.8761-.2554.9226-5.9528,1.7238-10.241,6.051-15.0691,10.0615.24-5.3126,8.3441-10.8605,15.3312-10.9768Z"/><path class="cls-1" d="M341.756,306.4589c-1.0593,1.7752-.8249,4.4553-3.9009,5.4653C338.2808,309.1478,338.6629,306.9623,341.756,306.4589Z"/><path class="cls-2" d="M312.4934,142.11c-6.6793-.0458-13.28,1.5754-19.9864.947q-.49-.0111-.9807-.0088l.0009-.0079q.4928-.9881.9862-1.9764c3.2113-2.6723,3.2589-5.3349-.0243-7.9874q.0033-2.51.0065-5.02c1.3122-.1563,1.6553-.9816,2.0512-2.1945,1.082-3.3147-1.9764-4.5678-3.0368-6.7944l.0028-2.9953c.6788-1.32,3.159-.8385,2.9988-2.9977,1.99-.3457,4.2439.83,5.9691-1.0373.8027-2.5722,2.298-2.64,3.8244-.7837.6443.7834.98,1.6781,2.1518,1.687a7.2636,7.2636,0,0,0,5.06-.9014l28.9776.0338v-.0012c.42.4987.8455,1.4364,1.2591,1.4311,7.6107-.0965,15.2208-.2822,22.8291-.5113,1.526-.0459,1.77-1.0334,1.5932-2.444-1.5832-12.648-.648-25.3952-1.36-38.1022-.7131-12.7336-1.4561-25.5366-1.3519-38.332.562-3.7462-.71-5.6343-4.814-5.0612a49.0663,49.0663,0,0,1-5.4426.0512c-4.8739.1282-5.2173.7875-2.682,5.0207l-3.9961.9444c-.1709-.7192-.1925-1.71-1.2525-1.4645-.3645.0844-.5461.9587-.8112,1.4721-1.97-.1492-3.9642-.1563-5.9006-.4955-1.3817-.242-2.5414-.0733-2.58,1.3539-.0351,1.3117,1.3735,1.0894,2.328,1.1579,2.4116.1732,5.1982-.6357,6.9626,2.6788-1.9132.1976-3.5122.81-4.7973.4114-3.7951-1.1774-10.0928,4.518-11.306-4.0542-.1825-1.2893-1.6739-.3579-2.5755-.3233q-16.5272.6345-33.0543,1.2682c.3109-2.5454,2.3031-1.85,3.8472-1.974,1.3128-.1056,2.8657.1135,2.9658-1.807.1169-2.2436-1.5816-2.2407-3.0974-2.1666-7.11.3475-14.1851,1.4121-21.3334,1.0116-.8231-.0462-1.7223.0469-2.0754.9961-.4689,1.26.5489,1.7315,1.3258,2.3326,3.6889,2.8538,2.9043,4.9954-1.41,6.49,1.3459,2.1828,5.38,3.0969,2.7791,6.5156a4.6759,4.6759,0,0,1-5.441,1.4337c-2.73-.85-1.0684-2.8717-.8636-4.5518s1.223-4.4286-.9383-4.7213c-2.8559-.3867-1.6117,2.5726-1.74,4.0961-.7966,9.4662,1.09,18.8539.9529,28.308-.0234,1.6173.2037,3.1847,2.3687,2.8768,1.889-.2686,1.6131-1.755,1.396-3.1062-.9185-5.7164-.7279-11.4808-.7856-17.2378-.0213-2.1218.41-3.4052,2.9617-3.5266,3.2405-.1542,1.4873,1.5148,1.551,2.9488.1434,3.2257-.8331,7.1392,2.4049,9.2715,4.8139,3.17-1.3726,5.1274-.5065,7.7413-.9014.2612-2.3.2369-1.8456,1.67a3.2449,3.2449,0,0,0,2.9952,2.3067c3.1555.1075,6.3165.0516,9.4753.0624a2.1077,2.1077,0,0,1,.956,2.0112c-2.6542.0184-5.3144-.0672-7.9606.0876-2.1552.1261-4.2443,3.1844-4.1125,3.2323,7.3,2.6512-1.9611,5.144-.0217,7.5585-3.1773,1.01,1.1564,3.9588-1.3287,5.1477,1.0028,1.7277,2.6814.6821,4.0316.9859,1.3032.2932,3.0219-.7591,3.9857,1.3664l-8.3305,3.62c.77.8816,1.3221,1.4909,1.8492,2.1211,1.6362,1.956,5.3627,4.0644-.56,5.356-1.1769.2566-2.0364,1.7671-.1671,2.3758a6.5625,6.5625,0,0,1,4.0913,4.6628c.8925,2.8673-2.865,2.8586-4.22,4.6934,4.3721,1.9829,2.81,3.9936.0481,5.872,2.1749,1.0888,1.0757,1.3128,1.5166,3.4761.7452,3.6561-.0285,5.682-3.2473,7.0888-.0745.0326-.1056.4169-.0573.4415,4.6024,2.3432-.5125,5.3622.5576,7.9406-11.023.0412-11.0213.0412-11.0259-10.9343-.0064-14.9839.0565-29.9683-.0682-44.9512-.0372-4.4574-.849-8.9086-.8836-13.3659-.1094-14.0907-.0074-28.1829-.0186-42.2745-.0015-1.9786.77-3.19,2.8125-3.373.8268-.0741,1.663-.0413,2.4949-.06,15.6121-.3443,31.2408-.3515,46.8319-1.1214,18.2317-.9,36.48-1.2472,54.704-2.0841,17.073-.7839,34.1692-1.119,51.2114-2.0962,13.248-.76,26.5548.1593,39.7508-1.6561,2.7174-.3738,5.516-.08,3.0907,3.9352a3.0146,3.0146,0,0,0-2.9912,2.0072l-1.0076.0052c-1.05-2.36-3.1689-2.06-5.1392-2.01q-12.6393.3228-25.2745.7439c-16.5388.5723-33.0849,2.0345-49.6521,1.2134-4.0516-.2009-5.4805,1.2213-4.8626,5.0629-.7584,1.1266-1.934.93-3.0388.9581.1033-2.5372-1.4705-4.6209-3.532-4.5384-2.5872.1035-1.0859,2.9089-1.4569,4.5063a7.7975,7.7975,0,0,0-.0191,1.9908c.7171,20.6859,1.43,41.3721,2.9763,62.0184-.194,12.7658.0908,25.5207,1.0361,38.2536.3148,4.2406-.1118,6.475-5.6042,5.031-4.2009-1.1044-8.9129-.2651-13.3977-.29.1951-1.7665,1.4224-2.0057,2.8744-1.9909,2.4959.0253,4.9943.07,7.4877-.0136,2.0081-.0676,4.5261.7738,4.6393-2.7931.1225-3.8592-2.5581-3.3159-4.7632-3.1429-13.4246,1.053-26.8693,1.03-40.3178.9627a7.1809,7.1809,0,0,0-5.3456,2.0179c16.2306-.1262,31.97.4158,47.752-.5076-1.4484,1.9391-3.2909,1.3626-4.969,1.4528-5.1192.2751-10.2327-.2425-15.38.8132-2.6226.538-2.3163,1.5425-1.9585,3.2281q-14.5017.5133-29.0033,1.0261Q313.0029,142.1066,312.4934,142.11Zm53.63-20.51a2.2262,2.2262,0,0,0-2.8664-1.483c-11.7416,1.7928-23.5873.2389-35.3165,1.1835-3.402.2739-7.5338-2.5655-10.99,2.2672h28.9414c-1.58,1.3116-4.5145,1.7977-4.4953,1.99.4428,4.4508-2.8811,2.1783-4.4468,2.4311-2.7534.4445-5.6484-.3359-8.3571.9019-.7519.3436-1.8057.48-1.61,1.5011.2146,1.1194,1.1448,1.4128,2.3135,1.2552,11.4136-1.5383,22.9085-1.3882,34.3856-1.62.8879-.0179,2.1374.3106,2.124-1.5171-4.0739-1.3393-8.616.522-13.7078-1.42,5.0662-2.1658,9.8425.2606,13.7093-2.8529H348.4208C354.64,120.8173,360.469,122.9305,366.1239,121.6Zm-96.3845,17.928,1.2524.15c.487-1.4776,1.74-3.23,1.326-4.3843-1.6281-4.5369.1633-8.8811.3184-13.2693.2771-7.8426-1.5582-15.54-1.1232-23.3532.2759-4.9559.7175-9.9027.9747-14.8593.0919-1.7723.3915-4.262-2.0683-4.3657-2.9324-.1235-1.8528,2.61-1.8631,4.1511-.0853,12.8194-.3912,25.6535.1194,38.4532C268.9061,127.8268,269.3546,133.7016,269.7394,139.5279Zm56.4984-22.3649c13.2645,1.2317,26.38-.7168,39.5773-.9065C352.5281,114.0422,339.3979,116.27,326.2378,117.163Z"/><path class="cls-2" d="M442.4863,116.0325c1.1937.1506,2.602-.3752,4.3417,2.039-6.77,0-12.6339-.149-18.4838.0765-2.2116.0852-6.138-1.4419-6.2171,1.93-.0884,3.7693,3.8238,1.4255,5.5911,1.4246,13.0811-.0059,26.165-.3779,39.24-.8614,1.9152-.0708,4.0327-.9337,4.1478,1.7.1134,2.5954-2.3793,1.6008-3.84,1.7258-14.3817,1.2309-28.8649.1659-43.195,1.2615-15.0822,1.1531-30.1867-.0923-45.2406,1.5863-6.8144.76-7.081-.29-4.7069-6.7611a6.1978,6.1978,0,0,0-.9462-6.54,3.6264,3.6264,0,0,1,.1271-5.0158c1.3232-1.18,2.7809-.4446,3.3922,1.4182.0843.2568.7685.3168,1.1749.468,1.1117-6.1924,6.6691.0044,8.9428-3.1613a1.973,1.973,0,0,1,1.8409.1693c3.309,4.2368,7.4677,2.6314,11.4128,1.6239,4.5164-1.1535,8.1081,2.2491,12.5314,2.0258,17.3357-.8755,34.689-1.4028,52.0365-2.0418a10.2248,10.2248,0,0,1,5.2655.8965c-9.2066,1.3227-17.9572,5.0609-27.4347,4.0722-14.8076.0343-29.6383-.3972-45.2843,1.3327,1.176,1.0846,1.4046,1.4777,1.6262,1.4737Q420.6481,116.4842,442.4863,116.0325Z"/><path class="cls-11" d="M292.5134,141.0634q-.4932.9883-.9862,1.9764c-5.2523,1.4273-10.63.9308-15.9679,1.04-1.07-2.5781,4.0453-5.5971-.5571-7.94-.0483-.0246-.0172-.4089.0573-.4415,3.2188-1.4068,3.9925-3.4327,3.2473-7.0888-.4409-2.1633.6583-2.3873-1.5166-3.4761,2.7616-1.8784,4.324-3.8891-.0481-5.872,1.355-1.8348,5.1125-1.8261,4.22-4.6934a6.5625,6.5625,0,0,0-4.0913-4.6628c-1.8693-.6087-1.01-2.1192.1671-2.3758,5.9231-1.2916,2.1966-3.4.56-5.356-.5271-.63-1.0791-1.24-1.8492-2.1211l8.3305-3.62c-.9638-2.1255-2.6825-1.0732-3.9857-1.3664-1.35-.3038-3.0288.7418-4.0316-.9859,2.4851-1.1889-1.8486-4.1375,1.3287-5.1477-1.9394-2.4145,7.3217-4.9073.0217-7.5585-.1318-.0479,1.9573-3.1062,4.1125-3.2323,2.6462-.1548,5.3064-.0692,7.9609-.0872.0086,11.066-.0265,22.132.07,33.1969.0153,1.7472-1.0761,4.1957,1.9565,4.82l-.0028,2.9953c-2.1957,2.1362-1.7243,6.4349.9856,8.9889q-.0032,2.51-.0062,5.0194C289.2956,135.7478,289.2754,138.41,292.5134,141.0634Z"/><path class="cls-2" d="M376.4394,75.0875c.9678-2.072,2.8336-1.9376,4.692-1.9974,9.8178-.3162,19.6338-.6853,29.4509-1.0239,1.8262-.063,3.6454-.042,5.0626,1.4527-5.2791,2.2014-11.03,1.7409-16.4029,2.9933l.0675,1.2908,10.0091.5033c-3.27,3.1115-6.8294.9545-10.43,2.2659,4.22,1.6066,8.3686-.5812,11.9909,1.69-9.2428,1.0129-18.5464,1.4146-27.3678,5.0012h14.2692l.0458,1.3444c-6.429.4275-12.8006,1.6352-19.3438.5062C378.1861,84.3823,379.5731,79.4057,376.4394,75.0875Z"/><path class="cls-11" d="M376.4394,75.0875c3.1337,4.3182,1.7467,9.2948,2.0435,14.0266-1.8409,3.728-2.6572,8.3743-8.0206,8.9436-1.5462-20.6465-2.26-41.3327-2.9766-62.0186a7.7975,7.7975,0,0,1,.0191-1.9908c.371-1.5974-1.13-4.4028,1.4569-4.5063,2.0615-.0825,3.6353,2.0012,3.532,4.5384-.5591,1.5753-2.2657,3.4441,1.0308,4.0338.6171,1.0181,2.1187,1.4463,1.9811,2.9687-4.7683.22-2.4433,2.2323-1.0152,4.0176l.9991,2.028a4.942,4.942,0,0,0-3.078,5.4044c.3073,3.9391.0226,7.9213.1215,11.8818.0257,1.0293-.4207,3.2245,1.9834,1.6475q.986,1.5275,1.9726,3.0546c-3.7124.8925-2.2382,3.96-2.6042,6.2431-.8048,5.0209-.3294,10.0161.2807,15.0435C376.9291,85.5513,373.93,79.9243,376.4394,75.0875Z"/><path class="cls-2" d="M376.489,69.1168q-.9865-1.5272-1.9726-3.0546c.0709-1.5729.9585-2.9555.3022-4.7473-1.1752-3.2082.4245-4.5709,3.6788-4.2092,2.3263-.38,4.8675.8488,7.0063-.9357l2.236-.2869-.013-.6054-2.2481-.1882-6.9908.0051c-1.3136-.2631-3.1446.6772-3.7418-1.2607-.38-1.2325.7109-1.5978,1.7411-1.7418a2.0143,2.0143,0,0,0,2.0008-.9816l1.9964-.02c6.3249.7985,12.65-.2256,18.9754.0055-.1489,4.7416-3.987,3.85-6.85,5.14h23.1887l.147,1.7225c-12.5815-.015-25.0884.4264-36.9808,5.0606,5.77,1.4076,11.4521.883,17.2739.2434,5.7889-.6359,11.7022-.1392,17.5939.4149-1.2,1.873-2.8958,1.3317-4.3949,1.3814a86.5071,86.5071,0,0,0-19.0173,2.3164A46.4393,46.4393,0,0,1,376.489,69.1168Z"/><path class="cls-11" d="M375.5325,33.1223c-.6179-3.8416.811-5.2638,4.8626-5.0629,16.5672.8211,33.1133-.6411,49.6521-1.2134q12.6255-.4369,25.2745-.7439c1.97-.05,4.0889-.35,5.1392,2.01a2.8951,2.8951,0,0,1-2.6853.9756c-10.9592-.63-21.85,1.0686-32.7863.9836-13.1049-.1018-26.147,1.5809-39.2732,1.15C382.346,31.111,378.9283,32.45,375.5325,33.1223Z"/><path class="cls-11" d="M342.5156,141.0784c-.3578-1.6856-.6641-2.69,1.9585-3.2281,5.1472-1.0557,10.2607-.5381,15.38-.8132,1.6781-.09,3.5206.4863,4.969-1.4528-15.782.9234-31.5214.3814-47.752.5076a7.1809,7.1809,0,0,1,5.3456-2.0179c13.4485.0677,26.8932.09,40.3178-.9627,2.2051-.173,4.8857-.7163,4.7632,3.1429-.1132,3.5669-2.6312,2.7255-4.6393,2.7931-2.4934.084-4.9918.0389-7.4877.0136-1.452-.0148-2.6793.2244-2.8744,1.9908C349.1743,142.8923,345.8459,142.363,342.5156,141.0784Z"/><path class="cls-2" d="M375.49,47.1285q-.5-1.014-.9992-2.0281c-.0209-2.8492,3.1814-1.307,4.0367-2.9624l1.94-.0177c9.6523.5531,19.27-.0755,28.885-.8315,1.1182-.0879,2.5736-.5189,2.8113,1.0933.2523,1.7112-1.2526,1.6278-2.3858,1.6666a46.6331,46.6331,0,0,1-4.9725.02C394.8462,43.3419,385.31,46.5913,375.49,47.1285Z"/><path class="cls-2" d="M375.5058,41.0827c.1374-1.5222-1.3642-1.95-1.9813-2.9685,2.9394-3.8622,7.277-3.0585,11.1214-2.8841a110.3943,110.3943,0,0,0,20.5518-.8687c1.1187-.1583,2.5462-.61,2.9141.9113.4169,1.7233-1.1275,1.9093-2.2225,1.7457-8.6391-1.29-16.8286,2.5831-25.3824,2.1315-1.48-.0948-2.9-.0951-3.0452,1.9233Z"/><path class="cls-11" d="M442.4863,116.0325q-21.8385.4341-43.6775.8418c-.2216.004-.45-.3891-1.6262-1.4737,15.646-1.73,30.4767-1.2984,45.2843-1.3327Z"/><path class="cls-2" d="M406.44,98.0445c-8.9342.4855-17.93-.8876-26.8271.9344-1.2634.2588-3.0941.3727-3.3642-1.2325-.27-1.6074,1.6382-1.8907,2.7968-2.2972a14.2473,14.2473,0,0,1,3.4356-.3546,4.5713,4.5713,0,0,0,6.0016-.0178l3.9989,0c2.57,1.3168,5.1,2.3411,7.0409-.9587q3.454,0,6.9086,0Q406.436,96.0808,406.44,98.0445Z"/><path class="cls-11" d="M399.46,51.0956c-6.325-.2311-12.6505.793-18.9754-.0055a2.0113,2.0113,0,0,1,2.3536-1.97c11.5692.7422,23.06-1.2643,34.6151-.9521.4478.0121.8879.3127,1.3731.9793C412.3928,50.075,406.0121,51.2846,399.46,51.0956Z"/><path class="cls-11" d="M406.44,98.0445q-.0042-1.9635-.0089-3.9265c4.0964-.3414,8.2466.5135,12.32-.8525,1.73-.58,3.4781.1836,3.5266,2.3388a2.3745,2.3745,0,0,1-3.0873,2.388C414.9086,97.085,410.6857,98.6059,406.44,98.0445Z"/><path class="cls-2" d="M443.1348,105.5486h18.6693c-6.262,2.585-12.515,3.7412-18.7874,1.2546Q443.0758,106.1759,443.1348,105.5486Z"/><path class="cls-11" d="M385.5037,56.17c-2.1388,1.7845-4.68.5559-7.0063.9357q-.0047-1.0053-.01-2.0111l6.9909-.005Q385.4913,55.63,385.5037,56.17Z"/><path class="cls-11" d="M399.5225,94.1178c-1.9411,3.3-4.471,2.2755-7.0409.9587C394.612,93.1664,397.1757,94.4383,399.5225,94.1178Z"/><path class="cls-11" d="M388.4827,95.0768a4.5713,4.5713,0,0,1-6.0016.0178A4.509,4.509,0,0,1,388.4827,95.0768Z"/><path class="cls-11" d="M377.4617,41.0732c.1447-2.0184,1.5651-2.0181,3.0452-1.9233q-.02,1.4856-.04,2.97-.97.0093-1.94.0176Z"/><path class="cls-11" d="M461.4685,28.1066a3.0146,3.0146,0,0,1,2.9912-2.0072C464.3786,28.1332,462.9232,28.1193,461.4685,28.1066Z"/><path class="cls-11" d="M378.4879,51.1105a2.0143,2.0143,0,0,1-2.0008.9816C376.6824,50.8038,376.9069,49.575,378.4879,51.1105Z"/><path class="cls-11" d="M291.5263,143.0477q.49-.0024.9807.0088C292.1738,143.7438,291.8467,143.7678,291.5263,143.0477Z"/><path class="cls-11" d="M312.4934,142.11q.5094-.0027,1.0189-.005C313.1751,142.6544,312.8355,142.6583,312.4934,142.11Z"/><path class="cls-1" d="M188.7748,137.0572c-2.6011-.7449-6.1225-.3708-8.1947-3.6551-.64-1.0145-1.55-1.9655-.6183-3.0345.8764-1.0053,2.0933-.6579,3.1789-.0154,6.7418,3.99,18.3208,1.9838,23.7274-4.1191,1.41-1.5912,3.2241-4.5231,4.9426-3.142,2.2842,1.8358-1.0806,3.6184-2.0969,5.1628C206.7094,132.82,195.9992,137.1935,188.7748,137.0572Z"/><path class="cls-2" d="M65.5467,57.4565,61.693,63.9027C60.2079,60.3625,60.5541,59.7249,65.5467,57.4565Z"/><path class="cls-1" d="M42.6334,172.8677c-1.1423-.2343-1.1569-1.2517-1.0678-2.2662.51-5.8056,3.8284-10.2955,7.0489-14.809a1.7846,1.7846,0,0,1,2.2742-.45,1.4235,1.4235,0,0,1,.51,2.1441c-3.0913,4.4959-5.89,9.1138-7.0043,14.5632C44.2438,172.7866,43.5408,172.9684,42.6334,172.8677Z"/><path class="cls-1" d="M27.7745,123.4421c4.7814-.5625,8.3582-.785,11.8766.54.9789.3686,1.9963.5512,1.6007,1.8888a1.6432,1.6432,0,0,1-2.3807,1.05C35.8121,124.8476,31.9192,125.5438,27.7745,123.4421Z"/><path class="cls-1" d="M201.5857,62.42c-2.3771-.1046-4.5366-.555-5.627-2.7249-1.1513-2.2912.3869-4.4888,1.79-5.7534,3.7782-3.4051,7.9958-6.1689,13.55-5.9046,2.9593.1407,4.6011,1.5839,5.1512,4.2212.565,2.7088.3513,5.6022-2.6659,6.6966C209.8206,60.3931,205.661,61.2906,201.5857,62.42Z"/><path class="cls-1" d="M144.2656,106.3868c-.0631-4.4524,2.4671-7.467,6.1962-7.3825a6.9754,6.9754,0,0,1,7.0733,7.2484c.0158,3.8983-2.8423,7.9026-5.6329,7.8919C147.2537,114.1267,144.3333,111.16,144.2656,106.3868Z"/><path class="cls-1" d="M216.5342,92.7626c.3963,3.9782-2.0351,5.1763-5.3664,5.2964a6.5284,6.5284,0,0,1-6.5319-7.47,6.4221,6.4221,0,0,1,6.13-5.4336C214.0514,84.8418,216.5644,88.3789,216.5342,92.7626Z"/><path class="cls-3" d="M291.5128,116.0722c-3.0326-.6248-1.9412-3.0733-1.9565-4.82-.0967-11.0649-.0616-22.1309-.07-33.1969a2.1073,2.1073,0,0,0-.9565-2.0111c.27-1.6156.9948-3.3091.7354-4.8353-1.6538-9.728-.1468-19.5213-.827-29.2472-.2886-4.1263,1.3673-5.3834,5.1051-4.888q16.5272-.6341,33.0543-1.2682c.9016-.0346,2.393-.966,2.5755.3233,1.2132,8.5722,7.5109,2.8768,11.306,4.0542,1.2851.3987,2.8841-.2138,4.7973-.4114-1.7644-3.3145-4.551-2.5056-6.9626-2.6788-.9545-.0685-2.3631.1538-2.328-1.1579.0382-1.4272,1.1979-1.5959,2.58-1.3539,1.9364.3392,3.9309.3463,5.9009.4958q1.032-.0038,2.0634-.0079,1.998-.4722,3.9957-.9447c4.3146,2.4142,8.6259-.038,12.939-.01-.1042,12.7954.6388,25.5984,1.3519,38.332.7117,12.707-.2235,25.4542,1.36,38.1022.1766,1.4106-.0672,2.3981-1.5932,2.444-7.6083.2291-15.2184.4148-22.8291.5113-.4136.0053-.8391-.9324-1.2591-1.4311,1.0882-.0328,2.2552.1818,2.9921-.9534,4.7826-.0215,9.5655-.0221,14.3478-.08,1.1385-.0138,2.5753-.0068,2.325-1.736-.1831-1.2657-1.4186-1.2008-2.3992-1.2062-4.8107-.0263-9.6224.0276-14.4321-.05-2.2089-.0358-2.9594,1.0538-2.8477,3.0605q.0045.4833.0141.9666-14.4888-.017-28.9778-.0334-.0055-1.4852-.0108-2.9709c2.4214.6434,3.57-2.63,6.0028-1.9507.9261,1.719,2.35,2.4975,4.109,1.5132,1.3941-.78.9308-2.3951.7874-3.6491-.2872-2.5122-2.3723-1.7164-3.8974-1.9106-3.9784,1.828-5.268-4.135-8.974-3.0966-.1052-3.6259,2.5178-3.6767,5.0577-3.8977,2.4274-.2112,5.0264.5813,7.2687-1.32a54.1969,54.1969,0,0,0-10.61-.6807c-2.2243.01-4.4641.0842-4.7432-2.982,2.6042-.006,5.21.0419,7.8121-.0357,1.8859-.0563,3.36-.569,2.1169-2.948,7.5347-7.2771-4.97-1.7985-3.0835-5.52,2.0348-1.498,4.9446-.9521,7.6048-1.3716q-.021-.6442-.0421-1.2885H308.3712c3.6177-2.9987,7.9966-.6483,11.5787-3.23-3.037-.0293-5.6622-1.553-8.6176-1.665-1.3388-.0507-3.453.6987-3.5522-1.52-.0983-2.1993,1.8554-2.4037,3.5952-2.41,3.1833-.0121,6.3668-.0034,9.55-.0034l.0373-1.3068c-3.3262-1.44-6.4954-3.4224-10.46-2.6626q-.0014-.522-.0028-1.044c1.658-.0033,3.3222.0817,4.9721-.0358,1.5019-.107,3.8082.688,3.8286-1.862.0236-2.9436-2.5451-2.2177-4.1024-1.97-4.3836.6972-8.5787-.4623-12.9043-.8651,4.2274.2069,8.193-1.0291,13.3907-1.7221-6.7216-1.6093-12.7567.01-18.1765-2.5419l.0124-1.0562c2.63-.6882,4.8985-2.6382,7.9211-2.037a2.07,2.07,0,0,0,2.6408-1.6443c.2042-1.772-1.2314-2.0609-2.6006-2.23.3-2.5234,1.9159-1.0558,3.1753-1.2264,2.9559-.4,7.1057,1.2074,7.8232-3.8448,1.1621-1.1374,4.07-.18,3.7757-2.9805-.1369-1.304-1.2314-1.8384-2.5519-1.8063a83.6511,83.6511,0,0,1-16.0611-1.01c-4.8317-.8157-6.7239,1.2945-6.1278,5.8318l.991,5.0062a2.1377,2.1377,0,0,0-1.0307,2.0065c-2.1218,1.7049.2766,3.3512.0652,5.0313l-.05,2.9536c-2.5341.218-3.0016-1.2264-3.0174-3.3973-.0218-2.9818.4619-6.0552-.6711-9.9092-4.041,9.3716.7942,15.9,4.3263,22.6889.17.327.8485.4187,1.3086.56.982.3015,2.7247-.3528,2.5291,1.4771-.1446,1.3534-1.59,1.4651-2.77,1.6264-1.4694.201-2.6338.927-2.4623,2.5485.169,1.5974,1.6543,1.2772,2.7566,1.4524.614.0975,1.3723.075,1.4059,1.2093a4.8235,4.8235,0,0,1-1.0466.6313c-1.1474.3663-3.1293-.3095-3.02,1.6774.1026,1.8717,1.95,1.3825,3.1851,1.4165,2.4929.0685,4.9889.0209,7.4836.0212l.0013.0015c-.4726,2.7614-2.6885,1.698-4.3141,2.007-1.6911.3215-3.837-.91-5.715,2.0125h10.9735l.0667,1.0027q-.0537.9667-.1072,1.9335c-2.6476.0145-5.2965.0849-7.9426.0258-2.1045-.047-2.9654.8717-2.9649,2.9675,0,2.0349.711,3.1187,2.8766,3.0459,1.4858-.05,2.9788-.0048,4.4638.0808,1.05.0606,2.1122.533,2.1136,1.6536.0017,1.39-1.307,1.1777-2.249,1.2395a56.5625,56.5625,0,0,1-6.9.3563c-5.164-.298-4.75,2.6082-3.77,6.4072,1.4712-.9573,2.9776-3.8528,4.11.0149.4115,1.405,2.2,1.0755,3.503,1.2666,3.3679.4942,6.4841-1.1826,9.7992-1.0024l.0682,1.9624c-.1549,2.408-3.8887,2.9557-3.0557,5.8773-1.1715-.0075-1.507-.9022-2.1513-1.6856-1.5264-1.856-3.0217-1.7885-3.8242.7841-2.3086-4.504-5.5425-1.4682-9.4662-1.51l3.4969,2.5473C294.6718,115.2337,292.1916,114.7521,291.5128,116.0722Zm50.9729-62.9831.002-.0027c5.7882-.6214,11.8532.9638,17.3536-2.33-5.8037-.3529-11.583-1.211-17.3377.3318-4.8152-1.7577,1.9219-1.9047.4458-3.1968-3.3222-1.0649-3.365-1.0215-6.6583-4.2654-1.0246-1.0094-1.909-1.6719-3.4319-1.1765-2.0112.6543-1.6019,2.06-1.4168,3.5629a33.5587,33.5587,0,0,1,.0634,3.95c.0294,7.64.7844,8.1554,9.0172,6.1434,1.8134-.22,3.7892.4849,5.533-.6523C345.4047,53.42,343.1211,54.6182,342.4857,53.0891Zm-15.8624-1.2584c-2.2032,13.8908.6392,27.6792.691,41.5437C329.745,79.49,326.998,65.6883,326.6233,51.8307ZM342.52,81.0866c.9-1.9611-1.2774-2.5368-.8732-4.0212,1.1817-4.34-2.2323-4.6523-4.8716-4.8129-1.78-.1082-4.81-.228-4.66,2.8131.15,3.0645-.1705,7.1049,5.2268,6.0728A27.1816,27.1816,0,0,1,342.52,81.0866Zm1.0838-13.3184c-1.418-1.1359-2.9721-2.0739-2.8877-4.2111.0258-.6535-8.33-3.1879-8.7249-2.7058a1.9425,1.9425,0,0,0-.3175.8892c-.96,5.7067,1.7893,8.2081,7.5892,6.9265C340.67,68.356,342.085,68.0815,343.6034,67.7682Zm.5368,18.396c-3.5108-1.2888-5.8532-2.2867-8.2838-2.9716-.9445-.2662-2.5711-.594-2.8486.9544a2.2976,2.2976,0,0,0,2.0992,2.7963A19.6088,19.6088,0,0,0,344.14,86.1642Zm-30.0814,14.0519c2.443.7443,3.9478,1.7818,5.6832.73a1.3668,1.3668,0,0,0,.1229-1.22C318.28,98.7087,316.6522,98.7986,314.0588,100.2161Zm12.3958-50.7226c1.2366-2.6713,1.4525-4.2617.0186-6.3287C325.1639,45.2456,325.3422,46.8308,326.4546,49.4935Z"/><path class="cls-11" d="M293.5431,37.0732c-3.7378-.4954-5.3937.7617-5.1051,4.888.68,9.7259-.8268,19.5192.827,29.2472.2594,1.5262-.4657,3.22-.7354,4.8353-3.1586-.0113-6.32.0446-9.4751-.0629a3.2449,3.2449,0,0,1-2.9952-2.3067c-.454-1.4331.9442-1.4088,1.8456-1.67-.8661-2.6139,5.32-4.5713.5065-7.7413-3.238-2.1323-2.2615-6.0458-2.4049-9.2715-.0637-1.434,1.69-3.103-1.551-2.9488-2.5521.1214-2.983,1.4048-2.9617,3.5266.0577,5.757-.1329,11.5214.7856,17.2378.2171,1.3512.493,2.8376-1.396,3.1062-2.165.3079-2.3921-1.26-2.3687-2.8768.1373-9.4541-1.75-18.8418-.9529-28.308.1282-1.5235-1.116-4.4828,1.74-4.0961,2.1613.2927,1.1432,3.041.9383,4.7213s-1.8666,3.7022.8636,4.5518a4.6759,4.6759,0,0,0,5.441-1.4337c2.6005-3.4187-1.4332-4.3328-2.7791-6.5156,4.3145-1.4947,5.0991-3.6363,1.41-6.49-.7769-.6011-1.7947-1.0726-1.3258-2.3326.3531-.9492,1.2523-1.0423,2.0754-.9961,7.1483.4005,14.2232-.6641,21.3334-1.0116,1.5158-.0741,3.2143-.077,3.0974,2.1666-.1,1.92-1.653,1.7014-2.9658,1.807C295.8462,35.2235,293.854,34.5278,293.5431,37.0732Z"/><path class="cls-11" d="M366.1239,121.6c-5.6549,1.3306-11.4838-.7826-17.7031,2.6375h17.3874c-3.8668,3.1135-8.6431.6871-13.7093,2.8529,5.0918,1.942,9.6339.0807,13.7078,1.42.0134,1.8277-1.2361,1.4992-2.124,1.5171-11.4771.2314-22.972.0813-34.3856,1.62-1.1687.1576-2.0989-.1358-2.3135-1.2552-.1958-1.0212.858-1.1575,1.61-1.5011,2.7087-1.2378,5.6037-.4574,8.3571-.9019,1.5657-.2528,4.89,2.02,4.4468-2.4311-.0192-.1924,2.9156-.6785,4.4953-1.99H316.9513c3.4559-4.8327,7.5877-1.9933,10.99-2.2672,11.7292-.9446,23.5749.6093,35.3165-1.1835A2.2262,2.2262,0,0,1,366.1239,121.6Z"/><path class="cls-11" d="M269.7394,139.5279c-.3848-5.8263-.8333-11.7011-1.0637-17.4778-.5106-12.8-.2047-25.6338-.1194-38.4532.01-1.5413-1.0693-4.2746,1.8631-4.1511,2.46.1037,2.16,2.5934,2.0683,4.3657-.2572,4.9566-.6988,9.9034-.9747,14.8593-.435,7.8127,1.4,15.5106,1.1232,23.3532-.1551,4.3882-1.9465,8.7324-.3184,13.2693.4142,1.1542-.839,2.9067-1.326,4.3843Z"/><path class="cls-11" d="M326.2378,117.163c13.16-.8935,26.29-3.1208,39.5773-.9065C352.6178,116.4462,339.5023,118.3947,326.2378,117.163Z"/><path class="cls-11" d="M363.4642,34.1133c-4.3131-.0276-8.6244,2.4246-12.939.01-2.5349-4.2329-2.1915-4.8922,2.6824-5.02a49.0663,49.0663,0,0,0,5.4426-.0512C362.7539,28.479,364.0262,30.3671,363.4642,34.1133Z"/><path class="cls-3" d="M292.4956,128.0564c-2.71-2.554-3.1813-6.8527-.9856-8.9889,1.06,2.2266,4.1188,3.48,3.0368,6.7944C294.1509,127.0748,293.8078,127.9,292.4956,128.0564Z"/><path class="cls-3" d="M292.5134,141.0634c-3.238-2.653-3.2178-5.3156-.024-7.9876C295.7723,135.7285,295.7247,138.3911,292.5134,141.0634Z"/><path class="cls-11" d="M294.5116,113.0745l-3.4969-2.5473c3.9237.0422,7.1576-2.9936,9.4662,1.51C298.7555,113.9047,296.5013,112.7288,294.5116,113.0745Z"/><path class="cls-11" d="M311.5059,109.0685q.0053,1.4857.0107,2.971a7.2648,7.2648,0,0,1-5.06.901c-.8335-2.923,2.9-3.4707,3.0551-5.8786A1.842,1.842,0,0,1,311.5059,109.0685Z"/><path class="cls-11" d="M346.53,35.0684q-1.0316.0041-2.0634.0079c.2648-.5137.4464-1.388.8109-1.4724C346.337,33.3586,346.3586,34.3492,346.53,35.0684Z"/><path class="cls-3" d="M377.4617,41.0732l1.0648,1.0644c-.8548,1.6558-4.0571.1136-4.0362,2.9628-1.428-1.7852-3.753-3.7971,1.0153-4.0175Q376.4839,41.0778,377.4617,41.0732Z"/><path class="cls-3" d="M385.5037,56.17q-.0124-.54-.025-1.08l2.248.1881.013.6054Z"/><path class="cls-11" d="M306.5072,91.0944c.2791,3.066,2.5189,2.9915,4.7432,2.9818a54.1969,54.1969,0,0,1,10.61.6807c-2.2423,1.9015-4.8413,1.109-7.2687,1.32-2.54.221-5.1629.2718-5.058,3.8989-1.95,1.6752-.7365,3.4042-.0894,5.1234-3.3151-.18-6.4313,1.4966-9.7992,1.0024-1.3026-.1911-3.0915.1384-3.503-1.2666-1.1327-3.8677-2.6391-.9722-4.11-.0149-.98-3.799-1.3941-6.7052,3.77-6.4072a56.5625,56.5625,0,0,0,6.9-.3563c.942-.0618,2.2507.15,2.249-1.2395-.0014-1.1206-1.0637-1.593-2.1136-1.6536-1.485-.0856-2.978-.1308-4.4638-.0808-2.1656.0728-2.8761-1.011-2.8766-3.0459,0-2.0958.86-3.0145,2.9649-2.9675,2.6461.0591,5.295-.0113,7.9437-.0254Q306.4573,90.07,306.5072,91.0944Z"/><path class="cls-2" d="M310.5028,67.1317c3.9646-.76,7.1338,1.2221,10.46,2.6626l-.0373,1.3068c-3.1834,0-6.3669-.0087-9.55.0034-1.74.0066-3.6935.211-3.5952,2.41.0992,2.219,2.2134,1.47,3.5522,1.52,2.9554.112,5.5806,1.6357,8.6176,1.665-3.5821,2.5821-7.961.2317-11.5787,3.23h12.5442q.021.6442.0421,1.2885c-2.66.4195-5.57-.1264-7.6048,1.3716-1.8862,3.7214,10.6182-1.7572,3.0843,5.52-3.2174-1.2337-6.5778-1.0547-9.9257-1q-.0333-.5013-.0659-1.003c-.91-1.2,4.8006-3.9575-.9452-4.0192l-.0012-.0016c-.2882-3.8478-3.14-6.8546-3.4547-10.7463-.1255-1.5517.631-3.5116,1.4129-2.71C306.9739,72.2343,308.145,67.2641,310.5028,67.1317Z"/><path class="cls-11" d="M310.5028,67.1317c-2.3578.1324-3.5289,5.1026-7.0456,1.4983-.7819-.8015-1.5384,1.1584-1.4129,2.71.3149,3.8917,3.1665,6.8985,3.4547,10.7463-2.4948,0-4.9908.0474-7.4837-.0211-1.2353-.034-3.0825.4552-3.1851-1.4165-.109-1.9869,1.8729-1.3111,3.02-1.6774a4.8235,4.8235,0,0,0,1.0466-.6313c-.0336-1.1343-.7919-1.1118-1.4059-1.2093-1.1023-.1752-2.5876.145-2.7566-1.4524-.1715-1.6215.9929-2.3475,2.4623-2.5485,1.1795-.1613,2.6252-.273,2.77-1.6264.1956-1.83-1.5471-1.1756-2.5291-1.4771-.46-.1412-1.1385-.2329-1.3086-.56-3.5321-6.7886-8.3673-13.3173-4.3263-22.6889,1.133,3.854.6493,6.9274.6711,9.9092.0158,2.1709.4833,3.6153,3.0176,3.3973,1.6652,1.2494,4.4754,1.2353,4.4231,4.3939-.0155.9394,1.2321,1.5809,2.2785,1.5275,2.7742-.1418,5.5331.8686,8.307.0822Q310.5014,66.61,310.5028,67.1317Z"/><path class="cls-2" d="M340.523,56.1063c-8.2328,2.012-8.9878,1.497-9.0172-6.1434a33.5587,33.5587,0,0,0-.0634-3.95c-.1851-1.5032-.5944-2.9086,1.4168-3.5629,1.5229-.4954,2.4073.1671,3.4319,1.1765,3.2933,3.2439,3.3361,3.2005,6.6583,4.2654,1.4761,1.2921-5.261,1.4391-.4459,3.1968q-.0079.9992-.0158,1.998l-.0018.0027Z"/><path class="cls-2" d="M310.5,66.0877c-2.7739.7864-5.5328-.224-8.307-.0822-1.0464.0534-2.294-.5881-2.2785-1.5275.0523-3.1586-2.7579-3.1445-4.4231-4.3939q.0245-1.4769.049-2.954.9834-.02,1.9678-.0393c5.42,2.5517,11.4549.9326,18.1765,2.5419-5.1977.693-9.1633,1.929-13.3907,1.7221,4.3256.4028,8.5207,1.5623,12.9043.8651,1.5573-.2477,4.126-.9736,4.1024,1.97-.02,2.55-2.3267,1.755-3.8286,1.862C313.8222,66.1694,312.158,66.0844,310.5,66.0877Z"/><path class="cls-2" d="M295.5153,45.0865c-.5961-4.5373,1.2961-6.6475,6.1278-5.8318a83.6511,83.6511,0,0,0,16.0611,1.01c1.32-.0321,2.415.5023,2.5519,1.8063.2938,2.8-2.6136,1.8431-3.7755,2.981-1.7942-1.0851-3.7868-.9787-5.764-.9511C305.6329,44.1723,300.6421,45.6785,295.5153,45.0865Z"/><path class="cls-11" d="M295.5153,45.0865c5.1268.592,10.1176-.9142,15.2013-.9852,1.9772-.0276,3.97-.134,5.764.9511-.7177,5.0517-4.8675,3.444-7.8234,3.8443-1.2594.1706-2.8753-1.297-3.175,1.226q-4.4877-.0153-8.9759-.03Z"/><path class="cls-11" d="M326.6233,51.8307c.3747,13.8576,3.1217,27.66.691,41.5437C327.2625,79.51,324.42,65.7215,326.6233,51.8307Z"/><path class="cls-2" d="M342.52,81.0866a27.1816,27.1816,0,0,0-5.1783.0518c-5.3973,1.0321-5.0764-3.0083-5.2268-6.0728-.1492-3.0411,2.8808-2.9213,4.66-2.8131,2.6393.1606,6.0533.4729,4.8716,4.8129C341.2422,78.55,343.42,79.1255,342.52,81.0866Z"/><path class="cls-2" d="M343.6034,67.7682c-1.5184.3133-2.9336.5878-4.3409.8988-5.8,1.2816-8.5491-1.22-7.5892-6.9265a1.9425,1.9425,0,0,1,.3175-.8892c.3952-.4821,8.7507,2.0523,8.7249,2.7058C340.6313,65.6943,342.1854,66.6323,343.6034,67.7682Z"/><path class="cls-2" d="M340.48,111.1063c-.1117-2.0067.6388-3.0963,2.8477-3.0605,4.81.078,9.6214.0241,14.4321.05.9806.0054,2.2161-.0595,2.3992,1.2062.25,1.7292-1.1865,1.7222-2.325,1.736-4.7823.0578-9.5652.0584-14.3477.0794C342.4907,109.45,341.4835,110.8184,340.48,111.1063Z"/><path class="cls-2" d="M309.4439,105.0994c-.6471-1.7192-1.861-3.4482.0894-5.1234,3.7063-1.04,4.9959,4.9234,8.9743,3.0954a6.79,6.79,0,0,1-.999,4.0465c-2.4332-.68-3.5814,2.5941-6.0028,1.9507a1.8419,1.8419,0,0,0-1.9938-2.0067Z"/><path class="cls-2" d="M296.5063,50.0927q4.488.0149,8.9759.03c1.3689.17,2.8045.4586,2.6,2.2306a2.07,2.07,0,0,1-2.6408,1.6443c-3.0226-.6012-5.2909,1.3488-7.9213,2.0377.0836-1.709-.2175-3.2188-2.0448-3.9361A2.1377,2.1377,0,0,1,296.5063,50.0927Z"/><path class="cls-11" d="M342.4877,53.0864q.0079-.9989.0158-1.998c5.7548-1.5428,11.5341-.6847,17.3378-.3318C354.3409,54.05,348.2759,52.465,342.4877,53.0864Z"/><path class="cls-7" d="M306.5113,87.11c3.3479-.0547,6.7083-.2337,9.9257,1,1.2427,2.3793-.2318,2.892-2.1177,2.9483-2.6021.0776-5.2079.03-7.8121.0357q-.05-1.0246-.102-2.05Q306.4573,88.0767,306.5113,87.11Z"/><path class="cls-11" d="M344.14,86.1642a19.6088,19.6088,0,0,1-9.0332.7791,2.2976,2.2976,0,0,1-2.0992-2.7963c.2775-1.5484,1.9041-1.2206,2.8486-.9544C338.287,83.8775,340.6294,84.8754,344.14,86.1642Z"/><path class="cls-11" d="M305.5,82.088c5.7458.0617.0351,2.8194.9452,4.0192-3.4159,0-6.8311,0-10.9743,0,1.878-2.923,4.0239-1.691,5.715-2.0125C302.8117,83.786,305.0276,84.8494,305.5,82.088Z"/><path class="cls-11" d="M317.5086,107.1179a6.79,6.79,0,0,0,.999-4.0465c1.5251.1942,3.61-.6016,3.8974,1.9106.1434,1.254.6067,2.8692-.7874,3.6491C319.8584,109.6154,318.4347,108.8369,317.5086,107.1179Z"/><path class="cls-11" d="M314.0588,100.2161c2.5934-1.4175,4.2209-1.5074,5.8061-.4908a1.3668,1.3668,0,0,1-.1229,1.22C318.0066,101.9979,316.5018,100.96,314.0588,100.2161Z"/><path class="cls-11" d="M340.523,56.1063l1.9629-3.0172c.6352,1.5291,2.9188.331,3.57,2.3649C344.3122,56.5912,342.3364,55.8865,340.523,56.1063Z"/><path class="cls-11" d="M295.4756,52.0992c1.8273.7173,2.1284,2.2271,2.0448,3.9361q-.006.5271-.0122,1.0555-.9841.0195-1.9678.0393C295.7522,55.45,293.3538,53.8041,295.4756,52.0992Z"/><path class="cls-11" d="M326.4546,49.4935c-1.1124-2.6627-1.2907-4.2479.0186-6.3287C327.9071,45.2318,327.6912,46.8222,326.4546,49.4935Z"/><path class="cls-11" d="M340.48,111.1063c1.0032-.2879,2.01-1.6561,3.0063.0115-.737,1.1357-1.904.9211-2.9922.9539v.0012Q340.4847,111.59,340.48,111.1063Z"/></g></g></svg>